<?xml version="1.0" standalone="no"?>
<!DOCTYPE svg PUBLIC "-//W3C//DTD SVG 1.1//EN" "http://www.w3.org/Graphics/SVG/1.1/DTD/svg11.dtd" >
<svg xmlns="http://www.w3.org/2000/svg" xmlns:xlink="http://www.w3.org/1999/xlink" version="1.1">
<metadata>
Created by FontForge 20170731 at Wed Sep 22 17:33:22 2021
 By Aleksey,,,
Copyright 2010 by (URW)++ Design &#38; Development GmbH
</metadata>
<defs>
<font id="FuturaCon-MedObl" horiz-adv-x="1024" >
  <font-face 
    font-family="FuturaConMed"
    font-weight="500"
    font-style="italic"
    font-stretch="normal"
    units-per-em="2048"
    panose-1="0 0 6 0 0 0 0 0 0 0"
    ascent="1485"
    descent="-563"
    x-height="924"
    cap-height="1366"
    bbox="-287 -512 1921 1985"
    underline-thickness="149"
    underline-position="-353"
    slope="-7"
    unicode-range="U+0020-FB04"
  />
<missing-glyph horiz-adv-x="380" 
 />
    <glyph glyph-name="ff" unicode="ff" horiz-adv-x="821" 
d="M553 1479l-21 -162q-25 21 -37.5 27t-29.5 6q-41 0 -64 -33q-17 -24 -24 -96l-37 -297h96l-16 -140h-96l-97 -784h-157l96 784h-100l16 140h100l41 323q15 126 73.5 190t156.5 64q46 0 100 -22zM868 924l-16 -140h-143l-97 -784h-157l96 784h-84l16 140h84l41 323
q30 254 232 254q45 0 96 -22l-18 -162q-41 33 -68 33q-19 0 -37 -10t-27 -25q-16 -22 -24 -94l-37 -297h143z" />
    <glyph glyph-name="fi" unicode="fi" horiz-adv-x="763" 
d="M483 924l-16 -140h-143l-97 -784h-157l96 784h-100l16 140h100l41 323q15 126 73.5 190t156.5 64q46 0 100 -22l-21 -162q-24 20 -37 26.5t-30 6.5q-19 0 -37 -10t-27 -25q-10 -12 -14.5 -30.5t-9.5 -63.5l-37 -297h143zM725 924l-113 -924h-157l112 924h158zM696 1309
q40 0 67.5 -28.5t27.5 -68.5q0 -51 -36.5 -88t-86.5 -37q-40 0 -67.5 28.5t-27.5 68.5q0 51 36.5 88t86.5 37z" />
    <glyph glyph-name="fl" unicode="fl" horiz-adv-x="763" 
d="M483 924l-16 -140h-143l-97 -784h-157l96 784h-100l16 140h100l41 323q30 254 232 254q44 0 98 -22l-21 -162q-24 20 -37 26.5t-30 6.5q-46 0 -64 -35q-10 -12 -14.5 -30.5t-9.5 -63.5l-37 -297h143zM795 1485l-183 -1485h-157l182 1485h158z" />
    <glyph glyph-name="ffi" unicode="ffi" horiz-adv-x="1148" 
d="M553 1479l-21 -162q-25 21 -37.5 27t-29.5 6q-41 0 -64 -33q-17 -24 -24 -96l-37 -297h96l-16 -140h-96l-97 -784h-157l96 784h-100l16 140h100l41 323q15 126 73.5 190t156.5 64q46 0 100 -22zM868 924l-16 -140h-143l-97 -784h-157l96 784h-84l16 140h84l41 323
q30 254 232 254q45 0 96 -22l-18 -162q-41 33 -68 33q-19 0 -37 -10t-27 -25q-16 -22 -24 -94l-37 -297h143zM1110 924l-115 -924h-155l112 924h158zM1081 1309q40 0 67.5 -28.5t27.5 -68.5q0 -50 -37 -87.5t-88 -37.5q-38 0 -66.5 28.5t-28.5 68.5q0 51 37 88t88 37z" />
    <glyph glyph-name=".notdef" horiz-adv-x="380" 
 />
    <glyph glyph-name=".null" horiz-adv-x="0" 
 />
    <glyph glyph-name="nonmarkingreturn" horiz-adv-x="682" 
 />
    <glyph glyph-name="space" unicode=" " horiz-adv-x="380" 
 />
    <glyph glyph-name="exclam" unicode="!" horiz-adv-x="507" 
d="M446 1366l-122 -1004h-164l123 1004h163zM225 217q41 0 71 -29.5t30 -70.5q0 -54 -39 -93.5t-92 -39.5q-41 0 -71 29.5t-30 70.5q0 54 39 93.5t92 39.5z" />
    <glyph glyph-name="quotedbl" unicode="&#x22;" horiz-adv-x="688" 
d="M399 1366l-100 -545h-123l35 545h188zM698 1366l-100 -545h-123l35 545h188z" />
    <glyph glyph-name="numbersign" unicode="#" horiz-adv-x="780" 
d="M735 580l-16 -138h-164l-111 -442h-135l111 442h-129l-111 -442h-133l111 442h-152l17 138h170l57 233h-150l17 137h168l104 416h131l-102 -416h129l104 416h133l-102 -416h145l-16 -137h-164l-59 -233h147zM512 813h-129l-57 -233h129z" />
    <glyph glyph-name="dollar" unicode="$" horiz-adv-x="778" 
d="M770 1249l-102 -116q-50 40 -89.5 56.5t-86.5 16.5q-91 0 -150 -61.5t-59 -155.5q0 -74 38.5 -124.5t139.5 -108.5q148 -83 203 -156t55 -186q0 -157 -96.5 -279.5t-241.5 -148.5l-23 -168h-106l20 166q-85 13 -139 42.5t-104 88.5l104 121q60 -59 104.5 -82t98.5 -23
q92 0 157.5 72.5t65.5 173.5q0 70 -38.5 119.5t-135.5 105.5q-151 86 -207.5 162t-56.5 192q0 151 85 255.5t234 138.5l19 149h106l-18 -147q121 -14 223 -103z" />
    <glyph glyph-name="percent" unicode="%" horiz-adv-x="1169" 
d="M381 1374q76 0 117 -55t41 -158q0 -115 -22 -222.5t-62 -182.5q-25 -50 -71.5 -79.5t-98.5 -29.5q-78 0 -120 62.5t-42 179.5q0 99 23 199.5t61 171.5q28 54 74 84t100 30zM369 1264q-38 0 -60 -43q-29 -56 -48 -149t-19 -185q0 -129 59 -129q28 0 46.5 27.5t37.5 93.5
q37 132 37 272q0 113 -53 113zM1022 1337l-756 -1345l-96 22l758 1346zM920 715q75 0 116 -55.5t41 -159.5q0 -242 -84 -404q-25 -49 -71.5 -78.5t-98.5 -29.5q-80 0 -122 62t-42 179q0 99 23 199.5t61 171.5q28 54 75.5 84.5t101.5 30.5zM907 604q-39 0 -61 -43
q-28 -53 -48 -143.5t-20 -167.5q0 -152 60 -152q29 0 48 27t38 94q37 135 37 273q0 112 -54 112z" />
    <glyph glyph-name="ampersand" unicode="&#x26;" horiz-adv-x="952" 
d="M526 713l166 -391q69 60 123 122l86 -120q-74 -80 -145 -142l78 -182h-179l-32 76q-119 -94 -240 -94q-129 0 -213 93t-84 236q0 238 248 434q-78 187 -78 297q0 123 96 215.5t223 92.5q101 0 166.5 -62.5t65.5 -159.5q0 -101 -65.5 -198t-215.5 -217zM467 846
q87 60 134.5 128.5t47.5 133.5q0 43 -27.5 71.5t-68.5 28.5q-63 0 -104 -45.5t-41 -113.5q0 -37 12 -77.5t47 -125.5zM561 211l-168 395q-145 -136 -145 -270q0 -82 45.5 -135.5t114.5 -53.5q37 0 71.5 14.5t81.5 49.5z" />
    <glyph glyph-name="quotesingle" unicode="'" horiz-adv-x="389" 
d="M399 1366l-100 -545h-123l35 545h188z" />
    <glyph glyph-name="parenleft" unicode="(" horiz-adv-x="552" 
d="M461 1503l137 -49q-334 -577 -334 -1120q0 -323 117 -658l-150 -53q-127 327 -127 694q0 295 94.5 609t262.5 577z" />
    <glyph glyph-name="parenright" unicode=")" horiz-adv-x="552" 
d="M117 -377l-137 51q331 569 331 1121q0 317 -112 657l147 51q60 -153 93.5 -335.5t33.5 -360.5q0 -294 -94 -606.5t-262 -577.5z" />
    <glyph glyph-name="asterisk" unicode="*" horiz-adv-x="780" 
d="M229 1350l217 -105l29 242l82 -10l-31 -240l236 47l16 -84l-235 -45l116 -211l-73 -41l-115 213l-162 -180l-61 59l164 176l-217 101z" />
    <glyph glyph-name="plus" unicode="+" horiz-adv-x="780" 
d="M94 623v149h246v252h156v-252h243v-149h-243v-254h-156v254h-246z" />
    <glyph glyph-name="comma" unicode="," horiz-adv-x="401" 
d="M295 166l-260 -449l-111 29l207 461z" />
    <glyph glyph-name="hyphen" unicode="-" horiz-adv-x="296" 
d="M-6 426l20 172h297l-20 -172h-297z" />
    <glyph glyph-name="period" unicode="." horiz-adv-x="401" 
d="M170 217q41 0 70.5 -29.5t29.5 -70.5q0 -54 -39 -93.5t-92 -39.5q-41 0 -70.5 29.5t-29.5 70.5q0 54 39 93.5t92 39.5z" />
    <glyph glyph-name="slash" unicode="/" horiz-adv-x="856" 
d="M1018 1485l-995 -1845h-150l997 1845h148z" />
    <glyph glyph-name="zero" unicode="0" horiz-adv-x="778" 
d="M520 1386q96 0 152 -65q39 -45 64.5 -140.5t25.5 -195.5q0 -179 -31.5 -371t-85.5 -338q-51 -139 -135 -217.5t-182 -78.5q-97 0 -164 73q-41 46 -65.5 147t-24.5 224q0 202 41 405.5t108 333.5q57 109 133 166t164 57zM496 1233q-41 0 -78 -33.5t-62 -93.5
q-51 -121 -87 -317t-36 -347q0 -160 28 -232.5t91 -72.5q54 0 92 51t72 170q35 127 61.5 321t26.5 331q0 109 -27.5 166t-80.5 57z" />
    <glyph glyph-name="one" unicode="1" horiz-adv-x="778" 
d="M602 1366l-168 -1366h-166l150 1212h-160l37 154h307z" />
    <glyph glyph-name="two" unicode="2" horiz-adv-x="778" 
d="M633 154l-19 -154h-598l359 580q127 205 176 321t49 211q0 63 -30 100t-81 37q-77 0 -120 -69.5t-56 -216.5h-159q22 191 86 294q35 59 106.5 94t155.5 35q125 0 194.5 -68.5t69.5 -191.5q0 -140 -90 -327q-34 -69 -141 -242l-252 -403h350z" />
    <glyph glyph-name="three" unicode="3" horiz-adv-x="778" 
d="M287 664l18 147h14h27q147 0 195 92q45 85 45 201q0 61 -29 95t-82 34q-66 0 -101.5 -49.5t-47.5 -157.5h-152q12 93 29.5 145t54.5 101q38 54 101 84t135 30q118 0 186 -67t68 -184q0 -148 -52.5 -250t-150.5 -146q76 -29 109.5 -93t33.5 -179q0 -126 -37.5 -236.5
t-99.5 -167.5q-92 -83 -232 -83q-126 0 -195 69.5t-69 198.5q0 43 11 121h161q-8 -65 -8 -99q0 -67 30.5 -104t86.5 -37q40 0 74 20.5t51 55.5q26 50 41.5 124t15.5 144q0 82 -35.5 129.5t-103.5 56.5q-31 5 -92 5z" />
    <glyph glyph-name="four" unicode="4" horiz-adv-x="778" 
d="M709 1366l-107 -860h105l-19 -152h-104l-43 -354h-164l43 354h-365l19 154l461 858h174zM438 506l56 450q7 56 32 177q-37 -94 -75 -164l-236 -463h223z" />
    <glyph glyph-name="five" unicode="5" horiz-adv-x="778" 
d="M758 1366l-19 -154h-303l-88 -360q34 6 55 6q128 0 205.5 -94t77.5 -250q0 -236 -115.5 -385t-298.5 -149q-62 0 -114 16.5t-115 56.5l57 160q90 -76 172 -76q101 0 169.5 99t68.5 245q0 110 -50.5 170t-142.5 60q-78 0 -170 -43l175 698h436z" />
    <glyph glyph-name="six" unicode="6" horiz-adv-x="778" 
d="M670 1366l-336 -608q82 55 149 55q98 0 154.5 -80.5t56.5 -220.5q0 -147 -39 -266t-108 -180q-95 -86 -211 -86q-123 0 -194.5 85t-71.5 234q0 141 48 295t154 350l230 422h168zM416 666q-58 0 -101 -52q-33 -39 -57.5 -122.5t-24.5 -157.5q0 -100 31.5 -153.5
t89.5 -53.5q34 0 65 20t48 54q29 55 46 135t17 160q0 79 -30 124.5t-84 45.5z" />
    <glyph glyph-name="seven" unicode="7" horiz-adv-x="778" 
d="M219 1366h606l-610 -1366h-174l539 1212h-379z" />
    <glyph glyph-name="eight" unicode="8" horiz-adv-x="778" 
d="M561 750q74 -37 106.5 -100.5t32.5 -170.5q0 -131 -38 -239.5t-105 -169.5q-101 -90 -229 -90q-126 0 -197.5 81.5t-71.5 227.5q0 172 64 294.5t176 166.5q-63 38 -92 95t-29 146q0 167 96 281t236 114q115 0 179.5 -73.5t64.5 -204.5q0 -262 -193 -358zM489 1241
q-69 0 -109 -71t-40 -191q0 -71 25.5 -109.5t72.5 -38.5q67 0 109.5 72.5t42.5 186.5q0 73 -26.5 112t-74.5 39zM418 670q-82 0 -136.5 -97.5t-54.5 -242.5q0 -199 119 -199q82 0 127 80q62 121 62 278q0 82 -32 131.5t-85 49.5z" />
    <glyph glyph-name="nine" unicode="9" horiz-adv-x="778" 
d="M162 0l336 608q-47 -31 -80 -43t-70 -12q-97 0 -154 81t-57 216q0 150 39.5 269t108.5 181q92 86 211 86q123 0 194.5 -84.5t71.5 -230.5t-47 -297t-156 -352l-229 -422h-168zM477 1241q-34 0 -64.5 -20t-47.5 -52q-29 -55 -46.5 -136t-17.5 -161q0 -78 30.5 -124
t84.5 -46q36 0 68 21t51 57q63 120 63 264q0 94 -32 145.5t-89 51.5z" />
    <glyph glyph-name="colon" unicode=":" horiz-adv-x="401" 
d="M260 942q41 0 69.5 -29.5t28.5 -70.5q0 -54 -38.5 -93.5t-92.5 -39.5q-41 0 -69.5 29.5t-28.5 70.5q0 54 38.5 93.5t92.5 39.5zM170 217q41 0 70.5 -29.5t29.5 -70.5q0 -54 -39 -93.5t-92 -39.5q-41 0 -70.5 29.5t-29.5 70.5q0 54 39 93.5t92 39.5z" />
    <glyph glyph-name="semicolon" unicode=";" horiz-adv-x="401" 
d="M276 942q42 0 71.5 -29t29.5 -71q0 -54 -39 -93.5t-92 -39.5q-43 0 -72 30t-29 74q0 51 39.5 90t91.5 39zM295 166l-260 -449l-111 29l207 461z" />
    <glyph glyph-name="less" unicode="&#x3c;" 
d="M979 1182v-164l-713 -328l713 -328v-161l-887 420v141z" />
    <glyph glyph-name="equal" unicode="=" horiz-adv-x="778" 
d="M94 752v147h645v-147h-645zM94 496v145h645v-145h-645z" />
    <glyph glyph-name="greater" unicode="&#x3e;" 
d="M94 199v163l713 328l-713 328v164l887 -422v-142z" />
    <glyph glyph-name="question" unicode="?" horiz-adv-x="718" 
d="M197 367l49 409q49 -2 65 -2q99 0 133 64q25 50 42.5 133.5t17.5 152.5q0 52 -23 82.5t-61 30.5q-103 0 -121 -168l-6 -59h-160l8 67q19 151 95.5 229t205.5 78q109 0 172.5 -61.5t63.5 -167.5q0 -92 -20.5 -195.5t-49.5 -160.5q-35 -71 -87 -106.5t-128 -41.5l-35 -284
h-161zM262 215q44 0 73.5 -28.5t29.5 -71.5q0 -52 -39.5 -91.5t-92.5 -39.5q-41 0 -70.5 29.5t-29.5 70.5q0 52 39 91.5t90 39.5z" />
    <glyph glyph-name="at" unicode="@" horiz-adv-x="1345" 
d="M1004 1034l-54 -452q-6 -50 -6 -93q0 -73 55 -73q69 0 125 108t56 244q0 215 -126 352t-323 137q-134 0 -245 -75t-174.5 -206.5t-63.5 -291.5q0 -134 48.5 -255.5t133.5 -199.5q129 -123 332 -123q182 0 358 109l56 -117q-196 -118 -420 -118q-184 0 -332 91
t-231.5 252.5t-83.5 362.5q0 195 82 355.5t225.5 252.5t316.5 92q159 0 289.5 -79t205.5 -217t75 -306q0 -131 -43.5 -243.5t-117 -179t-159.5 -66.5q-43 0 -83.5 31.5t-47.5 72.5l-4 19q-47 -71 -86.5 -99t-91.5 -28q-101 0 -168.5 102.5t-67.5 257.5q0 170 81.5 285
t201.5 115q49 0 82 -24t71 -89l13 96h121zM680 420h2q64 0 114 87t50 200q0 93 -34 154t-85 61q-67 0 -111.5 -79.5t-44.5 -201.5q0 -94 31.5 -157.5t77.5 -63.5z" />
    <glyph glyph-name="A" unicode="A" horiz-adv-x="737" 
d="M559 1366l117 -1366h-176l-19 266h-280l-82 -266h-172l446 1366h166zM473 406l-27 401q-8 104 -8 184q0 40 6 148q-39 -198 -82 -340l-118 -393h229z" />
    <glyph glyph-name="B" unicode="B" horiz-adv-x="759" 
d="M219 1366h223q119 0 176 -33q53 -29 83 -98t30 -160q0 -84 -25 -163.5t-67 -129.5q-36 -44 -111 -82q80 -31 117 -88t37 -153q0 -116 -36 -216t-97 -155q-54 -48 -118.5 -68t-164.5 -20h-215zM369 1223l-56 -447h47q96 0 140 53q28 35 46.5 103.5t18.5 134.5
q0 85 -32 120.5t-109 35.5h-55zM297 633l-59 -486h45q110 0 161 60q31 37 49.5 101t18.5 130q0 195 -164 195h-51z" />
    <glyph glyph-name="C" unicode="C" horiz-adv-x="708" 
d="M772 1346l-22 -172q-72 47 -134 47q-84 0 -152 -57.5t-114 -166.5q-37 -90 -61.5 -229t-24.5 -264q0 -172 53.5 -264.5t151.5 -92.5q70 0 162 50l-21 -168q-85 -47 -168 -47q-86 0 -161.5 44.5t-118.5 120.5q-74 128 -74 336q0 168 39.5 345.5t103.5 297.5
q65 119 172.5 188.5t225.5 69.5q81 0 143 -38z" />
    <glyph glyph-name="D" unicode="D" horiz-adv-x="819" 
d="M51 0l168 1366h176q217 0 299 -98q43 -49 67.5 -135t24.5 -183q0 -204 -43.5 -410t-115.5 -339q-107 -201 -381 -201h-195zM367 1212l-129 -1056h41q64 0 110 23.5t88 76.5q54 70 94.5 273.5t40.5 400.5q0 145 -50 213.5t-156 68.5h-39z" />
    <glyph glyph-name="E" unicode="E" horiz-adv-x="641" 
d="M674 1366l-19 -158h-288l-52 -426h273l-21 -157h-272l-57 -469h288l-18 -156h-457l168 1366h455z" />
    <glyph glyph-name="F" unicode="F" horiz-adv-x="626" 
d="M680 1366l-18 -156h-295l-52 -426h275l-21 -159h-274l-76 -625h-168l168 1366h461z" />
    <glyph glyph-name="G" unicode="G" horiz-adv-x="845" 
d="M457 733h346l-25 -192q-20 -168 -44 -253.5t-70 -154.5q-51 -74 -123.5 -113.5t-155.5 -39.5q-146 0 -223.5 106.5t-77.5 306.5q0 189 35 401t84 320q59 132 150 202t206 70q239 0 279 -278l-172 -66q-8 100 -36.5 143.5t-88.5 43.5t-105 -46t-82 -145q-38 -103 -67 -300
t-29 -357q0 -119 38.5 -180.5t111.5 -61.5q87 0 130 77.5t68 275.5l10 88h-178z" />
    <glyph glyph-name="H" unicode="H" horiz-adv-x="847" 
d="M850 1366l-168 -1366h-168l82 666h-295l-82 -666h-168l168 1366h168l-68 -543h295l68 543h168z" />
    <glyph glyph-name="I" unicode="I" horiz-adv-x="385" 
d="M387 1366l-168 -1366h-168l168 1366h168z" />
    <glyph glyph-name="J" unicode="J" horiz-adv-x="503" 
d="M506 1366l-133 -1075q-10 -92 -21.5 -133t-36.5 -78q-32 -47 -89 -73.5t-126 -26.5q-82 0 -153 36l20 174q57 -63 123 -63q57 0 81.5 36.5t37.5 143.5l129 1059h168z" />
    <glyph glyph-name="K" unicode="K" horiz-adv-x="737" 
d="M821 1366l-356 -645l201 -721h-185l-178 690l-84 -690h-168l168 1366h168l-76 -616l332 616h178z" />
    <glyph glyph-name="L" unicode="L" horiz-adv-x="569" 
d="M387 1366l-149 -1208h288l-20 -158h-455l168 1366h168z" />
    <glyph glyph-name="M" unicode="M" horiz-adv-x="1095" 
d="M1006 1366l-11 -1366h-166l25 915q3 67 14 175q-29 -129 -65 -269l-242 -821h-133l-39 809v63l-2 74q0 42 6 144l-6 -33l-6 -47q-8 -56 -10 -56l-9 -36l-200 -918h-172l336 1366h180l31 -897v-154q12 68 34 150l252 901h183z" />
    <glyph glyph-name="N" unicode="N" horiz-adv-x="860" 
d="M860 1366l-168 -1366h-151l-199 879q-20 112 -23 135v-21q0 -65 -14 -202l-98 -791h-156l168 1366h152l202 -897q0 -1 1 -4.5t2 -9t2 -9.5q0 -1 1 -7l3 -18t4 -22q5 -28 8 -43q-2 16 -2 39q0 54 10 156l100 815h158z" />
    <glyph glyph-name="O" unicode="O" horiz-adv-x="899" 
d="M567 1386q140 0 218.5 -119.5t78.5 -334.5q0 -182 -34 -374.5t-87 -309.5q-58 -129 -150.5 -198.5t-205.5 -69.5q-146 0 -223.5 119.5t-77.5 346.5q0 201 42 401.5t108 321.5q59 103 145.5 160t185.5 57zM543 1227q-103 0 -174 -148q-42 -95 -75.5 -286.5t-33.5 -341.5
q0 -306 150 -306q107 0 176 150q43 97 74.5 296.5t31.5 375.5q0 124 -39 192t-110 68z" />
    <glyph glyph-name="P" unicode="P" horiz-adv-x="727" 
d="M295 627l-76 -627h-168l168 1366h209q171 0 246.5 -70t75.5 -229q0 -109 -34.5 -206.5t-92.5 -151.5q-87 -84 -275 -84q-28 0 -53 2zM313 776h60q119 0 162 76q45 88 45 209q0 83 -36 120.5t-118 37.5h-57z" />
    <glyph glyph-name="Q" unicode="Q" horiz-adv-x="903" 
d="M647 -86l-72 123q-83 -57 -182 -57q-119 0 -207 88q-46 50 -73 148t-27 216q0 186 33.5 374.5t87.5 305.5q62 132 154 203t202 71q143 0 222 -119t79 -335q0 -239 -51 -461t-131 -328l86 -145zM489 168l-108 182l121 86l84 -143q46 110 76 302t30 370q0 125 -38.5 193.5
t-110.5 68.5q-100 0 -170 -140q-48 -101 -80.5 -291t-32.5 -376q0 -132 40 -203.5t112 -71.5q35 0 77 23z" />
    <glyph glyph-name="R" unicode="R" horiz-adv-x="817" 
d="M313 657l-82 -657h-174l168 1366h205q122 0 188 -19.5t105 -68.5q65 -77 65 -213q0 -114 -36.5 -208t-102.5 -148q-60 -46 -151 -64l209 -645h-185zM383 1221l-55 -449q20 -2 57 -2q118 0 166 57q28 35 45.5 98t17.5 126q0 97 -40 133.5t-144 36.5h-47z" />
    <glyph glyph-name="S" unicode="S" horiz-adv-x="727" 
d="M711 1315l-23 -193q-46 57 -88 81t-96 24q-85 0 -144 -65.5t-59 -160.5q0 -66 30 -114.5t107 -108.5q139 -109 185.5 -179t46.5 -171q0 -119 -55 -222.5t-148 -164.5t-201 -61q-122 0 -209 69l25 193q93 -99 197 -99q92 0 156.5 72t64.5 174q0 67 -31.5 111.5
t-134.5 124.5q-117 89 -161 162t-44 176q0 177 110 300t267 123q108 0 205 -71z" />
    <glyph glyph-name="T" unicode="T" horiz-adv-x="579" 
d="M686 1366l-18 -156h-205l-148 -1210h-168l150 1210h-205l19 156h575z" />
    <glyph glyph-name="U" unicode="U" horiz-adv-x="851" 
d="M854 1366l-119 -975q-12 -102 -30 -160t-52 -110q-43 -67 -118.5 -104t-169.5 -37q-130 0 -203.5 68t-73.5 190q0 50 14 165l117 963h168l-115 -934q-14 -129 -14 -160q0 -62 34.5 -97.5t94.5 -35.5q39 0 74 17.5t55 46.5q21 29 32 74t25 155l115 934h166z" />
    <glyph glyph-name="V" unicode="V" horiz-adv-x="753" 
d="M864 1366l-471 -1366h-141l-139 1366h176l63 -791q8 -93 8 -155q0 -29 -2 -101q0 -22 -2 -49q4 18 11 39q41 182 67 262l256 795h174z" />
    <glyph glyph-name="W" unicode="W" horiz-adv-x="1134" 
d="M1241 1366l-418 -1366h-149l-33 778v19q-4 40 -4 67q0 89 10 228l-6 -25l-6 -31q-32 -141 -68 -258l-239 -778h-150l-63 1366h172l20 -782l2 -15v-30q0 -73 -6 -150l-2 -57q0 -17 -2 -31q53 206 78 287l233 778h140l28 -811q4 -88 4 -137v-78v-39q23 141 72 301l213 764
h174z" />
    <glyph glyph-name="X" unicode="X" horiz-adv-x="716" 
d="M819 1366l-348 -668l186 -698h-186l-76 334q-18 78 -23 114.5t-7 86.5q-31 -95 -86 -209l-152 -326h-182l354 698l-186 668h182l70 -289q33 -131 36 -235q21 69 95 223l143 301h180z" />
    <glyph glyph-name="Y" unicode="Y" horiz-adv-x="716" 
d="M825 1366l-358 -752l-76 -614h-166l76 614l-188 752h182l82 -387q17 -81 26 -195q29 99 74 199l166 383h182z" />
    <glyph glyph-name="Z" unicode="Z" horiz-adv-x="669" 
d="M758 1366l-549 -1208h364l-20 -158h-588l545 1208h-354l20 158h582z" />
    <glyph glyph-name="bracketleft" unicode="[" horiz-adv-x="600" 
d="M43 -360l227 1845h387l-18 -144h-223l-193 -1560h226l-17 -141h-389z" />
    <glyph glyph-name="backslash" unicode="\" horiz-adv-x="856" 
d="M90 1485h146l546 -1845h-151z" />
    <glyph glyph-name="bracketright" unicode="]" horiz-adv-x="600" 
d="M582 1485l-228 -1845h-387l19 143h223l192 1560h-225l17 142h389z" />
    <glyph glyph-name="asciicircum" unicode="^" 
d="M1004 739h-179l-288 502l-289 -502h-176l358 631h215z" />
    <glyph glyph-name="underscore" unicode="_" 
d="M25 -129h1024v-150h-1024v150z" />
    <glyph glyph-name="grave" unicode="`" 
d="M524 1356l148 -256l-88 -56l-185 232z" />
    <glyph glyph-name="a" unicode="a" horiz-adv-x="706" 
d="M668 924l-113 -924h-158l11 82q-41 -51 -81.5 -73.5t-90.5 -22.5q-86 0 -132.5 73t-46.5 209q0 153 30 305.5t79 245.5q28 55 80.5 88t111.5 33q50 0 83 -21.5t61 -70.5l8 76h158zM391 805q-63 0 -104 -86q-25 -57 -47.5 -194.5t-22.5 -235.5q0 -168 90 -168
q29 0 55.5 17.5t40.5 45.5q51 115 66 289q12 140 12 184q0 70 -23.5 109t-66.5 39z" />
    <glyph glyph-name="b" unicode="b" horiz-adv-x="698" 
d="M219 1485h158l-80 -637q39 50 77.5 71t88.5 21q91 0 137.5 -70.5t46.5 -205.5q0 -155 -30 -309t-80 -251q-28 -53 -80 -85.5t-107 -32.5q-47 0 -81.5 22.5t-63.5 73.5l-10 -82h-158zM395 805q-51 0 -81.5 -46t-53.5 -155q-14 -71 -25.5 -173.5t-11.5 -160.5
q0 -149 88 -149q62 0 92 61q32 62 57 198.5t25 242.5q0 182 -90 182z" />
    <glyph glyph-name="c" unicode="c" horiz-adv-x="520" 
d="M535 907l-21 -162q-44 52 -94 52q-86 0 -144.5 -128.5t-58.5 -316.5q0 -103 31.5 -161t87.5 -58q27 0 49 13.5t61 52.5l-20 -172q-72 -41 -137 -41q-107 0 -171.5 93t-64.5 249q0 122 29.5 240.5t81.5 209.5q42 77 108 119.5t142 42.5q67 0 121 -33z" />
    <glyph glyph-name="d" unicode="d" horiz-adv-x="698" 
d="M731 1485l-182 -1485h-158l10 82q-41 -51 -81.5 -73.5t-90.5 -22.5q-86 0 -132 72.5t-46 207.5q0 152 30.5 306t78.5 247q28 54 81.5 87.5t110.5 33.5q50 0 83 -21.5t61 -70.5l77 637h158zM385 805q-63 0 -104 -86q-25 -57 -47.5 -194.5t-22.5 -235.5q0 -168 90 -168
q29 0 55.5 17.5t40.5 45.5q51 115 66 289q12 140 12 184q0 70 -23.5 109t-66.5 39z" />
    <glyph glyph-name="e" unicode="e" horiz-adv-x="673" 
d="M602 426h-389q-8 -68 -8 -121q0 -186 100 -186q51 0 82.5 44.5t48.5 141.5h144q-34 -164 -103 -241.5t-182 -77.5q-117 0 -179.5 85t-62.5 242q0 260 103 461q41 77 108 121.5t142 44.5q103 0 160 -85t57 -237q0 -72 -21 -192zM229 543h244q8 55 8 100q0 77 -24 119.5
t-68 42.5q-59 0 -100 -67.5t-60 -194.5z" />
    <glyph glyph-name="f" unicode="f" horiz-adv-x="436" 
d="M483 924l-16 -140h-143l-97 -784h-157l96 784h-100l16 140h100l41 323q15 126 73.5 190t156.5 64q46 0 100 -22l-21 -162q-24 20 -37 26.5t-30 6.5q-19 0 -37 -10t-27 -25q-10 -12 -14.5 -30.5t-9.5 -63.5l-37 -297h143z" />
    <glyph glyph-name="g" unicode="g" horiz-adv-x="714" 
d="M676 924l-121 -987q-16 -146 -63 -213q-79 -117 -246 -117q-114 0 -173 58t-59 169q0 24 6 76h148q-4 -25 -4 -53q0 -111 100 -111q66 0 94.5 48.5t47.5 193.5l10 92q-43 -46 -81 -66t-83 -20q-91 0 -142 78t-51 217q0 141 28.5 280.5t78.5 239.5q31 60 83.5 94.5
t112.5 34.5q49 0 84 -21t64 -69l10 76h156zM393 803q-28 0 -53 -17t-39 -45q-31 -60 -56.5 -193t-25.5 -235q0 -182 98 -182q44 0 73.5 36t49.5 114q20 69 33.5 176t13.5 184q0 76 -25 119t-69 43z" />
    <glyph glyph-name="h" unicode="h" horiz-adv-x="710" 
d="M377 1485l-82 -656q92 111 203 111q69 0 109 -41.5t40 -112.5q0 -62 -8 -122l-82 -664h-156l76 623q6 59 6 94t-21.5 57.5t-53.5 22.5q-62 0 -101 -56q-29 -47 -41 -147l-71 -594h-158l182 1485h158z" />
    <glyph glyph-name="i" unicode="i" horiz-adv-x="346" 
d="M307 924l-112 -924h-158l113 924h157zM279 1309q39 0 66.5 -28.5t27.5 -68.5q0 -51 -36.5 -88t-86.5 -37q-39 0 -66.5 28.5t-27.5 68.5q0 51 36.5 88t86.5 37z" />
    <glyph glyph-name="j" unicode="j" horiz-adv-x="352" 
d="M313 924l-159 -1307h-158l160 1307h157zM285 1309q40 0 67 -28t27 -69q0 -51 -36.5 -88t-86.5 -37q-39 0 -66.5 28.5t-27.5 68.5q0 51 36.5 88t86.5 37z" />
    <glyph glyph-name="k" unicode="k" horiz-adv-x="677" 
d="M377 1485l-115 -922l246 361h172l-293 -404l244 -520h-185l-198 438l-53 -438h-158l182 1485h158z" />
    <glyph glyph-name="l" unicode="l" horiz-adv-x="346" 
d="M377 1485l-182 -1485h-158l182 1485h158z" />
    <glyph glyph-name="m" unicode="m" horiz-adv-x="1077" 
d="M926 0h-158l78 637q4 27 4 70q0 42 -20 65t-56 23q-29 0 -57 -16t-45 -42q-30 -48 -43 -166l-70 -571h-158l80 639q4 54 4 72q0 40 -18.5 62t-50.5 22q-31 0 -60.5 -16t-48.5 -44q-30 -46 -45 -172l-67 -563h-158l113 924h157l-12 -97q99 111 205 111q119 0 149 -121
q98 121 213 121q70 0 112 -41.5t42 -110.5q0 -54 -8 -106z" />
    <glyph glyph-name="n" unicode="n" horiz-adv-x="710" 
d="M307 924l-12 -95q90 109 205 109q69 0 108 -42.5t39 -117.5q0 -28 -8 -114l-82 -664h-156l76 623q8 86 8 94q0 34 -21.5 56t-53.5 22q-29 0 -57.5 -15.5t-45.5 -40.5q-28 -47 -41 -145l-71 -594h-158l113 924h157z" />
    <glyph glyph-name="o" unicode="o" horiz-adv-x="698" 
d="M412 940q101 0 155 -63q35 -38 56.5 -110.5t21.5 -152.5q0 -108 -22 -231t-54 -193q-92 -204 -278 -204q-115 0 -175.5 88.5t-60.5 257.5q0 122 29 245t76 205q44 77 109 117.5t143 40.5zM393 795q-28 0 -55.5 -20t-42.5 -52q-35 -69 -57.5 -182.5t-22.5 -223.5
q0 -88 25 -137t71 -49q78 0 123 139q49 152 49 340q0 185 -90 185z" />
    <glyph glyph-name="p" unicode="p" horiz-adv-x="698" 
d="M150 924h157l-10 -76q40 49 78 70.5t88 21.5q91 0 138.5 -70.5t47.5 -205.5q0 -153 -30.5 -307.5t-79.5 -252.5q-28 -53 -80 -85.5t-109 -32.5q-47 0 -81.5 22.5t-63.5 73.5l-58 -465h-157zM397 805q-51 0 -82.5 -46t-54.5 -155q-14 -69 -25.5 -172.5t-11.5 -161.5
q0 -149 90 -149q29 0 54.5 16t38.5 45q66 131 81 453q4 77 -20.5 123.5t-69.5 46.5z" />
    <glyph glyph-name="q" unicode="q" horiz-adv-x="706" 
d="M668 924l-160 -1307h-158l58 465q-41 -51 -81.5 -73.5t-90.5 -22.5q-86 0 -132.5 73t-46.5 209q0 153 30 305.5t79 245.5q28 55 80.5 88t111.5 33q50 0 83 -21.5t61 -70.5l8 76h158zM391 805q-63 0 -104 -86q-25 -57 -47.5 -194.5t-22.5 -235.5q0 -168 90 -168
q29 0 55.5 17.5t40.5 45.5q51 115 66 289q12 140 12 184q0 70 -23.5 109t-66.5 39z" />
    <glyph glyph-name="r" unicode="r" horiz-adv-x="446" 
d="M37 0l113 924h157l-14 -119q42 70 87 103t99 36l-20 -170q-24 4 -27 4q-37 0 -72 -19.5t-57 -51.5q-30 -47 -43 -168l-65 -539h-158z" />
    <glyph glyph-name="s" unicode="s" horiz-adv-x="544" 
d="M543 874l-49 -155q-64 84 -134 84q-48 0 -81 -34t-33 -85q0 -38 21 -69t79 -78q83 -67 112 -116.5t29 -121.5q0 -128 -86 -220.5t-206 -92.5q-106 0 -193 73l51 152q40 -44 72 -62t70 -18q55 0 94 41t39 100q0 37 -22.5 71.5t-76.5 80.5q-80 68 -112.5 122t-32.5 120
q0 116 81.5 195t199.5 79q52 0 92.5 -15t85.5 -51z" />
    <glyph glyph-name="t" unicode="t" horiz-adv-x="421" 
d="M475 924l-16 -140h-137l-97 -784h-157l96 784h-94l18 140h92l33 254h156l-31 -254h137z" />
    <glyph glyph-name="u" unicode="u" horiz-adv-x="712" 
d="M150 924h157l-71 -580q-11 -90 -11 -113q0 -47 23.5 -72.5t66.5 -25.5q59 0 87.5 46t41.5 165l72 580h158l-84 -674q-15 -121 -95 -192.5t-200 -71.5q-102 0 -167 56.5t-65 145.5q0 25 7 72z" />
    <glyph glyph-name="v" unicode="v" horiz-adv-x="616" 
d="M666 924l-334 -924h-158l-111 924h158l51 -510q8 -66 11 -172q18 72 41 141l10 29l170 512h162z" />
    <glyph glyph-name="w" unicode="w" horiz-adv-x="978" 
d="M1022 924l-328 -924h-145l-21 358l-4 70q-3 58 -6 111q-2 20 -2 41v26l-2 45v62q-25 -109 -51 -183l-158 -530h-145l-92 924h155l35 -484q8 -110 8 -166q0 -25 -2 -41l12 50q1 3 3.5 11.5t7 23.5t8.5 32l4 15l170 559h147l25 -488l2 -37l2 -133l2 -33q16 70 51 177
l170 514h154z" />
    <glyph glyph-name="x" unicode="x" horiz-adv-x="632" 
d="M672 924l-269 -443l166 -481h-170l-80 260q-15 52 -18 96q-11 -41 -41 -96l-141 -260h-168l285 481l-146 443h166l39 -158q1 -2 2 -6t2.5 -11t3.5 -12q22 -69 33 -147q20 63 51 121l117 213h168z" />
    <glyph glyph-name="y" unicode="y" horiz-adv-x="636" 
d="M686 924l-496 -1295h-159l155 394l-123 901h160l49 -459q0 -3 4 -35l5 -59q6 -105 6 -127q1 4 16 55q4 13 25 70l10 26l186 529h162z" />
    <glyph glyph-name="z" unicode="z" horiz-adv-x="593" 
d="M635 924l-438 -785h290l-16 -139h-514l436 782h-297l19 142h520z" />
    <glyph glyph-name="braceleft" unicode="{" horiz-adv-x="610" 
d="M463 1161l-43 -356q-17 -107 -48 -157.5t-104 -86.5q54 -34 75.5 -74t21.5 -106q0 -26 -7 -66l-41 -348q-8 -52 -8 -98q0 -49 30.5 -71.5t96.5 -22.5h29l-16 -137h-21l-18 -3h-37q-221 0 -221 211q0 42 6 88l45 371q6 35 6 60q0 56 -22 86t-74 43l18 149q63 14 94.5 54.5
t40.5 119.5l47 387q19 147 89 216t200 69q27 0 45 -2h29l-19 -139q-10 2 -26 2q-88 0 -121.5 -37t-46.5 -152z" />
    <glyph glyph-name="bar" unicode="|" 
d="M455 1366h163v-1708h-163v1708z" />
    <glyph glyph-name="braceright" unicode="}" horiz-adv-x="610" 
d="M172 -37l43 356q15 106 46.5 156.5t105.5 87.5q-54 34 -75.5 73.5t-21.5 106.5q0 20 4 66l43 348q9 61 9 100q0 48 -30.5 70.5t-96.5 22.5h-29l16 137h19l20 2h31q225 0 225 -211q0 -28 -4 -90l-47 -369q-4 -46 -4 -61q0 -54 22.5 -83.5t73.5 -43.5l-18 -150
q-63 -14 -94.5 -54.5t-40.5 -119.5l-50 -387q-17 -146 -87 -215.5t-199 -69.5q-18 0 -45 3h-29l16 137h29q88 0 120.5 37t47.5 151z" />
    <glyph glyph-name="asciitilde" unicode="~" horiz-adv-x="1345" 
d="M309 1188l-94 61q55 118 109 170q29 29 80.5 51.5t89.5 22.5q86 0 225 -68q123 -63 194 -63q54 0 94 30t83 103l96 -57q-32 -65 -55 -99.5t-56 -64.5q-34 -31 -84 -51.5t-90 -20.5q-44 0 -100.5 18.5t-163.5 67.5q-95 45 -160 45q-88 0 -168 -145z" />
    <glyph glyph-name="uni00A0" unicode="&#xa0;" horiz-adv-x="380" 
 />
    <glyph glyph-name="exclamdown" unicode="&#xa1;" horiz-adv-x="507" 
d="M356 643l-123 -1003h-163l123 1003h163zM324 1020q41 0 69.5 -28.5t28.5 -71.5q0 -53 -38.5 -92.5t-90.5 -39.5q-41 0 -70.5 30t-29.5 71q0 54 38.5 92.5t92.5 38.5z" />
    <glyph glyph-name="cent" unicode="&#xa2;" horiz-adv-x="778" 
d="M352 63l19 162q-54 21 -86 56q-41 43 -64.5 117t-23.5 161q0 128 36.5 266.5t90.5 214.5q35 51 71 79t92 48l19 152h104l-16 -148q46 -7 84 -28l-21 -164q-51 51 -92 51q-85 0 -145 -132.5t-60 -319.5q0 -97 32.5 -154t86.5 -57q26 0 51.5 14.5t61.5 50.5l-23 -170
q-41 -25 -92 -39l-20 -160h-105z" />
    <glyph glyph-name="sterling" unicode="&#xa3;" horiz-adv-x="778" 
d="M621 625l-13 -103h-188q14 -43 14 -69q0 -104 -92 -256q23 -10 80 -52q41 -32 61.5 -42.5t42.5 -10.5q64 0 90 105l105 -35q-19 -89 -76.5 -143t-132.5 -54q-38 0 -75.5 18.5t-112.5 73.5q-52 35 -76 35q-63 0 -105 -86l-100 64q66 111 147 135q53 82 69.5 125.5
t16.5 99.5q0 49 -22 92h-182l12 103h149q-41 109 -55 172t-14 131q0 184 107 305t270 121q120 0 192 -75t72 -198q0 -28 -2 -59l-154 -16q4 23 4 47q0 65 -35 106t-92 41q-88 0 -140 -81t-52 -218q0 -51 20.5 -129.5t51.5 -146.5h215z" />
    <glyph glyph-name="currency" unicode="&#xa4;" horiz-adv-x="1345" 
d="M135 256l193 195q-103 136 -103 292q0 146 101 287l-195 197l92 94l193 -199q76 57 143.5 81t147.5 24q79 0 145 -23.5t141 -79.5l193 195l92 -92l-193 -195q54 -76 77.5 -144.5t23.5 -146.5t-23.5 -144.5t-77.5 -141.5l195 -199l-88 -92l-195 196q-137 -102 -288 -102
q-145 0 -291 100l-193 -194zM711 1079q-141 0 -238.5 -98t-97.5 -240q0 -138 97.5 -236.5t234.5 -98.5q136 0 232.5 98.5t96.5 236.5t-96 238t-229 100z" />
    <glyph glyph-name="yen" unicode="&#xa5;" horiz-adv-x="778" 
d="M264 864l-125 502h183l81 -387q19 -94 27 -197q26 92 74 201l166 383h182l-238 -502h185l-13 -98h-219l-67 -139h270l-12 -99h-275l-63 -528h-168l65 528h-278l12 99h273l-35 139h-221l12 98h184z" />
    <glyph glyph-name="brokenbar" unicode="&#xa6;" 
d="M455 1366h163v-686h-163v686zM455 313h163v-655h-163v655z" />
    <glyph glyph-name="section" unicode="&#xa7;" horiz-adv-x="780" 
d="M756 1196h-152v4v6q3 15 -5 54.5t-17 62.5q-9 19 -30.5 31t-47.5 12q-60 0 -102 -58t-42 -141q0 -63 33 -107t117 -91q98 -57 131 -95q72 -84 72 -239q0 -112 -36 -207.5t-102 -161.5q-38 -33 -67 -43l-29 -12l-4 -2q65 -52 93 -108.5t28 -133.5q0 -141 -89.5 -238.5
t-219.5 -97.5q-106 0 -171 72.5t-65 190.5v40q0 7 2 17v6h152v-6v-4v-4l-2 -56q0 -54 27 -86t73 -32q62 0 104 56.5t42 139.5q0 63 -33.5 107.5t-116.5 91.5q-106 59 -133 94q-72 81 -72 240q0 111 36 206.5t103 159.5q29 29 66 45q27 9 31 13h2q-64 55 -91.5 110.5
t-27.5 132.5q0 141 89 239.5t218 98.5q106 0 172 -68.5t66 -177.5v-26q0 -21 -2 -35zM432 827q-64 0 -110 -55q-32 -38 -56 -120.5t-24 -157.5q0 -197 125 -197q44 0 83.5 24t59.5 64q49 96 49 266q0 83 -33.5 129.5t-93.5 46.5z" />
    <glyph glyph-name="dieresis" unicode="&#xa8;" 
d="M479 1266q38 0 63 -26t25 -64q0 -44 -34.5 -78.5t-79.5 -34.5q-35 0 -60.5 25.5t-25.5 62.5q0 46 34 80.5t78 34.5zM758 1266q37 0 61.5 -25.5t24.5 -62.5q0 -46 -34.5 -80.5t-80.5 -34.5q-35 0 -60.5 25.5t-25.5 62.5q0 46 34.5 80.5t80.5 34.5z" />
    <glyph glyph-name="copyright" unicode="&#xa9;" horiz-adv-x="1527" 
d="M801 1393q184 0 342.5 -96t251 -259.5t92.5 -353.5q0 -145 -55 -276.5t-148 -226.5t-222 -151.5t-271 -56.5q-141 0 -270 56.5t-222.5 151.5t-149 226.5t-55.5 274.5q0 195 93.5 358.5t256.5 258t357 94.5zM801 1305q-168 0 -308.5 -82.5t-221.5 -226t-81 -314.5
q0 -167 81 -310.5t219.5 -227t300.5 -83.5q163 0 301.5 83.5t218.5 227t80 312.5q0 124 -47.5 239t-126.5 198.5t-188.5 133.5t-227.5 50zM967 1075l-17 -127q-55 35 -96 35q-65 0 -113 -57q-40 -50 -67 -147.5t-27 -192.5q0 -96 32 -149.5t89 -53.5q47 0 117 37l-15 -125
q-62 -33 -120 -33q-106 0 -172 83t-66 218q0 98 23 198t63 177q38 75 110 120.5t152 45.5q59 0 107 -29z" />
    <glyph glyph-name="ordfeminine" unicode="&#xaa;" horiz-adv-x="514" 
d="M70 578l12 92h395l-12 -92h-395zM532 1366l-73 -588h-113l6 39q-47 -47 -102 -47q-58 0 -89.5 47t-31.5 135q0 95 18.5 189.5t49.5 152.5q19 36 55.5 59t75.5 23q54 0 88 -45l4 35h112zM346 1282q-37 0 -53 -37q-21 -47 -35 -126t-14 -152q0 -101 51 -101q18 0 33.5 10
t21.5 27q20 44 34.5 131t14.5 164q0 84 -53 84z" />
    <glyph glyph-name="guillemotleft" unicode="&#xab;" horiz-adv-x="698" 
d="M678 829l-232 -346l148 -348l-102 -55l-175 403l273 398zM428 829l-231 -346l145 -348l-100 -55l-174 403l272 398z" />
    <glyph glyph-name="logicalnot" unicode="&#xac;" 
d="M979 0h-164v393h-723v154h887v-547z" />
    <glyph glyph-name="uni00AD" unicode="&#xad;" horiz-adv-x="296" 
d="M-6 426l20 172h297l-20 -172h-297z" />
    <glyph glyph-name="registered" unicode="&#xae;" horiz-adv-x="1527" 
d="M801 1393q184 0 342.5 -96t251 -259.5t92.5 -353.5q0 -145 -55 -276.5t-148 -226.5t-222 -151.5t-271 -56.5q-141 0 -270 56.5t-222.5 151.5t-149 226.5t-55.5 274.5q0 195 93.5 358.5t256.5 258t357 94.5zM801 1305q-168 0 -308.5 -82.5t-221.5 -226t-81 -314.5
q0 -167 81 -310.5t219.5 -227t300.5 -83.5q163 0 301.5 83.5t218.5 227t80 312.5q0 124 -47.5 239t-126.5 198.5t-188.5 133.5t-227.5 50zM961 272h-138l-112 349l-41 -349h-129l100 820h137q120 0 171.5 -44t51.5 -145t-42.5 -165.5t-122.5 -86.5zM756 983l-29 -240
q64 0 90 13q24 12 39.5 51.5t15.5 87.5q0 51 -20.5 69.5t-77.5 18.5h-18z" />
    <glyph glyph-name="macron" unicode="&#xaf;" 
d="M377 1098l16 125h445l-17 -125h-444z" />
    <glyph glyph-name="degree" unicode="&#xb0;" horiz-adv-x="780" 
d="M469 1380q123 0 211 -88t88 -211q0 -125 -88.5 -213t-214.5 -88q-125 0 -214 88t-89 211q0 126 89 213.5t218 87.5zM473 1268q-78 0 -132 -55t-54 -134q0 -76 54.5 -131t129.5 -55t129.5 55t54.5 133q0 75 -53.5 131t-128.5 56z" />
    <glyph glyph-name="plusminus" unicode="&#xb1;" horiz-adv-x="778" 
d="M94 641v150h246v251h156v-251h243v-150h-243v-254h-156v254h-246zM94 131v150h645v-150h-645z" />
    <glyph glyph-name="twosuperior" unicode="&#xb2;" horiz-adv-x="530" 
d="M467 649l-12 -104h-392l228 352q82 126 110.5 189.5t28.5 119.5q0 35 -17 55.5t-48 20.5q-46 0 -71 -40.5t-32 -127.5h-112q13 136 67.5 200t157.5 64q80 0 126 -43t46 -116q0 -68 -31.5 -141t-114.5 -199l-149 -230h215z" />
    <glyph glyph-name="threesuperior" unicode="&#xb3;" horiz-adv-x="530" 
d="M238 940l10 98h28q75 0 110.5 38t35.5 120q0 78 -66 78q-38 0 -58 -28.5t-26 -92.5h-108q15 115 66 170t141 55q77 0 121.5 -41.5t44.5 -113.5q0 -167 -115 -232q46 -26 64 -63.5t18 -106.5q0 -132 -64.5 -209t-173.5 -77q-83 0 -127.5 42.5t-44.5 122.5q0 20 6 76h115
q-6 -50 -6 -63q0 -37 17.5 -57.5t49.5 -20.5q51 0 80 52t29 144q0 109 -113 109h-34z" />
    <glyph glyph-name="acute" unicode="&#xb4;" 
d="M610 1044l-80 60l211 252l119 -88z" />
    <glyph glyph-name="mu" unicode="&#xb5;" horiz-adv-x="712" 
d="M182 18l-32 -393h-158l160 1299h155l-71 -588q-9 -92 -9 -105q0 -47 22.5 -72.5t65.5 -25.5q60 0 88 45t43 166l70 580h158l-82 -674q-15 -120 -95 -192t-198 -72q-59 0 -117 32z" />
    <glyph glyph-name="paragraph" unicode="&#xb6;" horiz-adv-x="849" 
d="M201 -199l108 895h-24q-93 0 -147 72t-54 195q0 95 32.5 181.5t88.5 139.5q85 82 241 82h478l-35 -141h-90l-174 -1424h-150l174 1424h-125l-176 -1424h-147z" />
    <glyph glyph-name="periodcentered" unicode="&#xb7;" horiz-adv-x="401" 
d="M217 600q42 0 71 -29t29 -71q0 -54 -39 -93.5t-92 -39.5q-41 0 -70.5 29.5t-29.5 70.5q0 54 38.5 93.5t92.5 39.5z" />
    <glyph glyph-name="cedilla" unicode="&#xb8;" 
d="M299 -344l164 266l117 -61l-201 -250z" />
    <glyph glyph-name="onesuperior" unicode="&#xb9;" horiz-adv-x="530" 
d="M444 1366l-100 -819h-115l86 715h-100l27 104h202z" />
    <glyph glyph-name="ordmasculine" unicode="&#xba;" horiz-adv-x="514" 
d="M70 578l12 92h397l-12 -92h-397zM371 1376q74 0 114.5 -54.5t40.5 -152.5q0 -186 -62 -292.5t-171 -106.5q-75 0 -116.5 56.5t-41.5 160.5q0 177 64.5 283t171.5 106zM356 1274q-37 0 -59 -43q-20 -38 -34.5 -107.5t-14.5 -130.5q0 -123 59 -123q20 0 45 25q22 25 40 109
t18 159q0 111 -54 111z" />
    <glyph glyph-name="guillemotright" unicode="&#xbb;" horiz-adv-x="698" 
d="M111 829l100 52l174 -398l-272 -403l-88 55l231 348zM360 829l103 52l172 -398l-270 -403l-91 55l232 348z" />
    <glyph glyph-name="onequarter" unicode="&#xbc;" horiz-adv-x="1312" 
d="M444 1366l-100 -819h-115l86 715h-100l27 104h202zM1114 1366l-766 -1366h-104l768 1366h102zM1227 819l-62 -508h64l-12 -102h-64l-27 -209h-114l24 209h-229l12 98l289 512h119zM1049 311l30 250q1 7 11 62l-17 -33q-10 -20 -12 -23l-137 -256h125z" />
    <glyph glyph-name="onehalf" unicode="&#xbd;" horiz-adv-x="1312" 
d="M444 1366l-100 -819h-115l86 715h-100l27 104h202zM1114 1366l-766 -1366h-104l768 1366h102zM1184 104l-13 -104h-391l228 352q81 126 110 190t29 120q0 35 -17.5 55t-48.5 20q-46 0 -70.5 -40t-31.5 -128h-113q14 137 68 199.5t158 62.5q80 0 126 -43t46 -116
q0 -71 -28.5 -137.5t-117.5 -200.5l-149 -230h215z" />
    <glyph glyph-name="threequarters" unicode="&#xbe;" horiz-adv-x="1312" 
d="M238 940l10 98h28q75 0 110.5 38t35.5 120q0 78 -66 78q-38 0 -58 -28.5t-26 -92.5h-108q15 115 66 170t141 55q77 0 121.5 -41.5t44.5 -113.5q0 -167 -115 -232q46 -26 64 -63.5t18 -106.5q0 -132 -64.5 -209t-173.5 -77q-83 0 -127.5 42.5t-44.5 122.5q0 20 6 76h115
q-6 -50 -6 -63q0 -37 17.5 -57.5t49.5 -20.5q51 0 80 52t29 144q0 109 -113 109h-34zM1114 1366l-766 -1366h-106l770 1366h102zM1227 819l-64 -508h66l-12 -102h-66l-25 -209h-116l26 209h-229l12 98l287 512h121zM1049 311l30 250q1 7 11 62l-17 -33q-10 -20 -12 -23
l-137 -256h125z" />
    <glyph glyph-name="questiondown" unicode="&#xbf;" horiz-adv-x="718" 
d="M504 637l-49 -410q-47 2 -64 2q-101 0 -135 -63q-25 -49 -42 -132.5t-17 -154.5q0 -51 23 -80.5t61 -29.5q52 0 80.5 39.5t39.5 125.5l9 60h157l-8 -68q-19 -149 -95.5 -227t-205.5 -78q-108 0 -170.5 61.5t-62.5 167.5q0 91 20 195t49 162q35 69 86.5 104t126.5 41
l35 285h162zM469 1020q41 0 69.5 -29.5t28.5 -70.5q0 -53 -38.5 -92.5t-90.5 -39.5q-42 0 -71 30t-29 73q0 51 39.5 90t91.5 39z" />
    <glyph glyph-name="Agrave" unicode="&#xc0;" horiz-adv-x="737" 
d="M559 1366l117 -1366h-176l-19 266h-280l-82 -266h-172l446 1366h166zM473 406l-27 401q-8 104 -8 184q0 40 6 148q-39 -198 -82 -340l-118 -393h229zM440 1772l150 -250l-88 -54l-191 220z" />
    <glyph glyph-name="Aacute" unicode="&#xc1;" horiz-adv-x="737" 
d="M559 1366l117 -1366h-176l-19 266h-280l-82 -266h-172l446 1366h166zM473 406l-27 401q-8 104 -8 184q0 40 6 148q-39 -198 -82 -340l-118 -393h229zM629 1772l108 -101l-254 -203l-73 66z" />
    <glyph glyph-name="Acircumflex" unicode="&#xc2;" horiz-adv-x="737" 
d="M559 1366l117 -1366h-176l-19 266h-280l-82 -266h-172l446 1366h166zM473 406l-27 401q-8 104 -8 184q0 40 6 148q-39 -198 -82 -340l-118 -393h229zM250 1561l268 211l211 -213l-92 -91l-137 136l-176 -136z" />
    <glyph glyph-name="Atilde" unicode="&#xc3;" horiz-adv-x="737" 
d="M559 1366l117 -1366h-176l-19 266h-280l-82 -266h-172l446 1366h166zM473 406l-27 401q-8 104 -8 184q0 40 6 148q-39 -198 -82 -340l-118 -393h229zM631 1677h121q-13 -86 -57.5 -133t-110.5 -47q-57 0 -133 43q-36 19 -56 19q-29 0 -41 -56h-121q19 87 61 132.5
t103 45.5q53 0 107 -32q56 -29 82 -29q17 0 27 13t18 44z" />
    <glyph glyph-name="Adieresis" unicode="&#xc4;" horiz-adv-x="737" 
d="M559 1366l117 -1366h-176l-19 266h-280l-82 -266h-172l446 1366h166zM473 406l-27 401q-8 104 -8 184q0 40 6 148q-39 -198 -82 -340l-118 -393h229zM373 1690q37 0 62.5 -25.5t25.5 -62.5q0 -47 -35 -82t-82 -35q-37 0 -62.5 25.5t-25.5 62.5q0 47 35 82t82 35z
M657 1690q37 0 62.5 -26.5t25.5 -64.5q0 -46 -35 -80t-81 -34q-37 0 -62.5 25.5t-25.5 62.5q0 47 34.5 82t81.5 35z" />
    <glyph glyph-name="Aring" unicode="&#xc5;" horiz-adv-x="737" 
d="M559 1366l117 -1366h-176l-19 266h-280l-82 -266h-172l446 1366h166zM473 406l-27 401q-8 104 -8 184q0 40 6 148q-39 -198 -82 -340l-118 -393h229zM500 1790q69 0 117.5 -49t48.5 -121q0 -71 -49 -119.5t-121 -48.5q-66 0 -115 50t-49 118q0 70 49.5 120t118.5 50z
M500 1698q-32 0 -54 -22.5t-22 -53.5q0 -32 22 -55t52 -23q32 0 53.5 22.5t21.5 55.5q0 31 -21.5 53.5t-51.5 22.5z" />
    <glyph glyph-name="AE" unicode="&#xc6;" horiz-adv-x="1011" 
d="M868 1366l13 -158h-281l29 -422h270l14 -157h-270l31 -471h276l13 -158h-455l-12 264h-299l-78 -264h-172l444 1366h477zM485 406l-22 466q-6 123 -6 154q0 14 2 92v39q-22 -108 -74 -274l-143 -477h243z" />
    <glyph glyph-name="Ccedilla" unicode="&#xc7;" horiz-adv-x="708" 
d="M772 1346l-22 -172q-72 47 -134 47q-84 0 -152 -57.5t-114 -166.5q-37 -90 -61.5 -229t-24.5 -264q0 -172 53.5 -264.5t151.5 -92.5q70 0 162 50l-21 -168q-85 -47 -168 -47q-86 0 -161.5 44.5t-118.5 120.5q-74 128 -74 336q0 168 39.5 345.5t103.5 297.5
q65 119 172.5 188.5t225.5 69.5q81 0 143 -38zM184 -360l172 274l115 -61l-209 -259z" />
    <glyph glyph-name="Egrave" unicode="&#xc8;" horiz-adv-x="641" 
d="M674 1366l-19 -158h-288l-52 -426h273l-21 -157h-272l-57 -469h288l-18 -156h-457l168 1366h455zM446 1772l150 -250l-86 -54l-191 220z" />
    <glyph glyph-name="Eacute" unicode="&#xc9;" horiz-adv-x="641" 
d="M674 1366l-19 -158h-288l-52 -426h273l-21 -157h-272l-57 -469h288l-18 -156h-457l168 1366h455zM592 1772l108 -101l-256 -203l-71 66z" />
    <glyph glyph-name="Ecircumflex" unicode="&#xca;" horiz-adv-x="641" 
d="M674 1366l-19 -158h-288l-52 -426h273l-21 -157h-272l-57 -469h288l-18 -156h-457l168 1366h455zM227 1561l269 211l209 -213l-93 -91l-135 136l-176 -136z" />
    <glyph glyph-name="Edieresis" unicode="&#xcb;" horiz-adv-x="641" 
d="M674 1366l-19 -158h-288l-52 -426h273l-21 -157h-272l-57 -469h288l-18 -156h-457l168 1366h455zM344 1690q37 0 62.5 -26.5t25.5 -64.5q0 -46 -34.5 -80t-80.5 -34q-37 0 -62.5 25.5t-25.5 62.5q0 47 34.5 82t80.5 35zM629 1690q38 0 63 -26t25 -65q0 -45 -35 -79.5
t-80 -34.5q-37 0 -62.5 25.5t-25.5 62.5q0 47 34.5 82t80.5 35z" />
    <glyph glyph-name="Igrave" unicode="&#xcc;" horiz-adv-x="385" 
d="M387 1366l-168 -1366h-168l168 1366h168zM279 1772l141 -250l-88 -54l-180 220z" />
    <glyph glyph-name="Iacute" unicode="&#xcd;" horiz-adv-x="385" 
d="M387 1366l-168 -1366h-168l168 1366h168zM455 1772l106 -101l-244 -203l-71 66z" />
    <glyph glyph-name="Icircumflex" unicode="&#xce;" horiz-adv-x="385" 
d="M387 1366l-168 -1366h-168l168 1366h168zM94 1561l260 211l199 -213l-92 -91l-127 136l-166 -136z" />
    <glyph glyph-name="Idieresis" unicode="&#xcf;" horiz-adv-x="385" 
d="M387 1366l-168 -1366h-168l168 1366h168zM213 1690q37 0 61.5 -26.5t24.5 -64.5q0 -46 -34.5 -80t-80.5 -34q-36 0 -61 26t-25 64q0 46 34.5 80.5t80.5 34.5zM477 1690q37 0 61.5 -26.5t24.5 -64.5q0 -46 -34 -80t-78 -34q-37 0 -61.5 26t-24.5 64q0 46 33.5 80.5
t78.5 34.5z" />
    <glyph glyph-name="Eth" unicode="&#xd0;" horiz-adv-x="819" 
d="M219 1366h178q217 0 299 -98q43 -49 67.5 -135.5t24.5 -184.5q0 -204 -43.5 -409t-115.5 -338q-110 -201 -383 -201h-195l80 641h-96l16 133h96zM369 1212l-56 -438h172l-16 -133h-172l-59 -485h41q64 0 111.5 23.5t88.5 76.5q55 70 96 273.5t41 404.5q0 141 -51.5 209.5
t-158.5 68.5h-37z" />
    <glyph glyph-name="Ntilde" unicode="&#xd1;" horiz-adv-x="860" 
d="M860 1366l-168 -1366h-151l-199 879q-20 112 -23 135v-21q0 -65 -14 -202l-98 -791h-156l168 1366h152l202 -897q0 -1 1 -4.5t2 -9t2 -9.5q0 -1 1 -7l3 -18t4 -22q5 -28 8 -43q-2 16 -2 39q0 54 10 156l100 815h158zM709 1677h120q-14 -87 -57 -133.5t-110 -46.5
q-58 0 -134 43q-32 19 -55 19q-26 0 -41 -56h-119q17 86 59 132t103 46q53 0 107 -32q56 -29 82 -29q34 0 45 57z" />
    <glyph glyph-name="Ograve" unicode="&#xd2;" horiz-adv-x="899" 
d="M567 1386q140 0 218.5 -119.5t78.5 -334.5q0 -182 -34 -374.5t-87 -309.5q-58 -129 -150.5 -198.5t-205.5 -69.5q-146 0 -223.5 119t-77.5 345q0 203 42 403.5t108 321.5q59 103 145.5 160t185.5 57zM543 1227q-106 0 -174 -148q-42 -95 -75.5 -286.5t-33.5 -341.5
q0 -306 150 -306q107 0 176 150q43 99 74.5 297.5t31.5 374.5q0 124 -39 192t-110 68zM580 1772l149 -250l-86 -54l-190 220z" />
    <glyph glyph-name="Oacute" unicode="&#xd3;" horiz-adv-x="899" 
d="M567 1386q140 0 218.5 -119.5t78.5 -334.5q0 -182 -34 -374.5t-87 -309.5q-58 -129 -150.5 -198.5t-205.5 -69.5q-146 0 -223.5 119t-77.5 345q0 203 42 403.5t108 321.5q59 103 145.5 160t185.5 57zM543 1227q-106 0 -174 -148q-42 -95 -75.5 -286.5t-33.5 -341.5
q0 -306 150 -306q107 0 176 150q43 99 74.5 297.5t31.5 374.5q0 124 -39 192t-110 68zM729 1772l109 -101l-256 -203l-72 66z" />
    <glyph glyph-name="Ocircumflex" unicode="&#xd4;" horiz-adv-x="899" 
d="M567 1386q140 0 218.5 -119.5t78.5 -334.5q0 -182 -34 -374.5t-87 -309.5q-58 -129 -150.5 -198.5t-205.5 -69.5q-146 0 -223.5 119t-77.5 345q0 203 42 403.5t108 321.5q59 103 145.5 160t185.5 57zM543 1227q-106 0 -174 -148q-42 -95 -75.5 -286.5t-33.5 -341.5
q0 -306 150 -306q107 0 176 150q43 99 74.5 297.5t31.5 374.5q0 124 -39 192t-110 68zM358 1561l269 211l209 -213l-93 -91l-135 136l-176 -136z" />
    <glyph glyph-name="Otilde" unicode="&#xd5;" horiz-adv-x="899" 
d="M567 1386q140 0 218.5 -119.5t78.5 -334.5q0 -182 -34 -374.5t-87 -309.5q-58 -129 -150.5 -198.5t-205.5 -69.5q-146 0 -223.5 119t-77.5 345q0 203 42 403.5t108 321.5q59 103 145.5 160t185.5 57zM543 1227q-106 0 -174 -148q-42 -95 -75.5 -286.5t-33.5 -341.5
q0 -306 150 -306q107 0 176 150q43 99 74.5 297.5t31.5 374.5q0 124 -39 192t-110 68zM745 1677h121q-13 -86 -57.5 -133t-110.5 -47q-59 0 -135 43q-32 19 -53 19q-28 0 -41 -56h-121q19 87 60.5 132.5t101.5 45.5q54 0 108 -32q53 -29 82 -29q17 0 27 13t18 44z" />
    <glyph glyph-name="Odieresis" unicode="&#xd6;" horiz-adv-x="899" 
d="M567 1386q140 0 218.5 -119.5t78.5 -334.5q0 -182 -34 -374.5t-87 -309.5q-58 -129 -150.5 -198.5t-205.5 -69.5q-146 0 -223.5 119t-77.5 345q0 203 42 403.5t108 321.5q59 103 145.5 160t185.5 57zM543 1227q-106 0 -174 -148q-42 -95 -75.5 -286.5t-33.5 -341.5
q0 -306 150 -306q107 0 176 150q43 99 74.5 297.5t31.5 374.5q0 124 -39 192t-110 68zM469 1690q37 0 62.5 -26.5t25.5 -64.5q0 -46 -34.5 -80t-80.5 -34q-37 0 -62.5 25.5t-25.5 62.5q0 47 34.5 82t80.5 35zM754 1690q38 0 63 -26t25 -65q0 -46 -34.5 -80t-80.5 -34
q-37 0 -62.5 25.5t-25.5 62.5q0 47 34.5 82t80.5 35z" />
    <glyph glyph-name="multiply" unicode="&#xd7;" horiz-adv-x="778" 
d="M311 694l-184 189l106 106l185 -188l182 184l100 -102l-180 -185l185 -188l-107 -107l-184 189l-183 -184l-100 102z" />
    <glyph glyph-name="Oslash" unicode="&#xd8;" horiz-adv-x="907" 
d="M952 1331l-108 -174q26 -82 26 -211q0 -198 -32.5 -386t-87.5 -312q-60 -131 -151.5 -199.5t-205.5 -68.5q-137 0 -219 118l-76 -116l-78 55l103 166q-31 94 -31 231q0 193 32 373.5t89 304.5q62 134 153 204t205 70q69 0 121.5 -28.5t102.5 -91.5l73 116zM700 963
l-409 -711q3 -3 8 -21q10 -38 43.5 -63t73.5 -25q58 0 105 43.5t77 122.5q48 131 71.5 281t30.5 373zM266 397l412 719q-34 111 -127 111q-69 0 -119 -56t-88 -176q-31 -99 -54.5 -262.5t-23.5 -286.5v-49z" />
    <glyph glyph-name="Ugrave" unicode="&#xd9;" horiz-adv-x="851" 
d="M854 1366l-119 -975q-12 -102 -30 -160t-52 -110q-43 -67 -118.5 -104t-169.5 -37q-130 0 -203.5 68t-73.5 190q0 50 14 165l117 963h168l-115 -934q-14 -129 -14 -160q0 -62 34.5 -97.5t94.5 -35.5q39 0 74 17.5t55 46.5q21 29 32 74t25 155l115 934h166zM498 1772
l149 -250l-86 -54l-190 220z" />
    <glyph glyph-name="Uacute" unicode="&#xda;" horiz-adv-x="851" 
d="M854 1366l-119 -975q-12 -102 -30 -160t-52 -110q-43 -67 -118.5 -104t-169.5 -37q-130 0 -203.5 68t-73.5 190q0 50 14 165l117 963h168l-115 -934q-14 -129 -14 -160q0 -62 34.5 -97.5t94.5 -35.5q39 0 74 17.5t55 46.5q21 29 32 74t25 155l115 934h166zM694 1772
l109 -101l-256 -203l-72 66z" />
    <glyph glyph-name="Ucircumflex" unicode="&#xdb;" horiz-adv-x="851" 
d="M854 1366l-119 -975q-12 -102 -30 -160t-52 -110q-43 -67 -118.5 -104t-169.5 -37q-130 0 -203.5 68t-73.5 190q0 50 14 165l117 963h168l-115 -934q-14 -129 -14 -160q0 -62 34.5 -97.5t94.5 -35.5q39 0 74 17.5t55 46.5q21 29 32 74t25 155l115 934h166zM322 1561
l268 211l211 -213l-94 -91l-136 136l-176 -136z" />
    <glyph glyph-name="Udieresis" unicode="&#xdc;" horiz-adv-x="851" 
d="M854 1366l-119 -975q-12 -102 -30 -160t-52 -110q-43 -67 -118.5 -104t-169.5 -37q-130 0 -203.5 68t-73.5 190q0 50 14 165l117 963h168l-115 -934q-14 -129 -14 -160q0 -62 34.5 -97.5t94.5 -35.5q39 0 74 17.5t55 46.5q21 29 32 74t25 155l115 934h166zM434 1690
q37 0 62.5 -26.5t25.5 -64.5q0 -46 -34 -80t-80 -34q-37 0 -63 25.5t-26 62.5q0 47 34.5 82t80.5 35zM719 1690q37 0 62.5 -25.5t25.5 -62.5q0 -47 -34.5 -82t-80.5 -35q-37 0 -62.5 25.5t-25.5 62.5q0 47 34.5 82t80.5 35z" />
    <glyph glyph-name="Yacute" unicode="&#xdd;" horiz-adv-x="716" 
d="M825 1366l-358 -752l-76 -614h-166l76 614l-188 752h182l82 -387q17 -81 26 -195q29 99 74 199l166 383h182zM627 1772l108 -101l-254 -203l-73 66z" />
    <glyph glyph-name="Thorn" unicode="&#xde;" horiz-adv-x="727" 
d="M219 0h-168l168 1366h168l-29 -225h43q171 0 246.5 -69.5t75.5 -227.5q0 -107 -35 -206t-92 -153q-87 -84 -277 -84h-51zM287 551h57q119 0 162 78q47 86 47 207q0 85 -36.5 122t-119.5 37h-57z" />
    <glyph glyph-name="germandbls" unicode="&#xdf;" horiz-adv-x="722" 
d="M45 0l105 850h-95l19 139h92l16 127q13 112 29.5 169t48.5 108q35 54 99 85t139 31q110 0 171.5 -68t61.5 -190q0 -300 -176 -377q60 -31 86.5 -86t26.5 -151q0 -167 -33.5 -316t-87.5 -215q-44 -58 -95.5 -84t-121.5 -26q-26 0 -49 4l18 150h25q34 0 62 16.5t42 42.5
q32 65 55 192.5t23 245.5q0 72 -27 111t-76 39h-24l18 153h23q70 0 107.5 70t37.5 201q0 143 -92 143q-57 0 -86.5 -49.5t-44.5 -169.5l-139 -1145h-158z" />
    <glyph glyph-name="agrave" unicode="&#xe0;" horiz-adv-x="706" 
d="M668 924l-113 -924h-158l11 82q-41 -51 -81.5 -73.5t-90.5 -22.5q-86 0 -132.5 73t-46.5 209q0 153 30 305.5t79 245.5q28 55 80.5 88t111.5 33q50 0 83 -21.5t61 -70.5l8 76h158zM391 805q-63 0 -104 -86q-25 -57 -47.5 -194.5t-22.5 -235.5q0 -168 90 -168
q29 0 55.5 17.5t40.5 45.5q51 115 66 289q12 140 12 184q0 70 -23.5 109t-66.5 39zM393 1356l146 -256l-88 -56l-183 232z" />
    <glyph glyph-name="aacute" unicode="&#xe1;" horiz-adv-x="706" 
d="M668 924l-113 -924h-158l11 82q-41 -51 -81.5 -73.5t-90.5 -22.5q-86 0 -132.5 73t-46.5 209q0 153 30 305.5t79 245.5q28 55 80.5 88t111.5 33q50 0 83 -21.5t61 -70.5l8 76h158zM391 805q-63 0 -104 -86q-25 -57 -47.5 -194.5t-22.5 -235.5q0 -168 90 -168
q29 0 55.5 17.5t40.5 45.5q51 115 66 289q12 140 12 184q0 70 -23.5 109t-66.5 39zM430 1044l-80 60l213 252l117 -88z" />
    <glyph glyph-name="acircumflex" unicode="&#xe2;" horiz-adv-x="706" 
d="M668 924l-113 -924h-158l11 82q-41 -51 -81.5 -73.5t-90.5 -22.5q-86 0 -132.5 73t-46.5 209q0 153 30 304.5t79 246.5q28 54 80.5 86.5t113.5 32.5q49 0 81.5 -21t60.5 -69l8 76h158zM391 803q-28 0 -53.5 -18t-38.5 -48q-33 -65 -57.5 -200t-24.5 -252q0 -164 90 -164
q29 0 55.5 17.5t40.5 45.5q32 72 55 212t23 263q0 68 -23.5 106t-66.5 38zM479 1356l199 -226l-92 -86l-125 144l-164 -144l-72 93z" />
    <glyph glyph-name="atilde" unicode="&#xe3;" horiz-adv-x="706" 
d="M668 924l-113 -924h-158l11 82q-41 -51 -81.5 -73.5t-90.5 -22.5q-86 0 -132.5 73t-46.5 209q0 153 30 305.5t79 245.5q28 55 80.5 88t111.5 33q50 0 83 -21.5t61 -70.5l8 76h158zM391 805q-63 0 -104 -86q-25 -57 -47.5 -194.5t-22.5 -235.5q0 -168 90 -168
q29 0 55.5 17.5t40.5 45.5q51 115 66 289q12 140 12 184q0 70 -23.5 109t-66.5 39zM594 1255h119q-13 -86 -56.5 -135t-105.5 -49q-55 0 -125 45q-32 21 -49 21q-26 0 -39 -58h-119q19 86 59 133.5t95 47.5q49 0 133 -48q26 -16 45 -16q29 0 43 59z" />
    <glyph glyph-name="adieresis" unicode="&#xe4;" horiz-adv-x="706" 
d="M668 924l-113 -924h-158l11 82q-41 -51 -81.5 -73.5t-90.5 -22.5q-86 0 -132.5 73t-46.5 209q0 153 30 305.5t79 245.5q28 55 80.5 88t111.5 33q50 0 83 -21.5t61 -70.5l8 76h158zM391 805q-63 0 -104 -86q-25 -57 -47.5 -194.5t-22.5 -235.5q0 -168 90 -168
q29 0 55.5 17.5t40.5 45.5q51 115 66 289q12 140 12 184q0 70 -23.5 109t-66.5 39zM336 1266q37 0 61.5 -25.5t24.5 -64.5q0 -44 -34.5 -78.5t-80.5 -34.5q-35 0 -60.5 25.5t-25.5 62.5q0 46 34.5 80.5t80.5 34.5zM612 1266q37 0 61.5 -25t24.5 -63q0 -46 -34 -79.5
t-80 -33.5q-35 0 -60.5 25.5t-25.5 60.5q0 46 34 80.5t80 34.5z" />
    <glyph glyph-name="aring" unicode="&#xe5;" horiz-adv-x="706" 
d="M668 924l-113 -924h-158l11 82q-41 -51 -81.5 -73.5t-90.5 -22.5q-86 0 -132.5 73t-46.5 209q0 153 30 305.5t79 245.5q28 55 80.5 88t111.5 33q50 0 83 -21.5t61 -70.5l8 76h158zM391 805q-63 0 -104 -86q-25 -57 -47.5 -194.5t-22.5 -235.5q0 -168 90 -168
q29 0 55.5 17.5t40.5 45.5q51 115 66 289q12 140 12 184q0 70 -23.5 109t-66.5 39zM463 1374q69 0 117.5 -49.5t48.5 -118.5q0 -72 -49 -121t-121 -49q-66 0 -115 50.5t-49 119.5t49.5 118.5t118.5 49.5zM463 1280q-32 0 -54 -21.5t-22 -52.5t21.5 -53.5t52.5 -22.5
q32 0 54 22t22 54q0 31 -21.5 52.5t-52.5 21.5z" />
    <glyph glyph-name="ae" unicode="&#xe6;" horiz-adv-x="1071" 
d="M1004 430h-406q-8 -63 -8 -102q0 -97 30 -153t82 -56q109 0 136 190h139q-25 -151 -103.5 -237t-191.5 -86q-64 0 -109 34t-77 107q-100 -141 -240 -141q-103 0 -160 67.5t-57 188.5q0 156 78.5 256t201.5 100q98 0 150 -61q6 61 6 104q0 73 -39.5 116.5t-107.5 43.5
q-70 0 -170 -66l18 156q98 49 186 49q85 0 137 -35.5t81 -113.5q88 149 227 149q97 0 153 -87t56 -239q0 -76 -12 -184zM614 547h256q4 43 4 84q0 75 -29 125.5t-73 50.5q-57 0 -99 -69.5t-59 -190.5zM336 475q-64 0 -107 -61t-43 -152q0 -67 27.5 -105t77.5 -38
q66 0 110.5 60t44.5 149q0 71 -28 109t-82 38z" />
    <glyph glyph-name="ccedilla" unicode="&#xe7;" horiz-adv-x="520" 
d="M532 907l-20 -162q-44 52 -92 52q-86 0 -145.5 -129t-59.5 -316q0 -103 31.5 -161t87.5 -58q27 0 50 13.5t62 52.5l-20 -172q-75 -41 -139 -41q-107 0 -171.5 93t-64.5 249q0 122 29.5 240.5t81.5 209.5q45 77 110.5 119.5t141.5 42.5q64 0 118 -33zM47 -344l164 266
l117 -61l-201 -250z" />
    <glyph glyph-name="egrave" unicode="&#xe8;" horiz-adv-x="673" 
d="M602 426h-389q-8 -68 -8 -121q0 -186 100 -186q51 0 82.5 45t48.5 141h144q-35 -165 -104 -242t-181 -77q-117 0 -179.5 85t-62.5 242q0 260 103 461q41 77 108 121.5t142 44.5q103 0 160 -85t57 -237q0 -72 -21 -192zM229 543h244q8 57 8 100q0 78 -24 120t-68 42
q-59 0 -100 -67.5t-60 -194.5zM381 1356l145 -256l-88 -56l-182 232z" />
    <glyph glyph-name="eacute" unicode="&#xe9;" horiz-adv-x="673" 
d="M602 426h-389q-8 -68 -8 -121q0 -186 100 -186q51 0 82.5 45t48.5 141h144q-35 -165 -104 -242t-181 -77q-117 0 -179.5 85t-62.5 242q0 260 103 461q41 77 108 121.5t142 44.5q103 0 160 -85t57 -237q0 -72 -21 -192zM229 543h244q8 57 8 100q0 78 -24 120t-68 42
q-59 0 -100 -67.5t-60 -194.5zM410 1044l-80 60l213 252l116 -88z" />
    <glyph glyph-name="ecircumflex" unicode="&#xea;" horiz-adv-x="673" 
d="M602 426h-389q-8 -68 -8 -121q0 -186 100 -186q51 0 82.5 45t48.5 141h144q-35 -165 -104 -242t-181 -77q-117 0 -179.5 85t-62.5 242q0 260 103 461q41 77 108 121.5t142 44.5q103 0 160 -85t57 -237q0 -72 -21 -192zM229 543h244q8 57 8 100q0 78 -24 120t-68 42
q-59 0 -100 -67.5t-60 -194.5zM455 1356l198 -226l-92 -86l-125 144l-164 -144l-71 93z" />
    <glyph glyph-name="edieresis" unicode="&#xeb;" horiz-adv-x="673" 
d="M602 426h-389q-8 -68 -8 -121q0 -186 100 -186q51 0 82.5 45t48.5 141h144q-35 -164 -104.5 -241.5t-180.5 -77.5q-117 0 -179.5 85t-62.5 242q0 260 103 461q41 77 108 121.5t142 44.5q103 0 160 -85t57 -237q0 -72 -21 -192zM229 543h244q8 57 8 100q0 77 -24 119.5
t-68 42.5q-59 0 -100 -67.5t-60 -194.5zM305 1266q38 0 63 -25.5t25 -62.5q0 -46 -34 -80.5t-80 -34.5q-35 0 -60.5 25.5t-25.5 62.5q0 46 34 80.5t78 34.5zM582 1266q37 0 62.5 -25.5t25.5 -62.5q0 -46 -34.5 -80.5t-80.5 -34.5q-35 0 -60.5 25.5t-25.5 62.5
q0 46 34.5 80.5t78.5 34.5z" />
    <glyph glyph-name="igrave" unicode="&#xec;" horiz-adv-x="346" 
d="M307 924l-112 -924h-158l113 924h157zM188 1356l138 -256l-88 -56l-175 232z" />
    <glyph glyph-name="iacute" unicode="&#xed;" horiz-adv-x="346" 
d="M307 924l-112 -924h-158l113 924h157zM244 1044l-80 60l203 252l114 -88z" />
    <glyph glyph-name="icircumflex" unicode="&#xee;" horiz-adv-x="346" 
d="M305 924l-112 -924h-158l112 924h158zM281 1356l190 -228l-94 -84l-113 144l-155 -144l-72 93z" />
    <glyph glyph-name="idieresis" unicode="&#xef;" horiz-adv-x="346" 
d="M305 924l-112 -924h-158l112 924h158zM143 1255q35 0 58.5 -23.5t23.5 -57.5q0 -44 -31.5 -77.5t-74.5 -33.5q-34 0 -58 24.5t-24 59.5q0 44 31.5 76t74.5 32zM391 1257q34 0 57 -24t23 -59q0 -44 -31.5 -77.5t-74.5 -33.5q-33 0 -56.5 24.5t-23.5 59.5q0 44 31.5 77
t74.5 33z" />
    <glyph glyph-name="eth" unicode="&#xf0;" horiz-adv-x="698" 
d="M618 1473l64 -93l-131 -86q113 -145 113 -424q0 -186 -26 -366.5t-69 -290.5q-40 -106 -113.5 -166.5t-162.5 -60.5q-100 0 -166 69q-34 35 -53 109.5t-19 171.5q0 163 47 311t119 217q83 74 174 74q70 0 109 -57q4 41 4 88q0 143 -68 256l-147 -92l-60 94l129 84
q-50 44 -155 98l65 92q124 -54 203 -119zM393 795q-29 0 -57 -20t-43 -52q-35 -69 -57.5 -182.5t-22.5 -223.5q0 -87 25.5 -136.5t70.5 -49.5q41 0 71.5 33.5t53.5 105.5q49 155 49 340t-90 185z" />
    <glyph glyph-name="ntilde" unicode="&#xf1;" horiz-adv-x="710" 
d="M307 924l-12 -95q90 109 205 109q69 0 108 -42.5t39 -117.5q0 -28 -8 -114l-82 -664h-156l76 623q8 86 8 94q0 34 -21.5 56t-53.5 22q-29 0 -57.5 -15.5t-45.5 -40.5q-28 -47 -41 -145l-71 -594h-158l113 924h157zM561 1255h119q-12 -84 -56 -134t-106 -50q-55 0 -125 45
q-31 21 -49 21q-26 0 -39 -58h-119q19 86 59 133.5t95 47.5q49 0 133 -48q26 -16 45 -16q29 0 43 59z" />
    <glyph glyph-name="ograve" unicode="&#xf2;" horiz-adv-x="698" 
d="M412 940q101 0 155 -63q35 -38 56.5 -110.5t21.5 -150.5q0 -108 -22 -232t-54 -194q-92 -204 -278 -204q-115 0 -175.5 88.5t-60.5 257.5q0 122 29 245t76 205q44 77 109 117.5t143 40.5zM393 795q-28 0 -55.5 -20t-42.5 -52q-35 -67 -57.5 -180t-22.5 -217
q0 -195 96 -195q77 0 123 139q49 152 49 340q0 185 -90 185zM393 1356l146 -256l-88 -56l-185 232z" />
    <glyph glyph-name="oacute" unicode="&#xf3;" horiz-adv-x="698" 
d="M412 940q101 0 155 -63q35 -38 56.5 -110.5t21.5 -150.5q0 -108 -22 -232t-54 -194q-92 -204 -278 -204q-115 0 -175.5 88.5t-60.5 257.5q0 122 29 245t76 205q44 77 109 117.5t143 40.5zM393 795q-28 0 -55.5 -20t-42.5 -52q-35 -67 -57.5 -180t-22.5 -217
q0 -195 96 -195q77 0 123 139q49 152 49 340q0 185 -90 185zM426 1044l-80 60l211 252l119 -88z" />
    <glyph glyph-name="ocircumflex" unicode="&#xf4;" horiz-adv-x="698" 
d="M412 940q101 0 155 -63q35 -38 56.5 -110.5t21.5 -150.5q0 -108 -22 -232t-54 -194q-92 -204 -278 -204q-115 0 -175.5 88.5t-60.5 257.5q0 122 29 245t76 205q44 77 109 117.5t143 40.5zM393 795q-28 0 -55.5 -20t-42.5 -52q-35 -67 -57.5 -180t-22.5 -217
q0 -195 96 -195q77 0 123 139q49 152 49 340q0 185 -90 185zM471 1356l201 -226l-92 -86l-125 144l-164 -144l-72 93z" />
    <glyph glyph-name="otilde" unicode="&#xf5;" horiz-adv-x="698" 
d="M412 940q101 0 155 -63q35 -38 56.5 -110.5t21.5 -150.5q0 -108 -22 -232t-54 -194q-92 -204 -278 -204q-115 0 -175.5 88.5t-60.5 257.5q0 122 29 245t76 205q44 77 109 117.5t143 40.5zM393 795q-28 0 -55.5 -20t-42.5 -52q-35 -67 -57.5 -180t-22.5 -217
q0 -195 96 -195q77 0 123 139q49 152 49 340q0 185 -90 185zM582 1255h118q-13 -86 -56 -135t-105 -49q-55 0 -125 45q-32 21 -49 21q-26 0 -39 -58h-119q19 86 58.5 133.5t94.5 47.5q50 0 134 -48q26 -16 45 -16q29 0 43 59z" />
    <glyph glyph-name="odieresis" unicode="&#xf6;" horiz-adv-x="698" 
d="M412 940q101 0 155 -63q35 -38 56.5 -110.5t21.5 -150.5q0 -108 -22 -232t-54 -194q-92 -204 -278 -204q-115 0 -175.5 88.5t-60.5 257.5q0 122 29 245t76 205q44 77 109 117.5t143 40.5zM393 795q-28 0 -55.5 -20t-42.5 -52q-35 -67 -57.5 -180t-22.5 -217
q0 -195 96 -195q77 0 123 139q49 152 49 340q0 185 -90 185zM324 1266q37 0 61.5 -25.5t24.5 -62.5q0 -46 -34.5 -80.5t-80.5 -34.5q-35 0 -60.5 25.5t-25.5 62.5q0 46 34.5 80.5t80.5 34.5zM600 1266q37 0 61.5 -25t24.5 -63q0 -46 -33.5 -80.5t-79.5 -34.5
q-35 0 -60.5 25.5t-25.5 62.5q0 46 33.5 80.5t79.5 34.5z" />
    <glyph glyph-name="divide" unicode="&#xf7;" horiz-adv-x="778" 
d="M94 623v149h645v-149h-645zM418 520q41 0 71.5 -31.5t30.5 -74.5t-30.5 -75t-71.5 -32q-43 0 -74 32t-31 75q0 44 31 75t74 31zM418 1083q41 0 71.5 -31.5t30.5 -72.5q0 -44 -30.5 -75.5t-71.5 -31.5q-43 0 -74 32t-31 75t31 73.5t74 30.5z" />
    <glyph glyph-name="oslash" unicode="&#xf8;" horiz-adv-x="688" 
d="M637 952l78 -53l-94 -131q14 -98 14 -164q0 -120 -25.5 -252t-62.5 -198q-92 -168 -262 -168q-108 0 -172 67l-58 -76l-69 58l80 115q-17 75 -17 139q0 144 26.5 278.5t69.5 208.5q86 154 250 154q58 0 89.5 -12.5t86.5 -55.5zM223 340l230 381q-12 31 -28 43t-44 12
q-77 0 -111 -123q-10 -42 -17 -86t-30 -227zM465 584l-232 -383q3 -32 23.5 -51t52.5 -19q81 0 111 133q23 102 45 320z" />
    <glyph glyph-name="ugrave" unicode="&#xf9;" horiz-adv-x="712" 
d="M150 924h157l-71 -580q-11 -90 -11 -113q0 -47 23.5 -72.5t66.5 -25.5q59 0 87.5 46t41.5 165l72 580h158l-84 -674q-15 -121 -95 -192.5t-200 -71.5q-102 0 -167 56.5t-65 145.5q0 25 7 72zM379 1356l145 -256l-88 -56l-184 232z" />
    <glyph glyph-name="uacute" unicode="&#xfa;" horiz-adv-x="712" 
d="M150 924h157l-71 -580q-11 -90 -11 -113q0 -47 23.5 -72.5t66.5 -25.5q59 0 87.5 46t41.5 165l72 580h158l-84 -674q-15 -121 -95 -192.5t-200 -71.5q-102 0 -167 56.5t-65 145.5q0 25 7 72zM426 1044l-80 60l213 252l117 -88z" />
    <glyph glyph-name="ucircumflex" unicode="&#xfb;" horiz-adv-x="712" 
d="M150 924h157l-71 -580q-11 -90 -11 -113q0 -47 23.5 -72.5t66.5 -25.5q59 0 87.5 46t41.5 165l72 580h158l-84 -674q-15 -121 -95 -192.5t-200 -71.5q-102 0 -167 56.5t-65 145.5q0 25 7 72zM465 1356l201 -226l-95 -86l-122 144l-166 -144l-72 93z" />
    <glyph glyph-name="udieresis" unicode="&#xfc;" horiz-adv-x="712" 
d="M150 924h157l-71 -580q-11 -90 -11 -113q0 -47 23.5 -72.5t66.5 -25.5q59 0 87.5 46t41.5 165l72 580h158l-84 -674q-15 -121 -95 -192.5t-200 -71.5q-102 0 -167 56.5t-65 145.5q0 25 7 72zM315 1266q37 0 61.5 -25t24.5 -63q0 -46 -34 -79.5t-80 -33.5
q-35 0 -60.5 25.5t-25.5 60.5q0 46 34 80.5t80 34.5zM594 1266q37 0 61.5 -24.5t24.5 -61.5q0 -47 -34.5 -81t-80.5 -34q-35 0 -60.5 25.5t-25.5 60.5q0 46 34.5 80.5t80.5 34.5z" />
    <glyph glyph-name="yacute" unicode="&#xfd;" horiz-adv-x="636" 
d="M686 924l-496 -1295h-159l155 394l-123 901h160l49 -459q0 -3 4 -35l5 -59q6 -105 6 -127q1 4 16 55q4 13 25 70l10 26l186 529h162zM385 1044l-80 60l211 252l119 -88z" />
    <glyph glyph-name="thorn" unicode="&#xfe;" horiz-adv-x="698" 
d="M219 1485h158l-80 -637q41 51 78.5 71.5t87.5 20.5q91 0 138.5 -71t47.5 -205q0 -154 -30.5 -308t-79.5 -252q-28 -53 -80 -85.5t-109 -32.5q-93 0 -145 96l-58 -465h-157zM395 805q-50 0 -81 -46t-54 -155q-14 -71 -25.5 -173.5t-11.5 -160.5q0 -149 90 -149
q28 0 54 16.5t39 44.5q31 63 56 200t25 241q0 94 -22.5 138t-69.5 44z" />
    <glyph glyph-name="ydieresis" unicode="&#xff;" horiz-adv-x="636" 
d="M686 924l-496 -1295h-159l155 394l-123 901h160l49 -459q0 -3 4 -35l5 -59q6 -105 6 -127q1 4 16 55q4 13 25 70l10 26l186 529h162zM276 1266q38 0 63.5 -25t25.5 -63q0 -46 -34.5 -80.5t-80.5 -34.5q-35 0 -60.5 25.5t-25.5 62.5q0 46 34 80.5t78 34.5zM555 1266
q37 0 61.5 -25t24.5 -63q0 -46 -34.5 -79.5t-80.5 -33.5q-35 0 -60.5 25.5t-25.5 60.5q0 46 34.5 80.5t80.5 34.5z" />
    <glyph glyph-name="Amacron" unicode="&#x100;" horiz-adv-x="737" 
d="M559 1366l117 -1366h-176l-19 266h-280l-82 -266h-172l446 1366h166zM473 406l-27 401q-8 104 -8 184q0 40 6 148q-39 -198 -82 -340l-118 -393h229zM256 1518l16 127h463l-16 -127h-463z" />
    <glyph glyph-name="amacron" unicode="&#x101;" horiz-adv-x="706" 
d="M668 924l-113 -924h-158l11 82q-41 -51 -81.5 -73.5t-90.5 -22.5q-86 0 -132.5 73t-46.5 209q0 153 30 305.5t79 245.5q28 55 80.5 88t111.5 33q50 0 83 -21.5t61 -70.5l8 76h158zM391 805q-63 0 -104 -86q-25 -57 -47.5 -194.5t-22.5 -235.5q0 -168 90 -168
q29 0 55.5 17.5t40.5 45.5q51 115 66 289q12 140 12 184q0 70 -23.5 109t-66.5 39zM229 1098l15 125h444l-14 -125h-445z" />
    <glyph glyph-name="Abreve" unicode="&#x102;" horiz-adv-x="737" 
d="M559 1366l117 -1366h-176l-19 266h-280l-82 -266h-172l446 1366h166zM473 406l-27 401q-8 104 -8 184q0 40 6 148q-39 -198 -82 -340l-118 -393h229zM631 1731h123q-23 -117 -96 -185.5t-173 -68.5q-88 0 -146 64.5t-58 162.5q0 15 2 27h120q0 -134 91 -134q93 0 137 134
z" />
    <glyph glyph-name="abreve" unicode="&#x103;" horiz-adv-x="706" 
d="M668 924l-113 -924h-158l11 82q-41 -51 -81.5 -73.5t-90.5 -22.5q-86 0 -132.5 73t-46.5 209q0 153 30 305.5t79 245.5q28 55 80.5 88t111.5 33q50 0 83 -21.5t61 -70.5l8 76h158zM391 805q-63 0 -104 -86q-25 -57 -47.5 -194.5t-22.5 -235.5q0 -168 90 -168
q29 0 55.5 17.5t40.5 45.5q51 115 66 289q12 140 12 184q0 70 -23.5 109t-66.5 39zM578 1311h118q-22 -117 -91 -185.5t-163 -68.5q-83 0 -137.5 63t-54.5 160q0 17 2 31h119q0 -133 80 -133q89 0 127 133z" />
    <glyph glyph-name="Aogonek" unicode="&#x104;" horiz-adv-x="737" 
d="M653 0l-14 -12q-44 -35 -71 -76t-27 -72q0 -25 18 -40t47 -15q34 0 78 18l-18 -110q-56 -21 -95 -21q-69 0 -111 34t-42 89q0 52 31.5 100t103.5 105h-53l-19 266h-280l-82 -266h-172l446 1366h166l117 -1366h-23zM473 406l-27 401q-8 104 -8 184q0 40 6 148
q-39 -198 -82 -340l-118 -393h229z" />
    <glyph glyph-name="aogonek" unicode="&#x105;" horiz-adv-x="706" 
d="M668 924l-113 -924q-115 -89 -115 -160q0 -25 18.5 -40t47.5 -15q34 0 80 18l-21 -110q-53 -21 -94 -21q-69 0 -111.5 34t-42.5 89q0 52 33 100.5t105 104.5h-58l11 82q-41 -51 -81.5 -73.5t-90.5 -22.5q-86 0 -132.5 73t-46.5 209q0 153 30 305.5t79 245.5
q28 55 80.5 88t111.5 33q50 0 83 -21.5t61 -70.5l8 76h158zM391 805q-63 0 -104 -86q-25 -57 -47.5 -194.5t-22.5 -235.5q0 -168 90 -168q29 0 55.5 17.5t40.5 45.5q51 115 66 289q12 140 12 184q0 70 -23.5 109t-66.5 39z" />
    <glyph glyph-name="Cacute" unicode="&#x106;" horiz-adv-x="710" 
d="M772 1346l-22 -172q-72 47 -134 47q-84 0 -152 -57.5t-114 -166.5q-37 -90 -61.5 -229t-24.5 -264q0 -172 53.5 -264.5t151.5 -92.5q70 0 162 50l-21 -168q-85 -47 -168 -47q-86 0 -161.5 44.5t-118.5 120.5q-74 128 -74 336q0 168 39.5 345.5t103.5 297.5
q65 119 172.5 188.5t225.5 69.5q81 0 143 -38zM727 1772l109 -101l-256 -203l-72 66z" />
    <glyph glyph-name="cacute" unicode="&#x107;" horiz-adv-x="520" 
d="M535 907l-21 -162q-44 52 -94 52q-86 0 -144.5 -128.5t-58.5 -316.5q0 -103 31.5 -161t87.5 -58q27 0 49 13.5t61 52.5l-20 -172q-72 -41 -137 -41q-107 0 -171.5 93t-64.5 249q0 122 29.5 240.5t81.5 209.5q42 77 108 119.5t142 42.5q67 0 121 -33zM397 1044l-80 60
l211 252l119 -88z" />
    <glyph glyph-name="Ccircumflex" unicode="&#x108;" horiz-adv-x="710" 
d="M772 1346l-22 -172q-72 47 -134 47q-84 0 -152 -57.5t-114 -166.5q-37 -90 -61.5 -229t-24.5 -264q0 -172 53.5 -264.5t151.5 -92.5q70 0 162 50l-21 -168q-85 -47 -168 -47q-86 0 -161.5 44.5t-118.5 120.5q-74 128 -74 336q0 168 39.5 345.5t103.5 297.5
q65 119 172.5 188.5t225.5 69.5q81 0 143 -38zM354 1561l269 211l211 -213l-93 -91l-137 136l-176 -136z" />
    <glyph glyph-name="ccircumflex" unicode="&#x109;" horiz-adv-x="520" 
d="M535 907l-21 -162q-44 52 -94 52q-86 0 -144.5 -128.5t-58.5 -316.5q0 -103 31.5 -161t87.5 -58q27 0 49 13.5t61 52.5l-20 -172q-72 -41 -137 -41q-107 0 -171.5 93t-64.5 249q0 122 29.5 240.5t81.5 209.5q42 77 108 119.5t142 42.5q67 0 121 -33zM424 1356l199 -226
l-93 -86l-124 144l-164 -144l-72 93z" />
    <glyph glyph-name="Cdotaccent" unicode="&#x10a;" horiz-adv-x="708" 
d="M772 1346l-22 -172q-72 47 -134 47q-84 0 -152 -57.5t-114 -166.5q-37 -90 -61.5 -229t-24.5 -264q0 -172 53.5 -264.5t151.5 -92.5q70 0 162 50l-21 -168q-85 -47 -168 -47q-86 0 -161.5 44.5t-118.5 120.5q-74 128 -74 336q0 168 39.5 345.5t103.5 297.5
q65 119 172.5 188.5t225.5 69.5q81 0 143 -38zM649 1698q40 0 67 -27t27 -65q0 -51 -35.5 -87t-86.5 -36q-39 0 -66 27.5t-27 66.5q0 49 36 85t85 36z" />
    <glyph glyph-name="cdotaccent" unicode="&#x10b;" horiz-adv-x="520" 
d="M535 907l-21 -162q-44 52 -94 52q-86 0 -144.5 -128.5t-58.5 -316.5q0 -103 31.5 -161t87.5 -58q27 0 49 13.5t61 52.5l-20 -172q-72 -41 -137 -41q-107 0 -171.5 93t-64.5 249q0 122 29.5 240.5t81.5 209.5q42 77 108 119.5t142 42.5q67 0 121 -33zM432 1274
q40 0 66 -26t26 -66q0 -47 -35.5 -83t-82.5 -36q-38 0 -65.5 27t-27.5 65q0 47 36 83t83 36z" />
    <glyph glyph-name="Ccaron" unicode="&#x10c;" horiz-adv-x="710" 
d="M772 1346l-22 -172q-72 47 -134 47q-84 0 -152 -57.5t-114 -166.5q-37 -90 -61.5 -229t-24.5 -264q0 -172 53.5 -264.5t151.5 -92.5q70 0 162 50l-21 -168q-85 -47 -168 -47q-86 0 -161.5 44.5t-118.5 120.5q-74 128 -74 336q0 168 39.5 345.5t103.5 297.5
q65 119 172.5 188.5t225.5 69.5q81 0 143 -38zM885 1679l-269 -211l-210 211l92 93l137 -138l176 138z" />
    <glyph glyph-name="ccaron" unicode="&#x10d;" horiz-adv-x="520" 
d="M535 907l-21 -162q-44 52 -94 52q-86 0 -144.5 -128.5t-58.5 -316.5q0 -103 31.5 -161t87.5 -58q27 0 49 13.5t61 52.5l-20 -172q-72 -41 -137 -41q-107 0 -171.5 93t-64.5 249q0 122 29.5 240.5t81.5 209.5q42 77 108 119.5t142 42.5q67 0 121 -33zM399 1044l-194 228
l92 84l119 -142l159 142l72 -92z" />
    <glyph glyph-name="Dcaron" unicode="&#x10e;" horiz-adv-x="819" 
d="M51 0l168 1366h176q217 0 299 -98q43 -49 67.5 -135.5t24.5 -184.5q0 -204 -43.5 -409t-115.5 -338q-107 -201 -381 -201h-195zM367 1212l-129 -1056h41q65 0 111 23t87 77q55 70 96 272.5t41 401.5q0 144 -51 213t-157 69h-39zM743 1679l-270 -211l-209 211l92 93
l138 -138l176 138z" />
    <glyph glyph-name="dcaron" unicode="&#x10f;" horiz-adv-x="927" 
d="M731 1485l-182 -1485h-158l10 82q-41 -51 -81.5 -73.5t-90.5 -22.5q-86 0 -132 72.5t-46 207.5q0 152 30.5 306t78.5 247q28 54 81.5 87.5t110.5 33.5q50 0 83 -21.5t61 -70.5l77 637h158zM385 805q-63 0 -104 -86q-25 -57 -47.5 -194.5t-22.5 -235.5q0 -168 90 -168
q29 0 55.5 17.5t40.5 45.5q51 115 66 289q12 140 12 184q0 70 -23.5 109t-66.5 39zM768 1165l154 320l133 -33l-193 -313z" />
    <glyph glyph-name="Dcroat" unicode="&#x110;" horiz-adv-x="819" 
d="M219 1366h178q217 0 299 -98q43 -49 67.5 -135.5t24.5 -184.5q0 -204 -43.5 -409t-115.5 -338q-110 -201 -383 -201h-195l80 641h-96l16 133h96zM369 1212l-56 -438h172l-16 -133h-172l-59 -485h41q64 0 111.5 23.5t88.5 76.5q55 70 96 273.5t41 404.5q0 141 -51.5 209.5
t-158.5 68.5h-37z" />
    <glyph glyph-name="dcroat" unicode="&#x111;" horiz-adv-x="702" 
d="M729 1485l-24 -215h86l-17 -121h-86l-139 -1149h-158l10 82q-78 -96 -170 -96q-85 0 -133.5 70.5t-48.5 193.5q0 160 30 315t81 254q28 54 81 87.5t111 33.5q50 0 82.5 -20.5t61.5 -71.5l36 301h-159l16 121h158l26 215h156zM383 805q-28 0 -52 -17.5t-38 -46.5
q-69 -139 -82 -448q-3 -78 21.5 -125t68.5 -47q29 0 54.5 18t39.5 47q34 73 56 207t22 262q0 72 -23.5 111t-66.5 39z" />
    <glyph glyph-name="Emacron" unicode="&#x112;" horiz-adv-x="641" 
d="M674 1366l-19 -158h-288l-52 -426h273l-21 -157h-272l-57 -469h288l-18 -156h-457l168 1366h455zM236 1518l14 127h463l-17 -127h-460z" />
    <glyph glyph-name="emacron" unicode="&#x113;" horiz-adv-x="673" 
d="M602 426h-389q-8 -68 -8 -121q0 -186 100 -186q51 0 82.5 45t48.5 141h144q-35 -165 -104 -242t-181 -77q-117 0 -179.5 85t-62.5 242q0 260 103 461q41 77 108 121.5t142 44.5q103 0 160 -85t57 -237q0 -72 -21 -192zM229 543h244q8 57 8 100q0 78 -24 120t-68 42
q-59 0 -100 -67.5t-60 -194.5zM203 1098l14 125h445l-15 -125h-444z" />
    <glyph glyph-name="Ebreve" unicode="&#x114;" horiz-adv-x="641" 
d="M674 1366l-19 -158h-288l-52 -426h273l-21 -157h-272l-57 -469h288l-18 -156h-457l168 1366h455zM602 1731h121q-23 -117 -94.5 -185.5t-171.5 -68.5q-89 0 -147 64.5t-58 162.5q0 15 2 27h121q0 -134 90 -134q96 0 137 134z" />
    <glyph glyph-name="ebreve" unicode="&#x115;" horiz-adv-x="673" 
d="M602 426h-389q-8 -68 -8 -121q0 -186 100 -186q51 0 82.5 45t48.5 141h144q-35 -165 -104 -242t-181 -77q-117 0 -179.5 85t-62.5 242q0 260 103 461q41 77 108 121.5t142 44.5q103 0 160 -85t57 -237q0 -72 -21 -192zM229 543h244q8 57 8 100q0 78 -24 120t-68 42
q-59 0 -100 -67.5t-60 -194.5zM557 1311h119q-22 -117 -91.5 -185.5t-164.5 -68.5q-82 0 -136.5 63.5t-54.5 161.5q0 17 2 29h117q0 -133 82 -133q89 0 127 133z" />
    <glyph glyph-name="Edotaccent" unicode="&#x116;" horiz-adv-x="641" 
d="M674 1366l-19 -158h-288l-52 -426h273l-21 -157h-272l-57 -469h288l-18 -156h-457l168 1366h455zM485 1698q41 0 68 -27t27 -67q0 -48 -37 -84.5t-86 -36.5q-38 0 -65 27t-27 67q0 50 35.5 85.5t84.5 35.5z" />
    <glyph glyph-name="edotaccent" unicode="&#x117;" horiz-adv-x="673" 
d="M602 426h-389q-8 -68 -8 -121q0 -186 100 -186q51 0 82.5 45t48.5 141h144q-35 -165 -104 -242t-181 -77q-117 0 -179.5 85t-62.5 242q0 260 103 461q41 77 108 121.5t142 44.5q103 0 160 -85t57 -237q0 -72 -21 -192zM229 543h244q8 57 8 100q0 78 -24 120t-68 42
q-59 0 -100 -67.5t-60 -194.5zM446 1274q39 0 66 -26t27 -64q0 -50 -35.5 -85.5t-85.5 -35.5q-37 0 -63.5 27t-26.5 65q0 47 35.5 83t82.5 36z" />
    <glyph glyph-name="Eogonek" unicode="&#x118;" horiz-adv-x="641" 
d="M508 0h-66q-8 -8 -14 -12q-44 -37 -71 -77t-27 -71q0 -25 18 -40t47 -15q35 0 78 18l-18 -110q-55 -21 -95 -21q-69 0 -111 34t-42 89q0 52 31.5 100t103.5 105h-291l168 1366h455l-19 -158h-288l-52 -426h273l-21 -157h-272l-57 -469h288z" />
    <glyph glyph-name="eogonek" unicode="&#x119;" horiz-adv-x="673" 
d="M502 -176l-21 -111q-46 -20 -94 -20q-69 0 -111.5 34t-42.5 89q0 92 107 174q-37 -6 -51 -6q-112 0 -174 86t-62 243q0 260 103 461q41 77 108 121.5t142 44.5q103 0 160 -85t57 -237q0 -72 -21 -192h-389q-8 -68 -8 -121q0 -188 100 -188q51 0 82.5 45.5t48.5 142.5h144
q-19 -96 -45 -150.5t-89 -129.5q-50 -60 -70 -96.5t-20 -67.5q0 -25 18.5 -40.5t47.5 -15.5q31 0 80 19zM229 543h244q8 55 8 100q0 77 -24 119.5t-68 42.5q-59 0 -100 -67.5t-60 -194.5z" />
    <glyph glyph-name="Ecaron" unicode="&#x11a;" horiz-adv-x="641" 
d="M674 1366l-19 -158h-288l-52 -426h273l-21 -157h-272l-57 -469h288l-18 -156h-457l168 1366h455zM723 1679l-268 -211l-211 211l94 93l135 -138l176 138z" />
    <glyph glyph-name="ecaron" unicode="&#x11b;" horiz-adv-x="673" 
d="M602 426h-389q-8 -68 -8 -121q0 -186 100 -186q51 0 82.5 45t48.5 141h144q-35 -165 -104 -242t-181 -77q-117 0 -179.5 85t-62.5 242q0 260 103 461q41 77 108 121.5t142 44.5q103 0 160 -85t57 -237q0 -72 -21 -192zM229 543h244q8 57 8 100q0 78 -24 120t-68 42
q-59 0 -100 -67.5t-60 -194.5zM412 1044l-207 224l94 88l131 -139l170 139l76 -92z" />
    <glyph glyph-name="Gcircumflex" unicode="&#x11c;" horiz-adv-x="845" 
d="M457 733h346l-25 -192q-20 -168 -44 -253.5t-70 -154.5q-51 -74 -123.5 -113.5t-155.5 -39.5q-146 0 -223.5 106.5t-77.5 306.5q0 189 35 401t84 320q59 133 150 202.5t208 69.5q234 0 277 -278l-172 -66q-8 100 -36.5 143.5t-88.5 43.5t-105 -46t-82 -145
q-38 -103 -67 -300t-29 -357q0 -119 38.5 -180.5t111.5 -61.5q87 0 130 77.5t68 275.5l10 88h-178zM342 1561l268 211l211 -213l-92 -91l-137 136l-176 -136z" />
    <glyph glyph-name="gcircumflex" unicode="&#x11d;" horiz-adv-x="714" 
d="M676 924l-121 -987q-16 -146 -63 -213q-79 -117 -246 -117q-114 0 -173 58t-59 169q0 24 6 76h148q-4 -25 -4 -53q0 -111 100 -111q66 0 94.5 48.5t47.5 193.5l10 92q-43 -46 -81 -66t-83 -20q-91 0 -142 78t-51 217q0 141 28.5 280.5t78.5 239.5q31 60 83.5 94.5
t112.5 34.5q49 0 84 -21t64 -69l10 76h156zM393 803q-28 0 -53 -17t-39 -45q-31 -60 -56.5 -193t-25.5 -235q0 -182 98 -182q44 0 73.5 36t49.5 114q20 69 33.5 176t13.5 184q0 76 -25 119t-69 43zM481 1356l201 -226l-92 -86l-125 144l-164 -144l-72 93z" />
    <glyph glyph-name="Gbreve" unicode="&#x11e;" horiz-adv-x="845" 
d="M457 733h346l-25 -192q-20 -168 -44 -253.5t-70 -154.5q-51 -74 -123.5 -113.5t-155.5 -39.5q-146 0 -223.5 106.5t-77.5 306.5q0 189 35 401t84 320q59 133 150 202.5t208 69.5q234 0 277 -278l-172 -66q-8 100 -36.5 143.5t-88.5 43.5t-105 -46t-82 -145
q-38 -103 -67 -300t-29 -357q0 -119 38.5 -180.5t111.5 -61.5q87 0 130 77.5t68 275.5l10 88h-178zM721 1731h123q-25 -117 -97 -185.5t-172 -68.5q-89 0 -146.5 63t-57.5 160q0 19 2 31h123q0 -134 90 -134q94 0 135 134z" />
    <glyph glyph-name="gbreve" unicode="&#x11f;" horiz-adv-x="714" 
d="M676 924l-121 -987q-16 -146 -63 -213q-79 -117 -246 -117q-114 0 -173 58t-59 169q0 24 6 76h148q-4 -25 -4 -53q0 -111 100 -111q66 0 94.5 48.5t47.5 193.5l10 92q-43 -46 -81 -66t-83 -20q-91 0 -142 78t-51 217q0 141 28.5 280.5t78.5 239.5q31 60 83.5 94.5
t112.5 34.5q49 0 84 -21t64 -69l10 76h156zM393 803q-28 0 -53 -17t-39 -45q-31 -60 -56.5 -193t-25.5 -235q0 -182 98 -182q44 0 73.5 36t49.5 114q20 69 33.5 176t13.5 184q0 76 -25 119t-69 43zM580 1311h118q-23 -117 -92 -185.5t-164 -68.5q-82 0 -136 63t-54 160v31
h119q0 -133 82 -133q86 0 127 133z" />
    <glyph glyph-name="Gdotaccent" unicode="&#x120;" horiz-adv-x="845" 
d="M457 733h346l-25 -192q-20 -168 -44 -253.5t-70 -154.5q-51 -74 -123.5 -113.5t-155.5 -39.5q-146 0 -223.5 106.5t-77.5 306.5q0 189 35 401t84 320q59 133 150 202.5t208 69.5q234 0 277 -278l-172 -66q-8 100 -36.5 143.5t-88.5 43.5t-105 -46t-82 -145
q-38 -103 -67 -300t-29 -357q0 -119 38.5 -180.5t111.5 -61.5q87 0 130 77.5t68 275.5l10 88h-178zM602 1698q38 0 65 -27t27 -67q0 -48 -37 -84.5t-86 -36.5q-38 0 -65 27t-27 67q0 49 36.5 85t86.5 36z" />
    <glyph glyph-name="gdotaccent" unicode="&#x121;" horiz-adv-x="714" 
d="M676 924l-121 -987q-16 -146 -63 -213q-79 -117 -246 -117q-114 0 -173 58t-59 169q0 24 6 76h148q-4 -25 -4 -53q0 -111 100 -111q66 0 94.5 48.5t47.5 193.5l10 92q-43 -46 -81 -66t-83 -20q-91 0 -142 78t-51 217q0 141 28.5 280.5t78.5 239.5q31 60 83.5 94.5
t112.5 34.5q49 0 84 -21t64 -69l10 76h156zM393 803q-28 0 -53 -17t-39 -45q-31 -60 -56.5 -193t-25.5 -235q0 -182 98 -182q44 0 73.5 36t49.5 114q20 69 33.5 176t13.5 184q0 76 -25 119t-69 43zM471 1274q40 0 66 -26t26 -66q0 -47 -36 -83t-83 -36q-38 0 -65 27t-27 65
q0 47 36 83t83 36z" />
    <glyph glyph-name="Gcommaaccent" unicode="&#x122;" horiz-adv-x="845" 
d="M457 733h346l-25 -192q-20 -168 -44 -253.5t-70 -154.5q-51 -74 -123.5 -113.5t-155.5 -39.5q-146 0 -223.5 106.5t-77.5 306.5q0 189 35 401t84 320q59 133 150 202.5t208 69.5q234 0 277 -278l-172 -66q-8 100 -36.5 143.5t-88.5 43.5t-105 -46t-82 -145
q-38 -103 -67 -300t-29 -357q0 -119 38.5 -180.5t111.5 -61.5q87 0 130 77.5t68 275.5l10 88h-178zM160 -397l149 307l133 -33l-190 -299z" />
    <glyph glyph-name="gcommaaccent" unicode="&#x123;" horiz-adv-x="714" 
d="M676 924l-121 -987q-16 -146 -63 -213q-79 -117 -246 -117q-114 0 -173 58t-59 169q0 24 6 76h148q-4 -25 -4 -53q0 -111 100 -111q66 0 94.5 48.5t47.5 193.5l10 92q-43 -46 -81 -66t-83 -20q-91 0 -142 78t-51 217q0 141 28.5 280.5t78.5 239.5q31 60 83.5 94.5
t112.5 34.5q49 0 84 -21t64 -69l10 76h156zM393 803q-28 0 -53 -17t-39 -45q-31 -60 -56.5 -193t-25.5 -235q0 -182 98 -182q44 0 73.5 36t49.5 114q20 69 33.5 176t13.5 184q0 76 -25 119t-69 43zM637 1346l-148 -302l-133 33l187 295z" />
    <glyph glyph-name="Hcircumflex" unicode="&#x124;" horiz-adv-x="847" 
d="M850 1366l-168 -1366h-168l82 666h-295l-82 -666h-168l168 1366h168l-68 -543h295l68 543h168zM315 1561l271 211l209 -213l-93 -91l-137 136l-176 -136z" />
    <glyph glyph-name="hcircumflex" unicode="&#x125;" horiz-adv-x="710" 
d="M377 1485l-82 -656q92 111 203 111q69 0 109 -41.5t40 -112.5q0 -62 -8 -122l-82 -664h-156l76 623q6 59 6 94t-21.5 57.5t-53.5 22.5q-62 0 -101 -56q-29 -47 -41 -147l-71 -594h-158l182 1485h158zM188 1661l269 211l211 -213l-95 -92l-135 137l-176 -137z" />
    <glyph glyph-name="Hbar" unicode="&#x126;" horiz-adv-x="847" 
d="M920 1163l-17 -133h-94l-127 -1030h-168l82 666h-295l-82 -666h-168l127 1030h-96l16 133h97l24 203h168l-27 -205h297l25 205h168l-25 -203h95zM346 1032l-27 -209h295l27 209h-295z" />
    <glyph glyph-name="hbar" unicode="&#x127;" horiz-adv-x="714" 
d="M354 1270h158l-14 -121h-158l-41 -320q92 111 203 111q69 0 109 -41.5t40 -112.5q0 -62 -8 -122l-82 -664h-155l75 623q6 59 6 94t-21.5 57.5t-53.5 22.5q-62 0 -101 -56q-29 -47 -41 -147l-71 -594h-158l141 1149h-86l15 121h86l26 215h158z" />
    <glyph glyph-name="Itilde" unicode="&#x128;" horiz-adv-x="385" 
d="M387 1366l-168 -1366h-168l168 1366h168zM465 1677h121q-12 -85 -56.5 -132.5t-111.5 -47.5q-57 0 -133 43q-36 19 -56 19q-28 0 -41 -56h-118q38 178 161 178q53 0 107 -32q56 -29 82 -29q17 0 27 13t18 44z" />
    <glyph glyph-name="itilde" unicode="&#x129;" horiz-adv-x="346" 
d="M307 924l-112 -924h-158l113 924h157zM385 1255h119q-14 -85 -57.5 -134.5t-104.5 -49.5q-58 0 -125 45q-31 21 -49 21q-26 0 -39 -58h-119q19 86 59 133.5t95 47.5q49 0 133 -48q26 -16 45 -16q29 0 43 59z" />
    <glyph glyph-name="Imacron" unicode="&#x12a;" horiz-adv-x="385" 
d="M387 1366l-168 -1366h-168l168 1366h168zM121 1518l14 127h404l-15 -127h-403z" />
    <glyph glyph-name="imacron" unicode="&#x12b;" horiz-adv-x="346" 
d="M307 924l-112 -924h-158l113 924h157zM55 1098l17 125h377l-17 -125h-377z" />
    <glyph glyph-name="Ibreve" unicode="&#x12c;" horiz-adv-x="385" 
d="M387 1366l-168 -1366h-168l168 1366h168zM451 1731h120q-23 -117 -95.5 -185.5t-170.5 -68.5q-89 0 -147 64.5t-58 162.5q0 15 2 27h121q0 -134 90 -134q94 0 138 134z" />
    <glyph glyph-name="ibreve" unicode="&#x12d;" horiz-adv-x="346" 
d="M307 924l-112 -924h-158l113 924h157zM365 1311h118q-22 -116 -88 -185t-155 -69q-85 0 -133.5 68t-47.5 186h119q2 -69 18.5 -101t51.5 -32q79 0 117 133z" />
    <glyph glyph-name="Iogonek" unicode="&#x12e;" horiz-adv-x="385" 
d="M195 0l-9 -6q-104 -84 -104 -152q0 -25 18 -40t47 -15q34 0 80 18l-20 -110q-49 -21 -94 -21q-69 0 -111.5 34t-42.5 89q0 52 31 98t104 105h-43l166 1366h168l-168 -1366h-22z" />
    <glyph glyph-name="iogonek" unicode="&#x12f;" horiz-adv-x="346" 
d="M307 924l-112 -924q-103 -80 -103 -158q0 -23 17 -39t43 -16q33 0 73 18l-20 -110q-53 -23 -90 -23q-63 0 -104.5 35t-41.5 88q0 113 127 205h-59l115 924h155zM279 1309q39 0 66.5 -28.5t27.5 -68.5q0 -50 -37 -87.5t-86 -37.5q-40 0 -67 29t-27 70q0 50 37 86.5
t86 36.5z" />
    <glyph glyph-name="Idotaccent" unicode="&#x130;" horiz-adv-x="385" 
d="M387 1366l-168 -1366h-168l168 1366h168zM344 1698q41 0 67.5 -27t26.5 -67q0 -49 -36.5 -85t-86.5 -36q-38 0 -65 27t-27 67q0 49 35.5 85t85.5 36z" />
    <glyph glyph-name="dotlessi" unicode="&#x131;" horiz-adv-x="346" 
d="M307 924l-112 -924h-158l113 924h157z" />
    <glyph glyph-name="IJ" unicode="&#x132;" horiz-adv-x="884" 
d="M387 1366l-168 -1366h-168l168 1366h168zM887 1366l-133 -1075q-10 -92 -21.5 -133t-36.5 -78q-32 -47 -89 -73.5t-126 -26.5q-82 0 -153 36l20 174q57 -63 123 -63q57 0 84 41q22 35 35 139l129 1059h168z" />
    <glyph glyph-name="ij" unicode="&#x133;" horiz-adv-x="694" 
d="M307 924l-112 -924h-158l113 924h157zM279 1309q39 0 66.5 -28.5t27.5 -68.5q0 -51 -36.5 -88t-86.5 -37q-39 0 -66.5 28.5t-27.5 68.5q0 51 36.5 88t86.5 37zM655 924l-161 -1307h-156l160 1307h157zM627 1309q39 0 66.5 -28.5t27.5 -68.5q0 -51 -37 -88t-88 -37
q-38 0 -66 28.5t-28 68.5q0 51 37 88t88 37z" />
    <glyph glyph-name="Jcircumflex" unicode="&#x134;" horiz-adv-x="503" 
d="M506 1366l-133 -1075q-10 -92 -21.5 -133t-36.5 -78q-32 -47 -89 -73.5t-126 -26.5q-82 0 -153 36l20 174q57 -63 123 -63q57 0 81.5 36.5t37.5 143.5l129 1059h168zM188 1561l269 211l209 -213l-93 -91l-135 136l-176 -136z" />
    <glyph glyph-name="jcircumflex" unicode="&#x135;" horiz-adv-x="352" 
d="M313 924l-159 -1307h-158l160 1307h157zM266 1356l199 -226l-92 -86l-125 144l-164 -144l-72 93z" />
    <glyph glyph-name="Kcommaaccent" unicode="&#x136;" horiz-adv-x="737" 
d="M821 1366l-356 -645l201 -721h-185l-178 690l-84 -690h-168l168 1366h168l-76 -616l332 616h178zM131 -397l152 307l131 -33l-191 -299z" />
    <glyph glyph-name="kcommaaccent" unicode="&#x137;" horiz-adv-x="677" 
d="M377 1485l-115 -922l246 361h172l-293 -404l244 -520h-185l-198 438l-53 -438h-158l182 1485h158zM375 -117l-180 -289l-95 27l146 295z" />
    <glyph glyph-name="kgreenlandic" unicode="&#x138;" horiz-adv-x="677" 
d="M150 924h157l-45 -359l246 359h172l-293 -404l244 -520h-185l-198 438l-53 -438h-158z" />
    <glyph glyph-name="Lacute" unicode="&#x139;" horiz-adv-x="569" 
d="M387 1366l-149 -1208h288l-20 -158h-455l168 1366h168zM489 1772l109 -101l-254 -203l-74 66z" />
    <glyph glyph-name="lacute" unicode="&#x13a;" horiz-adv-x="346" 
d="M377 1485l-182 -1485h-158l182 1485h158zM440 1858l103 -99l-240 -205l-74 68z" />
    <glyph glyph-name="Lcommaaccent" unicode="&#x13b;" horiz-adv-x="569" 
d="M387 1366l-149 -1208h288l-20 -158h-455l168 1366h168zM66 -397l151 307l131 -33l-188 -299z" />
    <glyph glyph-name="lcommaaccent" unicode="&#x13c;" horiz-adv-x="346" 
d="M377 1485l-182 -1485h-158l182 1485h158zM174 -117l-182 -289l-92 27l143 295z" />
    <glyph glyph-name="Lcaron" unicode="&#x13d;" horiz-adv-x="589" 
d="M387 1366l-149 -1208h288l-20 -158h-455l168 1366h168zM428 1059l156 319l131 -32l-193 -314z" />
    <glyph glyph-name="lcaron" unicode="&#x13e;" horiz-adv-x="575" 
d="M377 1485l-182 -1485h-158l182 1485h158zM414 1165l153 320l133 -33l-192 -313z" />
    <glyph glyph-name="Ldot" unicode="&#x13f;" horiz-adv-x="587" 
d="M387 1366l-149 -1208h288l-20 -158h-455l168 1366h168zM532 834q47 0 80 -34t33 -83q0 -63 -44.5 -109.5t-104.5 -46.5q-47 0 -80 34.5t-33 84.5q0 62 44.5 108t104.5 46z" />
    <glyph glyph-name="ldot" unicode="&#x140;" horiz-adv-x="614" 
d="M377 1485l-182 -1485h-158l182 1485h158zM528 848q50 0 83.5 -34t33.5 -85q0 -62 -46 -108t-107 -46q-49 0 -83 34.5t-34 84.5q0 62 46 108t107 46z" />
    <glyph glyph-name="Lslash" unicode="&#x141;" horiz-adv-x="569" 
d="M518 969l-20 -166l-201 -164l-59 -481h288l-20 -158h-455l68 543l-113 -97l21 168l112 97l80 655h168l-70 -559z" />
    <glyph glyph-name="lslash" unicode="&#x142;" horiz-adv-x="397" 
d="M307 754l-92 -754h-158l82 666l-112 -97l18 158l115 98l80 660h157l-69 -574l112 97l-20 -158z" />
    <glyph glyph-name="Nacute" unicode="&#x143;" horiz-adv-x="860" 
d="M860 1366l-168 -1366h-151l-199 879q-20 112 -23 135v-21q0 -65 -14 -202l-98 -791h-156l168 1366h152l202 -897q0 -1 1 -4.5t2 -9t2 -9.5q0 -1 1 -7l3 -18t4 -22q5 -28 8 -43q-2 16 -2 39q0 54 10 156l100 815h158zM692 1772l109 -101l-254 -203l-74 66z" />
    <glyph glyph-name="nacute" unicode="&#x144;" horiz-adv-x="710" 
d="M307 924l-12 -95q90 109 205 109q69 0 108 -42.5t39 -117.5q0 -28 -8 -114l-82 -664h-156l76 623q8 86 8 94q0 34 -21.5 56t-53.5 22q-29 0 -57.5 -15.5t-45.5 -40.5q-28 -47 -41 -145l-71 -594h-158l113 924h157zM406 1044l-80 60l219 254l121 -90z" />
    <glyph glyph-name="Ncommaaccent" unicode="&#x145;" horiz-adv-x="860" 
d="M860 1366l-168 -1366h-151l-199 879q-20 112 -23 135v-21q0 -65 -14 -202l-98 -791h-156l168 1366h152l202 -897q0 -1 1 -4.5t2 -9t2 -9.5q0 -1 1 -7l3 -18t4 -22q5 -28 8 -43q-2 16 -2 39q0 54 10 156l100 815h158zM166 -397l149 307l134 -33l-191 -299z" />
    <glyph glyph-name="ncommaaccent" unicode="&#x146;" horiz-adv-x="710" 
d="M307 924l-12 -95q90 109 205 109q69 0 108 -42.5t39 -117.5q0 -28 -8 -114l-82 -664h-156l76 623q8 86 8 94q0 34 -21.5 56t-53.5 22q-29 0 -57.5 -15.5t-45.5 -40.5q-28 -47 -41 -145l-71 -594h-158l113 924h157zM362 -117l-180 -289l-94 27l145 295z" />
    <glyph glyph-name="Ncaron" unicode="&#x147;" horiz-adv-x="860" 
d="M860 1366l-168 -1366h-151l-199 879q-20 112 -23 135v-21q0 -65 -14 -202l-98 -791h-156l168 1366h152l202 -897q0 -1 1 -4.5t2 -9t2 -9.5q0 -1 1 -7l3 -18t4 -22q5 -28 8 -43q-2 16 -2 39q0 54 10 156l100 815h158zM819 1679l-268 -211l-209 211l92 93l135 -138l176 138
z" />
    <glyph glyph-name="ncaron" unicode="&#x148;" horiz-adv-x="710" 
d="M307 924l-12 -95q90 109 205 109q69 0 108 -42.5t39 -117.5q0 -28 -8 -114l-82 -664h-156l76 623q8 86 8 94q0 34 -21.5 56t-53.5 22q-29 0 -57.5 -15.5t-45.5 -40.5q-28 -47 -41 -145l-71 -594h-158l113 924h157zM418 1044l-201 228l94 84l123 -142l166 142l72 -92z" />
    <glyph glyph-name="napostrophe" unicode="&#x149;" horiz-adv-x="919" 
d="M504 1366l-260 -448l-111 28l207 461zM518 924l-12 -95q90 109 205 109q69 0 108 -42.5t39 -117.5q0 -28 -8 -114l-82 -664h-158l78 623q8 90 8 94q0 34 -21.5 56t-53.5 22q-30 0 -58 -15t-45 -41q-28 -37 -41 -145l-74 -594h-155l112 924h158z" />
    <glyph glyph-name="Eng" unicode="&#x14a;" horiz-adv-x="847" 
d="M387 1366l-18 -141q60 84 121 122.5t133 38.5q91 0 141.5 -61t50.5 -168q0 -61 -14 -176l-107 -881q-12 -98 -25 -149t-36 -90q-35 -62 -93 -97.5t-122 -35.5q-51 0 -103 24l21 162q34 -27 67 -27q22 0 46.5 13.5t37.5 33.5q22 30 35 136l109 886q12 91 12 150
q0 54 -29 87.5t-75 33.5q-40 0 -79.5 -22.5t-64.5 -57.5q-26 -40 -39.5 -90.5t-25.5 -155.5l-111 -901h-168l168 1366h168z" />
    <glyph glyph-name="eng" unicode="&#x14b;" horiz-adv-x="710" 
d="M307 924l-12 -95q90 109 205 109q69 0 108 -42.5t39 -117.5q0 -28 -8 -114l-84 -684q-30 -252 -233 -252q-45 0 -89 16l19 164q34 -29 61 -29q38 0 64 33q16 25 24 94l76 617q8 86 8 94q0 34 -21.5 56t-53.5 22q-29 0 -57.5 -15.5t-45.5 -40.5q-28 -47 -41 -145l-71 -594
h-158l113 924h157z" />
    <glyph glyph-name="Omacron" unicode="&#x14c;" horiz-adv-x="899" 
d="M567 1386q140 0 218.5 -119.5t78.5 -334.5q0 -182 -34 -374.5t-87 -309.5q-58 -129 -150.5 -198.5t-205.5 -69.5q-146 0 -223.5 119t-77.5 345q0 203 42 403.5t108 321.5q59 103 145.5 160t185.5 57zM543 1227q-106 0 -174 -148q-42 -95 -75.5 -286.5t-33.5 -341.5
q0 -306 150 -306q107 0 176 150q43 99 74.5 297.5t31.5 374.5q0 124 -39 192t-110 68zM358 1518l17 127h463l-17 -127h-463z" />
    <glyph glyph-name="omacron" unicode="&#x14d;" horiz-adv-x="698" 
d="M412 940q101 0 155 -63q35 -38 56.5 -110.5t21.5 -150.5q0 -108 -22 -232t-54 -194q-92 -204 -278 -204q-115 0 -175.5 88.5t-60.5 257.5q0 122 29 245t76 205q44 77 109 117.5t143 40.5zM393 795q-28 0 -55.5 -20t-42.5 -52q-35 -67 -57.5 -180t-22.5 -217
q0 -195 96 -195q77 0 123 139q49 152 49 340q0 185 -90 185zM217 1098l16 125h445l-16 -125h-445z" />
    <glyph glyph-name="Obreve" unicode="&#x14e;" horiz-adv-x="899" 
d="M567 1386q140 0 218.5 -119.5t78.5 -334.5q0 -182 -34 -374.5t-87 -309.5q-58 -129 -150.5 -198.5t-205.5 -69.5q-146 0 -223.5 119.5t-77.5 346.5q0 201 42 401.5t108 321.5q59 103 145.5 160t185.5 57zM543 1227q-103 0 -174 -148q-42 -95 -75.5 -286.5t-33.5 -341.5
q0 -306 150 -306q107 0 176 150q43 97 74.5 296.5t31.5 375.5q0 124 -39 192t-110 68zM725 1731h123q-25 -117 -97 -185.5t-171 -68.5q-89 0 -147 64.5t-58 162.5q0 15 2 27h121q0 -134 90 -134q93 0 137 134z" />
    <glyph glyph-name="obreve" unicode="&#x14f;" horiz-adv-x="698" 
d="M412 940q101 0 155 -63q35 -38 56.5 -110.5t21.5 -152.5q0 -108 -22 -231t-54 -193q-92 -204 -278 -204q-115 0 -175.5 88.5t-60.5 257.5q0 122 29 245t76 205q44 77 109 117.5t143 40.5zM393 795q-28 0 -55.5 -20t-42.5 -52q-35 -69 -57.5 -182.5t-22.5 -223.5
q0 -88 25 -137t71 -49q78 0 123 139q49 152 49 340q0 185 -90 185zM569 1311h117q-22 -117 -90.5 -185.5t-163.5 -68.5q-83 0 -137.5 63t-54.5 160q0 17 2 31h118q0 -64 21 -98.5t59 -34.5q88 0 129 133z" />
    <glyph glyph-name="Ohungarumlaut" unicode="&#x150;" horiz-adv-x="899" 
d="M567 1386q140 0 218.5 -119.5t78.5 -334.5q0 -182 -34 -374.5t-87 -309.5q-58 -129 -150.5 -198.5t-205.5 -69.5q-146 0 -223.5 119t-77.5 345q0 203 42 403.5t108 321.5q59 103 145.5 160t185.5 57zM543 1227q-106 0 -174 -148q-42 -95 -75.5 -286.5t-33.5 -341.5
q0 -306 150 -306q107 0 176 150q43 99 74.5 297.5t31.5 374.5q0 124 -39 192t-110 68zM848 1772l104 -78l-219 -226l-65 56zM596 1772l104 -78l-219 -226l-65 56z" />
    <glyph glyph-name="ohungarumlaut" unicode="&#x151;" horiz-adv-x="698" 
d="M412 940q101 0 155 -63q35 -38 56.5 -110.5t21.5 -150.5q0 -108 -22 -232t-54 -194q-92 -204 -278 -204q-115 0 -175.5 88.5t-60.5 257.5q0 122 29 245t76 205q44 77 109 117.5t143 40.5zM393 795q-28 0 -55.5 -20t-42.5 -52q-35 -67 -57.5 -180t-22.5 -217
q0 -195 96 -195q77 0 123 139q49 152 49 340q0 185 -90 185zM563 1044l-71 56l170 256l106 -72zM332 1044l-72 56l170 256l107 -72z" />
    <glyph glyph-name="OE" unicode="&#x152;" horiz-adv-x="1171" 
d="M582 0l14 131q-90 -151 -240 -151q-107 0 -176 75q-43 47 -68.5 153t-25.5 234q0 217 43 417t117 333q52 92 130.5 143t166.5 51q66 0 112 -31.5t80 -97.5l13 109h456l-18 -156h-295l-51 -424h278l-18 -159h-281l-57 -469h295l-19 -158h-456zM541 1229q-52 0 -92 -34
t-74 -108q-50 -111 -84.5 -306.5t-34.5 -368.5q0 -129 38 -200t107 -71q111 0 174 148q40 88 72.5 290.5t32.5 360.5q0 149 -34 219t-105 70z" />
    <glyph glyph-name="oe" unicode="&#x153;" horiz-adv-x="1071" 
d="M1001 426h-397q-8 -65 -8 -109q0 -91 30 -143.5t81 -52.5q50 0 81.5 48.5t40.5 139.5h142q-22 -154 -97.5 -238.5t-191.5 -84.5q-72 0 -116.5 38.5t-73.5 127.5q-53 -91 -101.5 -128.5t-114.5 -37.5q-52 0 -98 28t-74 74q-51 87 -51 242q0 168 46.5 313.5t121.5 216.5
q89 80 182 80q64 0 104.5 -39.5t65.5 -124.5q21 43 58 80q51 49 86.5 66.5t85.5 17.5q100 0 157.5 -85.5t57.5 -233.5q0 -62 -17 -195zM623 543h247q7 68 7 84q0 79 -27 127.5t-70 48.5q-59 0 -100.5 -68.5t-56.5 -191.5zM381 795q-55 0 -94 -72q-35 -72 -56.5 -176
t-21.5 -201q0 -215 92 -215q70 0 120 138.5t50 332.5q0 92 -23.5 142.5t-66.5 50.5z" />
    <glyph glyph-name="Racute" unicode="&#x154;" horiz-adv-x="817" 
d="M313 657l-82 -657h-174l168 1366h205q122 0 188 -19.5t105 -68.5q65 -77 65 -213q0 -114 -36.5 -208t-102.5 -148q-60 -46 -151 -64l209 -645h-185zM383 1221l-55 -449q20 -2 57 -2q118 0 166 57q28 35 45.5 98t17.5 126q0 97 -40 133.5t-144 36.5h-47zM625 1772
l108 -101l-254 -203l-73 66z" />
    <glyph glyph-name="racute" unicode="&#x155;" horiz-adv-x="446" 
d="M37 0l113 924h157l-14 -119q42 70 87 103t99 36l-20 -170q-24 4 -27 4q-37 0 -72 -19.5t-57 -51.5q-30 -47 -43 -168l-65 -539h-158zM309 1044l-80 60l211 252l119 -88z" />
    <glyph glyph-name="Rcommaaccent" unicode="&#x156;" horiz-adv-x="817" 
d="M313 657l-82 -657h-174l168 1366h205q122 0 188 -19.5t105 -68.5q65 -77 65 -213q0 -114 -36.5 -208t-102.5 -148q-60 -46 -151 -64l209 -645h-185zM383 1221l-55 -449q20 -2 57 -2q118 0 166 57q28 35 45.5 98t17.5 126q0 97 -40 133.5t-144 36.5h-47zM158 -397l151 307
l131 -33l-188 -299z" />
    <glyph glyph-name="rcommaaccent" unicode="&#x157;" horiz-adv-x="446" 
d="M37 0l113 924h157l-14 -119q42 70 87 103t99 36l-20 -170q-24 4 -27 4q-37 0 -72 -19.5t-57 -51.5q-30 -47 -43 -168l-67 -539h-156zM172 -117l-182 -289l-92 27l143 295z" />
    <glyph glyph-name="Rcaron" unicode="&#x158;" horiz-adv-x="817" 
d="M313 657l-82 -657h-174l168 1366h205q122 0 188 -19.5t105 -68.5q65 -77 65 -213q0 -114 -36.5 -208t-102.5 -148q-60 -46 -151 -64l209 -645h-185zM383 1221l-55 -449q20 -2 57 -2q118 0 166 57q28 35 45.5 98t17.5 126q0 97 -40 133.5t-144 36.5h-47zM758 1679
l-269 -211l-210 211l92 93l137 -138l176 138z" />
    <glyph glyph-name="rcaron" unicode="&#x159;" horiz-adv-x="446" 
d="M37 0l113 924h157l-14 -119q42 70 87 103t99 36l-20 -170q-24 4 -27 4q-37 0 -72 -19.5t-57 -51.5q-30 -47 -43 -168l-65 -539h-158zM313 1044l-196 228l94 84l119 -142l159 142l72 -92z" />
    <glyph glyph-name="Sacute" unicode="&#x15a;" horiz-adv-x="724" 
d="M711 1315l-23 -193q-46 57 -88 81t-96 24q-86 0 -144.5 -65.5t-58.5 -160.5q0 -66 29.5 -114.5t107.5 -108.5q139 -109 185.5 -179t46.5 -171q0 -119 -55.5 -222.5t-148.5 -164.5t-200 -61q-122 0 -209 69l25 193q93 -99 197 -99q92 0 156.5 72t64.5 174
q0 67 -31.5 111.5t-134.5 124.5q-116 89 -160.5 163t-44.5 175q0 92 37.5 180t103.5 151q100 92 236 92q108 0 205 -71zM645 1772l109 -101l-254 -203l-74 66z" />
    <glyph glyph-name="sacute" unicode="&#x15b;" horiz-adv-x="544" 
d="M543 874l-49 -155q-64 84 -134 84q-48 0 -81 -34t-33 -85q0 -38 21 -69t79 -78q83 -67 112 -116.5t29 -121.5q0 -128 -86 -220.5t-206 -92.5q-106 0 -193 73l51 152q40 -44 72 -62t70 -18q55 0 94 41t39 100q0 37 -22.5 71.5t-76.5 80.5q-80 68 -112.5 122t-32.5 120
q0 116 81.5 195t199.5 79q52 0 92.5 -15t85.5 -51zM360 1044l-79 60l213 252l116 -88z" />
    <glyph glyph-name="Scircumflex" unicode="&#x15c;" horiz-adv-x="724" 
d="M711 1315l-23 -193q-46 57 -88 81t-96 24q-86 0 -144.5 -65.5t-58.5 -160.5q0 -66 29.5 -114.5t107.5 -108.5q139 -109 185.5 -179t46.5 -171q0 -119 -55.5 -222.5t-148.5 -164.5t-200 -61q-122 0 -209 69l25 193q93 -99 197 -99q92 0 156.5 72t64.5 174
q0 67 -31.5 111.5t-134.5 124.5q-116 89 -160.5 163t-44.5 175q0 92 37.5 180t103.5 151q100 92 236 92q108 0 205 -71zM270 1561l271 211l209 -213l-93 -91l-137 136l-174 -136z" />
    <glyph glyph-name="scircumflex" unicode="&#x15d;" horiz-adv-x="544" 
d="M543 874l-49 -155q-61 84 -134 84q-47 0 -80.5 -35t-33.5 -84q0 -38 21 -69t79 -78q83 -67 112 -116.5t29 -121.5q0 -128 -86 -220.5t-206 -92.5q-105 0 -193 73l51 152q40 -44 72 -62t70 -18q55 0 94 41t39 100q0 37 -22.5 71.5t-76.5 80.5q-81 67 -113 121t-32 121
q0 116 81.5 195t199.5 79q52 0 92.5 -15t85.5 -51zM406 1356l200 -226l-92 -86l-125 144l-164 -144l-71 93z" />
    <glyph glyph-name="Scedilla" unicode="&#x15e;" horiz-adv-x="727" 
d="M711 1315l-23 -193q-46 57 -88 81t-96 24q-85 0 -144 -65.5t-59 -160.5q0 -66 30 -114.5t107 -108.5q139 -109 185.5 -179t46.5 -171q0 -119 -55 -222.5t-148 -164.5t-201 -61q-122 0 -209 69l25 193q93 -99 197 -99q92 0 156.5 72t64.5 174q0 67 -31.5 111.5
t-134.5 124.5q-117 89 -161 162t-44 176q0 177 110 300t267 123q108 0 205 -71zM72 -360l172 274l116 -61l-208 -259z" />
    <glyph glyph-name="scedilla" unicode="&#x15f;" horiz-adv-x="544" 
d="M535 874l-50 -155q-64 84 -133 84q-49 0 -81.5 -34t-32.5 -85q0 -40 20 -70t80 -77q83 -67 112 -116.5t29 -121.5q0 -128 -86.5 -220.5t-206.5 -92.5q-105 0 -192 73l51 152q40 -44 71.5 -62t69.5 -18q55 0 94 41t39 100q0 37 -22 72t-76 80q-80 68 -112.5 122t-32.5 120
q0 116 81 195t199 79q96 0 179 -66zM-27 -344l164 266l117 -61l-201 -250z" />
    <glyph glyph-name="Scaron" unicode="&#x160;" horiz-adv-x="727" 
d="M711 1315l-23 -193q-46 57 -88 81t-96 24q-86 0 -144.5 -65.5t-58.5 -160.5q0 -66 29.5 -114.5t107.5 -108.5q139 -109 185.5 -179t46.5 -171q0 -119 -55.5 -222.5t-148.5 -164.5t-200 -61q-122 0 -209 69l25 193q93 -99 197 -99q92 0 156.5 72t64.5 174
q0 67 -31.5 111.5t-134.5 124.5q-116 89 -160.5 163t-44.5 175q0 92 37.5 180t103.5 151q100 92 236 92q108 0 205 -71zM772 1679l-268 -211l-209 211l92 93l135 -138l176 138z" />
    <glyph glyph-name="scaron" unicode="&#x161;" horiz-adv-x="544" 
d="M543 874l-49 -155q-61 84 -134 84q-47 0 -80.5 -35t-33.5 -84q0 -38 21 -69t79 -78q83 -67 112 -116.5t29 -121.5q0 -128 -86 -220.5t-206 -92.5q-105 0 -193 73l51 152q40 -44 72 -62t70 -18q55 0 94 41t39 100q0 37 -22.5 71.5t-76.5 80.5q-81 67 -113 121t-32 121
q0 116 81.5 195t199.5 79q52 0 92.5 -15t85.5 -51zM367 1044l-199 228l92 84l123 -142l166 142l72 -92z" />
    <glyph glyph-name="Tcommaaccent" unicode="&#x162;" horiz-adv-x="579" 
d="M688 1366l-20 -156h-203l-150 -1210h-168l150 1210h-205l21 156h575zM6 -397l152 307l131 -33l-191 -299z" />
    <glyph glyph-name="tcommaaccent" unicode="&#x163;" horiz-adv-x="421" 
d="M475 924l-16 -140h-137l-97 -784h-157l96 784h-92l16 140h94l31 254h158l-33 -254h137zM207 -117l-182 -289l-93 27l144 295z" />
    <glyph glyph-name="Tcaron" unicode="&#x164;" horiz-adv-x="579" 
d="M686 1366l-18 -156h-205l-148 -1210h-168l150 1210h-205l19 156h575zM678 1679l-268 -211l-211 211l92 93l137 -138l176 138z" />
    <glyph glyph-name="tcaron" unicode="&#x165;" horiz-adv-x="600" 
d="M475 924l-16 -140h-137l-97 -784h-157l96 784h-94l18 140h92l33 254h156l-31 -254h137zM436 1116l156 320l131 -33l-191 -313z" />
    <glyph glyph-name="Tbar" unicode="&#x166;" horiz-adv-x="579" 
d="M606 991l-16 -133h-170l-105 -858h-168l107 858h-170l16 133h170l27 219h-205l21 156h575l-20 -156h-205l-27 -219h170z" />
    <glyph glyph-name="tbar" unicode="&#x167;" horiz-adv-x="421" 
d="M438 623l-14 -121h-137l-62 -502h-155l61 502h-94l14 121h94l21 161h-94l16 140h94l31 254h158l-31 -254h137l-18 -140h-137l-21 -161h137z" />
    <glyph glyph-name="Utilde" unicode="&#x168;" horiz-adv-x="851" 
d="M854 1366l-119 -975q-12 -102 -30 -160t-52 -110q-43 -67 -118.5 -104t-169.5 -37q-130 0 -203.5 68t-73.5 190q0 50 14 165l117 963h168l-115 -934q-14 -129 -14 -160q0 -62 34.5 -97.5t94.5 -35.5q39 0 74 17.5t55 46.5q21 29 32 74t25 155l115 934h166zM707 1677h120
q-13 -86 -57.5 -133t-110.5 -47q-59 0 -135 43q-32 19 -53 19q-28 0 -41 -56h-121q19 87 60.5 132.5t101.5 45.5q52 0 109 -32q53 -29 82 -29q17 0 27 13t18 44z" />
    <glyph glyph-name="utilde" unicode="&#x169;" horiz-adv-x="712" 
d="M150 924h157l-71 -580q-11 -90 -11 -113q0 -47 23.5 -72.5t66.5 -25.5q59 0 87.5 46t41.5 165l72 580h158l-84 -674q-15 -121 -95 -192.5t-200 -71.5q-102 0 -167 56.5t-65 145.5q0 25 7 72zM571 1253h121q-13 -81 -58 -134.5t-99 -53.5q-55 0 -138 53q-31 17 -47 17
q-15 0 -25.5 -15t-13.5 -41h-121q19 83 62.5 130.5t101.5 47.5q47 0 99 -34q53 -31 75 -31q34 0 43 61z" />
    <glyph glyph-name="Umacron" unicode="&#x16a;" horiz-adv-x="851" 
d="M854 1366l-119 -975q-12 -102 -30 -160t-52 -110q-43 -67 -118.5 -104t-169.5 -37q-130 0 -203.5 68t-73.5 190q0 50 14 165l117 963h168l-115 -934q-14 -129 -14 -160q0 -62 34.5 -97.5t94.5 -35.5q39 0 74 17.5t55 46.5q21 29 32 74t25 155l115 934h166zM324 1518
l16 127h463l-17 -127h-462z" />
    <glyph glyph-name="umacron" unicode="&#x16b;" horiz-adv-x="712" 
d="M150 924h157l-71 -580q-11 -90 -11 -113q0 -47 23.5 -72.5t66.5 -25.5q59 0 86.5 45t42.5 166l72 580h158l-84 -674q-15 -121 -95 -192.5t-200 -71.5q-102 0 -167 56.5t-65 145.5q0 25 7 72zM211 1098l14 125h445l-15 -125h-444z" />
    <glyph glyph-name="Ubreve" unicode="&#x16c;" horiz-adv-x="851" 
d="M854 1366l-119 -975q-12 -102 -30 -160t-52 -110q-43 -67 -118.5 -104t-169.5 -37q-130 0 -203.5 68t-73.5 190q0 50 14 165l117 963h168l-115 -934q-14 -129 -14 -160q0 -62 34.5 -97.5t94.5 -35.5q39 0 74 17.5t55 46.5q21 29 32 74t25 155l115 934h166zM696 1731h123
q-23 -117 -95.5 -185.5t-172.5 -68.5q-87 0 -145 64.5t-58 162.5v27h123q0 -134 88 -134q96 0 137 134z" />
    <glyph glyph-name="ubreve" unicode="&#x16d;" horiz-adv-x="712" 
d="M150 924h157l-71 -580q-11 -90 -11 -113q0 -47 23.5 -72.5t66.5 -25.5q59 0 87.5 46t41.5 165l72 580h158l-84 -674q-15 -121 -95 -192.5t-200 -71.5q-102 0 -167 56.5t-65 145.5q0 25 7 72zM567 1311h117q-22 -117 -90.5 -185.5t-163.5 -68.5q-83 0 -137.5 63t-54.5 160
q0 17 2 31h118q0 -64 21 -98.5t59 -34.5q88 0 129 133z" />
    <glyph glyph-name="Uring" unicode="&#x16e;" horiz-adv-x="851" 
d="M854 1366l-119 -975q-12 -102 -30 -160t-52 -110q-43 -67 -118.5 -104t-169.5 -37q-130 0 -203.5 68t-73.5 190q0 50 14 165l117 963h168l-115 -934q-14 -129 -14 -160q0 -62 34.5 -97.5t94.5 -35.5q39 0 74 17.5t55 46.5q21 29 32 74t25 155l115 934h166zM563 1790
q71 0 119.5 -49t48.5 -121q0 -70 -49.5 -119t-120.5 -49q-67 0 -116.5 50.5t-49.5 119.5t49.5 118.5t118.5 49.5zM563 1698q-31 0 -53.5 -22.5t-22.5 -53.5q0 -32 22 -55t52 -23q32 0 55 22.5t23 53.5q0 32 -22 55t-54 23z" />
    <glyph glyph-name="uring" unicode="&#x16f;" horiz-adv-x="712" 
d="M150 924h157l-71 -580q-11 -90 -11 -113q0 -47 23.5 -72.5t66.5 -25.5q59 0 87.5 46t41.5 165l72 580h158l-84 -674q-15 -121 -95 -192.5t-200 -71.5q-102 0 -167 56.5t-65 145.5q0 25 7 72zM444 1374q69 0 117.5 -49t48.5 -121q0 -70 -49.5 -119t-120.5 -49
q-66 0 -115 50t-49 118q0 70 49.5 120t118.5 50zM444 1280q-32 0 -53.5 -21.5t-21.5 -52.5t21.5 -53.5t51.5 -22.5q32 0 54 22t22 54q0 31 -21.5 52.5t-52.5 21.5z" />
    <glyph glyph-name="Uhungarumlaut" unicode="&#x170;" horiz-adv-x="851" 
d="M854 1366l-119 -975q-12 -102 -30 -160t-52 -110q-43 -67 -118.5 -104t-169.5 -37q-130 0 -203.5 68t-73.5 190q0 50 14 165l117 963h168l-115 -934q-14 -129 -14 -160q0 -62 34.5 -97.5t94.5 -35.5q39 0 74 17.5t55 46.5q21 29 32 74t25 155l115 934h166zM803 1772
l106 -78l-219 -226l-67 56zM551 1772l106 -78l-219 -226l-67 56z" />
    <glyph glyph-name="uhungarumlaut" unicode="&#x171;" horiz-adv-x="712" 
d="M150 924h157l-71 -580q-11 -90 -11 -113q0 -47 23.5 -72.5t66.5 -25.5q59 0 87.5 46t41.5 165l72 580h158l-84 -674q-15 -121 -95 -192.5t-200 -71.5q-102 0 -167 56.5t-65 145.5q0 25 7 72zM557 1044l-70 56l168 256l107 -72zM326 1044l-70 56l168 256l106 -72z" />
    <glyph glyph-name="Uogonek" unicode="&#x172;" horiz-adv-x="851" 
d="M606 -182l-20 -111q-50 -20 -94 -20q-69 0 -111.5 33t-42.5 87q0 105 111 181q-47 -8 -78 -8q-135 0 -209 67.5t-74 190.5q0 50 14 165l117 963h168l-115 -934q-14 -129 -14 -158q0 -62 34.5 -97.5t94.5 -35.5q39 0 74 17.5t55 46.5q21 29 32 73.5t25 153.5l115 934h166
l-119 -975q-19 -153 -50 -222t-120 -153q-104 -101 -104 -161q0 -25 18 -40.5t47 -15.5q31 0 80 19z" />
    <glyph glyph-name="uogonek" unicode="&#x173;" horiz-adv-x="712" 
d="M520 -176l-18 -111q-46 -20 -94 -20q-69 0 -111.5 34t-42.5 89q0 50 24.5 91t81.5 85q-46 -6 -65 -6q-102 0 -167 56.5t-65 145.5q0 25 7 72l80 664h157l-71 -580q-11 -90 -11 -113q0 -47 23.5 -72.5t66.5 -25.5q59 0 87.5 46t41.5 165l72 580h158l-84 -674
q-9 -66 -30 -107t-81 -108q-57 -64 -79.5 -103t-22.5 -71q0 -25 18 -40.5t47 -15.5q32 0 78 19z" />
    <glyph glyph-name="Wcircumflex" unicode="&#x174;" horiz-adv-x="1134" 
d="M1241 1366l-418 -1366h-149l-33 778v19q-4 40 -4 67q0 89 10 228l-6 -25l-6 -31q-32 -141 -68 -258l-239 -778h-150l-63 1366h172l20 -782l2 -15v-30q0 -73 -6 -150l-2 -57q0 -17 -2 -31q53 206 78 287l233 778h140l28 -811q4 -88 4 -137v-78v-39q23 141 72 301l213 764
h174zM455 1561l268 211l211 -213l-92 -91l-137 136l-177 -136z" />
    <glyph glyph-name="wcircumflex" unicode="&#x175;" horiz-adv-x="978" 
d="M1022 924l-328 -924h-145l-21 358l-4 70q-3 58 -6 111q-2 20 -2 41v26l-2 45v62q-25 -109 -51 -183l-158 -530h-145l-92 924h155l35 -484q8 -110 8 -166q0 -25 -2 -41l12 50q1 3 3.5 11.5t7 23.5t8.5 32l4 15l170 559h147l25 -488l2 -37l2 -133l2 -33q16 70 51 177
l170 514h154zM571 1356l201 -226l-92 -86l-125 144l-164 -144l-72 93z" />
    <glyph glyph-name="Ycircumflex" unicode="&#x176;" horiz-adv-x="716" 
d="M825 1366l-358 -752l-76 -614h-166l76 614l-188 752h182l82 -387q17 -81 26 -195q29 99 74 199l166 383h182zM256 1561l268 211l211 -213l-92 -91l-137 136l-176 -136z" />
    <glyph glyph-name="ycircumflex" unicode="&#x177;" horiz-adv-x="636" 
d="M686 924l-496 -1295h-159l155 394l-123 901h160l49 -459q0 -3 4 -35l5 -59q6 -105 6 -127q1 4 16 55q4 13 25 70l10 26l186 529h162zM428 1356l201 -226l-92 -86l-125 144l-164 -144l-72 93z" />
    <glyph glyph-name="Ydieresis" unicode="&#x178;" horiz-adv-x="716" 
d="M825 1366l-358 -752l-76 -614h-166l76 614l-188 752h182l82 -387q17 -81 26 -195q29 99 74 199l166 383h182zM371 1690q38 0 63 -26t25 -65q0 -46 -34.5 -80t-80.5 -34q-37 0 -62.5 25.5t-25.5 62.5q0 47 34.5 82t80.5 35zM655 1690q38 0 63 -26t25 -65q0 -46 -34 -80
t-80 -34q-37 0 -62.5 25.5t-25.5 62.5q0 47 34 82t80 35z" />
    <glyph glyph-name="Zacute" unicode="&#x179;" horiz-adv-x="669" 
d="M758 1366l-549 -1208h364l-20 -158h-588l545 1208h-354l20 158h582zM614 1772l107 -101l-254 -203l-74 66z" />
    <glyph glyph-name="zacute" unicode="&#x17a;" horiz-adv-x="593" 
d="M635 924l-438 -785h290l-16 -139h-514l436 782h-297l19 142h520zM377 1044l-80 60l211 252l117 -88z" />
    <glyph glyph-name="Zdotaccent" unicode="&#x17b;" horiz-adv-x="669" 
d="M758 1366l-549 -1208h364l-20 -158h-588l545 1208h-354l20 158h582zM508 1698q41 0 67.5 -27t26.5 -67q0 -49 -36.5 -85t-86.5 -36q-38 0 -65 27t-27 67q0 49 35.5 85t85.5 36z" />
    <glyph glyph-name="zdotaccent" unicode="&#x17c;" horiz-adv-x="593" 
d="M635 924l-438 -785h290l-16 -139h-514l436 782h-297l19 142h520zM418 1274q40 0 66 -26.5t26 -67.5q0 -46 -36 -81.5t-83 -35.5q-38 0 -65 27t-27 65q0 47 36 83t83 36z" />
    <glyph glyph-name="Zcaron" unicode="&#x17d;" horiz-adv-x="669" 
d="M758 1366l-549 -1208h364l-20 -158h-588l545 1208h-354l20 158h582zM750 1679l-269 -211l-209 211l93 93l135 -138l176 138z" />
    <glyph glyph-name="zcaron" unicode="&#x17e;" horiz-adv-x="593" 
d="M635 924l-438 -785h290l-16 -139h-514l436 782h-297l19 142h520zM389 1044l-201 228l93 84l125 -142l163 142l72 -92z" />
    <glyph glyph-name="longs" unicode="&#x17f;" horiz-adv-x="436" 
d="M227 0h-157l96 784h-100l16 140h100l41 323q15 126 73.5 190t156.5 64q46 0 100 -22l-21 -162q-24 20 -37 26.5t-30 6.5q-19 0 -37 -10t-27 -25q-10 -12 -14.5 -30.5t-9.5 -63.5z" />
    <glyph glyph-name="uni018F" unicode="&#x18f;" horiz-adv-x="866" 
d="M111 737l516 -2q18 126 18 309q0 91 -29 133t-92 42q-70 0 -111.5 -54t-78.5 -194l-180 33q60 203 149 291.5t234 88.5q153 0 226 -92.5t73 -287.5q0 -200 -38 -438.5t-87 -346.5q-56 -123 -135.5 -180t-196.5 -57q-145 0 -220 90t-75 262q0 147 27 403zM608 608h-317
q-23 -109 -23 -207q0 -141 27.5 -195t99.5 -54q59 0 97.5 38t64.5 121q45 142 51 297z" />
    <glyph glyph-name="florin" unicode="&#x192;" horiz-adv-x="780" 
d="M729 967l-31 -107h-145l-242 -817q-54 -179 -116.5 -249t-169.5 -70q-48 0 -109 20l47 160q36 -31 68 -31q40 0 67 38t56 134l241 815h-104l31 107h104l84 284q44 147 106.5 208t167.5 61q50 0 103 -23l-47 -158q-34 29 -66 29q-40 0 -63 -28.5t-45 -102.5l-80 -270h143z
" />
    <glyph glyph-name="uni01C4" unicode="&#x1c4;" horiz-adv-x="1488" 
d="M51 0l168 1366h176q217 0 299 -98q43 -49 67.5 -135t24.5 -183q0 -204 -43.5 -410t-115.5 -339q-107 -201 -381 -201h-195zM367 1212l-129 -1056h41q64 0 110 23.5t88 76.5q54 70 94.5 273.5t40.5 400.5q0 145 -50 213.5t-156 68.5h-39zM1577 1366l-551 -1208h365
l-19 -158h-590l545 1208h-354l20 158h584zM1569 1679l-269 -211l-210 211l92 93l137 -138l176 138z" />
    <glyph glyph-name="uni01C5" unicode="&#x1c5;" horiz-adv-x="1413" 
d="M51 0l168 1366h176q217 0 299 -98q43 -49 67.5 -135t24.5 -183q0 -204 -43.5 -410t-115.5 -339q-107 -201 -381 -201h-195zM367 1212l-129 -1056h41q64 0 110 23.5t88 76.5q54 70 94.5 273.5t40.5 400.5q0 145 -50 213.5t-156 68.5h-39zM1454 924l-438 -785h291l-17 -139
h-514l434 782h-295l17 142h522zM1206 1044l-198 228l92 84l125 -142l164 142l71 -92z" />
    <glyph glyph-name="uni01C6" unicode="&#x1c6;" horiz-adv-x="1294" 
d="M731 1485l-182 -1485h-158l10 82q-41 -51 -81.5 -73.5t-90.5 -22.5q-86 0 -132 72.5t-46 207.5q0 152 30.5 306t78.5 247q28 54 81.5 87.5t110.5 33.5q50 0 83 -21.5t61 -70.5l77 637h158zM385 805q-63 0 -104 -86q-25 -57 -47.5 -194.5t-22.5 -235.5q0 -168 90 -168
q29 0 55.5 17.5t40.5 45.5q51 115 66 289q12 140 12 184q0 70 -23.5 109t-66.5 39zM1335 924l-438 -785h291l-17 -139h-514l437 782h-297l18 142h520zM1090 1044l-201 228l92 84l125 -142l164 142l71 -92z" />
    <glyph glyph-name="uni01C7" unicode="&#x1c7;" horiz-adv-x="1073" 
d="M387 1366l-149 -1208h288l-20 -158h-455l168 1366h168zM1159 1366l-133 -1075q-10 -90 -21.5 -131.5t-35.5 -79.5q-32 -47 -89 -73.5t-126 -26.5q-83 0 -154 36l21 174q57 -63 120 -63q59 0 83 36.5t36 143.5l131 1059h168z" />
    <glyph glyph-name="uni01C8" unicode="&#x1c8;" horiz-adv-x="921" 
d="M387 1366l-149 -1208h288l-20 -158h-455l168 1366h168zM883 924l-162 -1307h-156l160 1307h158zM854 1309q40 0 67 -28t27 -69q0 -51 -37 -88t-88 -37q-39 0 -66.5 28.5t-27.5 68.5q0 51 37 88t88 37z" />
    <glyph glyph-name="uni01C9" unicode="&#x1c9;" horiz-adv-x="698" 
d="M377 1485l-182 -1485h-158l182 1485h158zM657 924l-159 -1307h-158l162 1307h155zM631 1309q40 0 67 -28t27 -69q0 -51 -37 -88t-88 -37q-39 0 -66.5 28.5t-27.5 68.5q0 51 37 88t88 37z" />
    <glyph glyph-name="uni01CA" unicode="&#x1ca;" horiz-adv-x="1363" 
d="M860 1366l-168 -1366h-151l-199 879q-20 112 -23 135v-21q0 -65 -14 -202l-98 -791h-156l168 1366h152l202 -897q0 -1 1 -4.5t2 -9t2 -9.5q0 -1 1 -7l3 -18t4 -22q5 -28 8 -43q-2 16 -2 39q0 54 10 156l100 815h158zM1364 1366l-131 -1075q-10 -91 -22 -132.5t-37 -78.5
q-31 -47 -87.5 -73.5t-125.5 -26.5q-85 0 -156 36l22 174q57 -63 121 -63q58 0 82.5 37t36.5 143l131 1059h166z" />
    <glyph glyph-name="uni01CB" unicode="&#x1cb;" horiz-adv-x="1210" 
d="M860 1366l-168 -1366h-151l-199 879q-20 112 -23 135v-21q0 -65 -14 -202l-98 -791h-156l168 1366h152l202 -897q0 -1 1 -4.5t2 -9t2 -9.5q0 -1 1 -7l3 -18t4 -22q5 -28 8 -43q-2 16 -2 39q0 54 10 156l100 815h158zM1171 924l-159 -1307h-158l160 1307h157zM1143 1309
q40 0 67 -28t27 -69q0 -51 -36.5 -88t-86.5 -37q-39 0 -66.5 28.5t-27.5 68.5q0 51 36.5 88t86.5 37z" />
    <glyph glyph-name="uni01CC" unicode="&#x1cc;" horiz-adv-x="1060" 
d="M307 924l-12 -95q90 109 205 109q69 0 108 -42.5t39 -117.5q0 -28 -8 -114l-82 -664h-156l76 623q8 86 8 94q0 34 -21.5 56t-53.5 22q-29 0 -57.5 -15.5t-45.5 -40.5q-28 -47 -41 -145l-71 -594h-158l113 924h157zM1022 924l-160 -1307h-157l159 1307h158zM993 1309
q40 0 67 -28t27 -69q0 -51 -36 -88t-86 -37q-40 0 -67.5 28.5t-27.5 68.5q0 51 36.5 88t86.5 37z" />
    <glyph glyph-name="uni01CD" unicode="&#x1cd;" horiz-adv-x="737" 
d="M559 1366l117 -1366h-176l-19 266h-280l-82 -266h-172l446 1366h166zM473 406l-27 401q-8 104 -8 184q0 40 6 148q-39 -198 -82 -340l-118 -393h229zM752 1679l-269 -211l-209 211l93 93l137 -138l174 138z" />
    <glyph glyph-name="uni01CE" unicode="&#x1ce;" horiz-adv-x="706" 
d="M668 924l-113 -924h-158l11 82q-41 -51 -81.5 -73.5t-90.5 -22.5q-86 0 -132.5 73t-46.5 209q0 153 30 305.5t79 245.5q28 55 80.5 88t111.5 33q50 0 83 -21.5t61 -70.5l8 76h158zM391 805q-63 0 -104 -86q-25 -57 -47.5 -194.5t-22.5 -235.5q0 -168 90 -168
q29 0 55.5 17.5t40.5 45.5q51 115 66 289q12 140 12 184q0 70 -23.5 109t-66.5 39zM438 1044l-200 228l92 84l125 -142l163 142l72 -92z" />
    <glyph glyph-name="uni01CF" unicode="&#x1cf;" horiz-adv-x="385" 
d="M387 1366l-168 -1366h-168l168 1366h168zM573 1679l-268 -211l-211 211l94 93l136 -138l176 138z" />
    <glyph glyph-name="uni01D0" unicode="&#x1d0;" horiz-adv-x="346" 
d="M307 924l-112 -924h-158l113 924h157zM240 1044l-201 228l94 84l123 -142l166 142l72 -92z" />
    <glyph glyph-name="uni01D1" unicode="&#x1d1;" horiz-adv-x="899" 
d="M567 1386q140 0 218.5 -119.5t78.5 -334.5q0 -182 -34 -374.5t-87 -309.5q-58 -129 -150.5 -198.5t-205.5 -69.5q-146 0 -223.5 119.5t-77.5 346.5q0 201 42 401.5t108 321.5q59 103 145.5 160t185.5 57zM543 1227q-103 0 -174 -148q-42 -95 -75.5 -286.5t-33.5 -341.5
q0 -306 150 -306q107 0 176 150q43 97 74.5 296.5t31.5 375.5q0 124 -39 192t-110 68zM842 1679l-271 -211l-209 211l93 93l137 -138l174 138z" />
    <glyph glyph-name="uni01D2" unicode="&#x1d2;" horiz-adv-x="698" 
d="M412 940q101 0 155 -63q35 -38 56.5 -110.5t21.5 -152.5q0 -108 -22 -231t-54 -193q-92 -204 -278 -204q-115 0 -175.5 88.5t-60.5 257.5q0 122 29 245t76 205q44 77 109 117.5t143 40.5zM393 795q-28 0 -55.5 -20t-42.5 -52q-35 -69 -57.5 -182.5t-22.5 -223.5
q0 -88 25 -137t71 -49q78 0 123 139q49 152 49 340q0 185 -90 185zM432 1044l-201 228l95 84l123 -142l165 142l72 -92z" />
    <glyph glyph-name="uni01D3" unicode="&#x1d3;" horiz-adv-x="851" 
d="M854 1366l-119 -975q-12 -102 -30 -160t-52 -110q-43 -67 -118.5 -104t-169.5 -37q-130 0 -203.5 68t-73.5 190q0 50 14 165l117 963h168l-115 -934q-14 -129 -14 -160q0 -62 34.5 -97.5t94.5 -35.5q39 0 74 17.5t55 46.5q21 29 32 74t25 155l115 934h166zM823 1679
l-270 -211l-209 211l92 93l137 -138l175 138z" />
    <glyph glyph-name="uni01D4" unicode="&#x1d4;" horiz-adv-x="712" 
d="M150 924h157l-71 -580q-11 -90 -11 -113q0 -47 23.5 -72.5t66.5 -25.5q59 0 87.5 46t41.5 165l72 580h158l-84 -674q-15 -121 -95 -192.5t-200 -71.5q-102 0 -167 56.5t-65 145.5q0 25 7 72zM428 1044l-199 228l93 84l124 -142l164 142l72 -92z" />
    <glyph glyph-name="uni01DD" unicode="&#x1dd;" horiz-adv-x="667" 
d="M244 606h-158q18 114 57 182q37 65 103.5 103.5t142.5 38.5q236 0 236 -305q0 -115 -24 -246t-58 -207q-41 -90 -109 -138t-155 -48q-110 0 -169 82t-59 237q0 67 15 184h385q8 68 8 121q0 95 -20.5 134.5t-67.5 39.5q-51 0 -84 -45.5t-43 -132.5zM436 369h-213
q-4 -33 -4 -78q0 -90 18 -126t62 -36q52 0 79.5 49.5t57.5 190.5z" />
    <glyph glyph-name="Gcaron" unicode="&#x1e6;" horiz-adv-x="845" 
d="M457 733h346l-25 -192q-20 -168 -44 -253.5t-70 -154.5q-51 -74 -123.5 -113.5t-155.5 -39.5q-146 0 -223.5 106.5t-77.5 306.5q0 189 35 401t84 320q59 133 150 202.5t208 69.5q234 0 277 -278l-172 -66q-8 100 -36.5 143.5t-88.5 43.5t-105 -46t-82 -145
q-38 -103 -67 -300t-29 -357q0 -119 38.5 -180.5t111.5 -61.5q87 0 130 77.5t68 275.5l10 88h-178zM838 1679l-269 -211l-211 211l93 93l137 -138l176 138z" />
    <glyph glyph-name="gcaron" unicode="&#x1e7;" horiz-adv-x="714" 
d="M676 924l-121 -987q-16 -146 -63 -213q-79 -117 -246 -117q-114 0 -173 58t-59 169q0 24 6 76h148q-4 -25 -4 -53q0 -111 100 -111q66 0 94.5 48.5t47.5 193.5l10 92q-43 -46 -81 -66t-83 -20q-91 0 -142 78t-51 217q0 141 28.5 280.5t78.5 239.5q31 60 83.5 94.5
t112.5 34.5q49 0 84 -21t64 -69l10 76h156zM393 803q-28 0 -53 -17t-39 -45q-31 -60 -56.5 -193t-25.5 -235q0 -182 98 -182q44 0 73.5 36t49.5 114q20 69 33.5 176t13.5 184q0 76 -25 119t-69 43zM438 1044l-200 228l92 84l125 -142l163 142l72 -92z" />
    <glyph glyph-name="uni01F4" unicode="&#x1f4;" horiz-adv-x="845" 
d="M457 733h346l-25 -192q-20 -168 -44 -253.5t-70 -154.5q-51 -74 -123.5 -113.5t-155.5 -39.5q-146 0 -223.5 106.5t-77.5 306.5q0 189 35 401t84 320q59 132 150 202t206 70q239 0 279 -278l-172 -66q-8 100 -36.5 143.5t-88.5 43.5t-105 -46t-82 -145q-38 -103 -67 -300
t-29 -357q0 -119 38.5 -180.5t111.5 -61.5q87 0 130 77.5t68 275.5l10 88h-178zM707 1772l108 -101l-254 -203l-74 66z" />
    <glyph glyph-name="uni01F5" unicode="&#x1f5;" horiz-adv-x="714" 
d="M676 924l-121 -987q-16 -146 -63 -213q-79 -117 -246 -117q-114 0 -173 58t-59 169q0 24 6 76h148q-4 -25 -4 -53q0 -111 100 -111q66 0 94.5 48.5t47.5 193.5l10 92q-43 -46 -81 -66t-83 -20q-91 0 -142 78t-51 217q0 141 28.5 280.5t78.5 239.5q31 60 83.5 94.5
t112.5 34.5q49 0 84 -21t64 -69l10 76h156zM393 803q-28 0 -53 -17t-39 -45q-31 -60 -56.5 -193t-25.5 -235q0 -182 98 -182q44 0 73.5 36t49.5 114q20 69 33.5 176t13.5 184q0 76 -25 119t-69 43zM354 1044l-80 60l213 252l117 -88z" />
    <glyph glyph-name="Aringacute" unicode="&#x1fa;" horiz-adv-x="737" 
d="M559 1366l117 -1366h-176l-19 266h-280l-82 -266h-172l446 1366h166zM473 406l-27 401q-8 104 -8 184q0 40 6 148q-39 -198 -82 -340l-118 -393h229zM487 1729q71 0 119.5 -48.5t48.5 -119.5t-49 -119.5t-121 -48.5q-67 0 -116.5 50t-49.5 118q0 69 49.5 118.5
t118.5 49.5zM487 1636q-32 0 -53.5 -21.5t-21.5 -53.5q0 -31 22 -53.5t53 -22.5t53.5 22t22.5 54t-22 53.5t-54 21.5zM479 1985l109 -101l-256 -203l-72 68z" />
    <glyph glyph-name="aringacute" unicode="&#x1fb;" horiz-adv-x="706" 
d="M668 924l-113 -924h-158l11 82q-41 -51 -81.5 -73.5t-90.5 -22.5q-86 0 -132.5 73t-46.5 209q0 153 30 305.5t79 245.5q28 55 80.5 88t111.5 33q50 0 83 -21.5t61 -70.5l8 76h158zM391 805q-63 0 -104 -86q-25 -57 -47.5 -194.5t-22.5 -235.5q0 -168 90 -168
q29 0 55.5 17.5t40.5 45.5q51 115 66 289q12 140 12 184q0 70 -23.5 109t-66.5 39zM463 1374q69 0 117.5 -49.5t48.5 -118.5q0 -72 -49 -121t-121 -49q-66 0 -115 50.5t-49 119.5t49.5 118.5t118.5 49.5zM463 1280q-32 0 -54 -21.5t-22 -52.5t21.5 -53.5t52.5 -22.5
q32 0 54 22t22 54q0 31 -21.5 52.5t-52.5 21.5zM301 1337l-80 60l213 252l117 -88z" />
    <glyph glyph-name="AEacute" unicode="&#x1fc;" horiz-adv-x="1011" 
d="M868 1366l13 -158h-281l29 -422h270l14 -157h-270l31 -471h276l13 -158h-455l-12 264h-299l-78 -264h-172l444 1366h477zM485 406l-22 466q-6 123 -6 154q0 14 2 92v39q-22 -108 -74 -274l-143 -477h243zM696 1772l109 -101l-254 -203l-74 66z" />
    <glyph glyph-name="aeacute" unicode="&#x1fd;" horiz-adv-x="1071" 
d="M1004 430h-406q-8 -63 -8 -102q0 -97 30 -153t82 -56q109 0 136 190h139q-25 -151 -103.5 -237t-191.5 -86q-64 0 -109 34t-77 107q-100 -141 -240 -141q-103 0 -160 67.5t-57 188.5q0 156 78.5 256t201.5 100q98 0 150 -61q6 61 6 104q0 73 -39.5 116.5t-107.5 43.5
q-70 0 -170 -66l18 156q98 49 186 49q85 0 137 -35.5t81 -113.5q88 149 227 149q97 0 153 -87t56 -239q0 -76 -12 -184zM614 547h256q4 43 4 84q0 75 -29 125.5t-73 50.5q-57 0 -99 -69.5t-59 -190.5zM336 475q-64 0 -107 -61t-43 -152q0 -67 27.5 -105t77.5 -38
q66 0 110.5 60t44.5 149q0 71 -28 109t-82 38zM594 1044l-80 60l211 252l119 -88z" />
    <glyph glyph-name="Oslashacute" unicode="&#x1fe;" horiz-adv-x="907" 
d="M952 1331l-108 -174q26 -82 26 -211q0 -198 -32.5 -386t-87.5 -312q-60 -131 -151.5 -199.5t-205.5 -68.5q-137 0 -219 118l-76 -116l-78 55l103 166q-31 94 -31 231q0 193 32 373.5t89 304.5q62 134 153 204t205 70q69 0 121.5 -28.5t102.5 -91.5l73 116zM700 963
l-409 -711q3 -3 8 -21q10 -38 43.5 -63t73.5 -25q58 0 105 43.5t77 122.5q48 131 71.5 281t30.5 373zM266 397l412 719q-34 111 -127 111q-69 0 -119 -56t-88 -176q-31 -99 -54.5 -262.5t-23.5 -286.5v-49zM694 1772l109 -101l-256 -203l-72 66z" />
    <glyph glyph-name="oslashacute" unicode="&#x1ff;" horiz-adv-x="688" 
d="M637 952l78 -53l-94 -131q14 -98 14 -164q0 -120 -25.5 -252t-62.5 -198q-92 -168 -262 -168q-108 0 -172 67l-58 -76l-69 58l80 115q-17 75 -17 139q0 144 26.5 278.5t69.5 208.5q86 154 250 154q58 0 89.5 -12.5t86.5 -55.5zM223 340l230 381q-12 31 -28 43t-44 12
q-77 0 -111 -123q-10 -42 -17 -86t-30 -227zM465 584l-232 -383q3 -32 23.5 -51t52.5 -19q81 0 111 133q23 102 45 320zM391 1044l-80 60l213 252l117 -88z" />
    <glyph glyph-name="uni0200" unicode="&#x200;" horiz-adv-x="737" 
d="M559 1366l117 -1366h-176l-19 266h-280l-82 -266h-172l446 1366h166zM473 406l-27 401q-8 104 -8 184q0 40 6 148q-39 -198 -82 -340l-118 -393h229zM236 1772l180 -248l-68 -56l-219 226zM487 1772l181 -248l-68 -56l-219 226z" />
    <glyph glyph-name="uni0201" unicode="&#x201;" horiz-adv-x="706" 
d="M668 924l-113 -924h-158l11 82q-41 -51 -81.5 -73.5t-90.5 -22.5q-86 0 -132.5 73t-46.5 209q0 153 30 305.5t79 245.5q28 55 80.5 88t111.5 33q50 0 83 -21.5t61 -70.5l8 76h158zM391 805q-63 0 -104 -86q-25 -57 -47.5 -194.5t-22.5 -235.5q0 -168 90 -168
q29 0 55.5 17.5t40.5 45.5q51 115 66 289q12 140 12 184q0 70 -23.5 109t-66.5 39zM342 1044l-205 240l109 72l168 -256zM573 1044l-204 240l108 72l168 -256z" />
    <glyph glyph-name="Scommaaccent" unicode="&#x218;" horiz-adv-x="727" 
d="M709 1315l-23 -193q-46 57 -88 81t-96 24q-85 0 -144 -65.5t-59 -160.5q0 -66 30 -114.5t107 -108.5q139 -109 185.5 -179t46.5 -171q0 -119 -55 -222.5t-148 -164.5t-201 -61q-122 0 -209 69l25 193q93 -99 196 -99q92 0 157 72.5t65 173.5q0 67 -31.5 111.5
t-134.5 124.5q-117 89 -161 162t-44 176q0 177 110 300t267 123q108 0 205 -71zM74 -397l149 307l133 -33l-190 -299z" />
    <glyph glyph-name="scommaaccent" unicode="&#x219;" horiz-adv-x="544" 
d="M535 874l-50 -155q-61 84 -133 84q-47 0 -80.5 -35t-33.5 -84q0 -38 21 -69t79 -78q83 -67 112 -116.5t29 -121.5q0 -128 -86.5 -220.5t-206.5 -92.5q-105 0 -192 73l51 152q41 -44 72.5 -62t68.5 -18q55 0 94 41t39 100q0 37 -22 72t-76 80q-80 68 -112.5 122t-32.5 120
q0 116 81 195t199 79q96 0 179 -66zM258 -117l-182 -289l-92 27l143 295z" />
    <glyph glyph-name="uni021A" unicode="&#x21a;" horiz-adv-x="579" 
d="M688 1366l-20 -156h-203l-150 -1210h-168l150 1210h-205l21 156h575zM6 -397l152 307l131 -33l-191 -299z" />
    <glyph glyph-name="uni021B" unicode="&#x21b;" horiz-adv-x="421" 
d="M475 924l-16 -140h-137l-97 -784h-157l96 784h-92l16 140h94l31 254h158l-33 -254h137zM207 -117l-182 -289l-93 27l144 295z" />
    <glyph glyph-name="uni0226" unicode="&#x226;" horiz-adv-x="737" 
d="M559 1366l117 -1366h-176l-19 266h-280l-82 -266h-172l446 1366h166zM473 406l-27 401q-8 104 -8 184q0 40 6 148q-39 -198 -82 -340l-118 -393h229zM512 1698q41 0 67.5 -27t26.5 -67q0 -48 -37 -84.5t-86 -36.5q-38 0 -65 27t-27 67q0 49 35.5 85t85.5 36z" />
    <glyph glyph-name="uni0227" unicode="&#x227;" horiz-adv-x="706" 
d="M668 924l-113 -924h-158l11 82q-41 -51 -81.5 -73.5t-90.5 -22.5q-86 0 -132.5 73t-46.5 209q0 153 30 305.5t79 245.5q28 55 80.5 88t111.5 33q50 0 83 -21.5t61 -70.5l8 76h158zM391 805q-63 0 -104 -86q-25 -57 -47.5 -194.5t-22.5 -235.5q0 -168 90 -168
q29 0 55.5 17.5t40.5 45.5q51 115 66 289q12 140 12 184q0 70 -23.5 109t-66.5 39zM471 1274q40 0 66 -26t26 -66q0 -47 -37 -83t-84 -36q-37 0 -63.5 27t-26.5 65q0 47 36 83t83 36z" />
    <glyph glyph-name="uni0237" unicode="&#x237;" horiz-adv-x="352" 
d="M311 924l-157 -1299h-158l160 1299h155z" />
    <glyph glyph-name="uni02BB" unicode="&#x2bb;" horiz-adv-x="454" 
d="M137 983l260 449l111 -29l-207 -461z" />
    <glyph glyph-name="afii57929" unicode="&#x2bc;" horiz-adv-x="454" 
d="M504 1366l-260 -448l-111 28l207 461z" />
    <glyph glyph-name="circumflex" unicode="&#x2c6;" 
d="M625 1356l198 -226l-92 -86l-125 144l-164 -144l-71 93z" />
    <glyph glyph-name="caron" unicode="&#x2c7;" 
d="M596 1044l-201 228l92 84l125 -142l164 142l72 -92z" />
    <glyph glyph-name="uni02C9" unicode="&#x2c9;" 
d="M377 1098l16 125h445l-17 -125h-444z" />
    <glyph glyph-name="breve" unicode="&#x2d8;" 
d="M723 1311h119q-22 -117 -91.5 -185.5t-164.5 -68.5q-82 0 -136.5 63.5t-54.5 159.5v31h119q0 -133 82 -133q89 0 127 133z" />
    <glyph glyph-name="dotaccent" unicode="&#x2d9;" 
d="M616 1274q39 0 66 -26t27 -64q0 -49 -35.5 -85t-83.5 -36q-38 0 -65 27t-27 65q0 47 35.5 83t82.5 36z" />
    <glyph glyph-name="ring" unicode="&#x2da;" 
d="M606 1374q70 0 119 -49.5t49 -120.5q0 -70 -49.5 -119t-120.5 -49q-67 0 -116.5 50.5t-49.5 119.5t49.5 118.5t118.5 49.5zM606 1280q-32 0 -54 -21.5t-22 -52.5t22.5 -53.5t51.5 -22.5q32 0 55 22t23 54q0 31 -22.5 52.5t-53.5 21.5z" />
    <glyph glyph-name="ogonek" unicode="&#x2db;" 
d="M537 0h100q-113 -90 -113 -160q0 -25 18.5 -40t47.5 -15q34 0 80 18l-21 -110q-53 -21 -94 -21q-69 0 -111.5 34t-42.5 89q0 52 32 100t104 105z" />
    <glyph glyph-name="tilde" unicode="&#x2dc;" 
d="M733 1255h119q-14 -85 -57.5 -134.5t-104.5 -49.5q-58 0 -125 45q-32 21 -49 21q-26 0 -39 -58h-119q19 86 59 133.5t95 47.5q49 0 133 -48q26 -16 45 -16q29 0 43 59z" />
    <glyph glyph-name="hungarumlaut" unicode="&#x2dd;" 
d="M733 1044l-71 56l169 256l107 -72zM502 1044l-72 56l170 256l107 -72z" />
    <glyph glyph-name="pi" unicode="&#x3c0;" horiz-adv-x="739" 
d="M662 762l-95 -762h-170l95 762h-170l-93 -762h-170l95 762h-82l20 153h668l-19 -153h-79z" />
    <glyph glyph-name="uni1E1E" unicode="&#x1e1e;" horiz-adv-x="626" 
d="M680 1366l-18 -156h-295l-52 -426h275l-21 -159h-274l-76 -625h-168l168 1366h461zM489 1698q40 0 67.5 -27t27.5 -67q0 -49 -36.5 -85t-86.5 -36q-38 0 -65 27t-27 67q0 50 35.5 85.5t84.5 35.5z" />
    <glyph glyph-name="Wgrave" unicode="&#x1e80;" horiz-adv-x="1134" 
d="M1241 1366l-418 -1366h-149l-33 778v19q-4 40 -4 67q0 89 10 228l-6 -25l-6 -31q-32 -141 -68 -258l-239 -778h-150l-63 1366h172l20 -782l2 -15v-30q0 -73 -6 -150l-2 -57q0 -17 -2 -31q53 206 78 287l233 778h140l28 -811q4 -88 4 -137v-78v-39q23 141 72 301l213 764
h174zM668 1772l149 -250l-88 -54l-190 220z" />
    <glyph glyph-name="wgrave" unicode="&#x1e81;" horiz-adv-x="978" 
d="M1022 924l-328 -924h-145l-21 358l-4 70q-3 58 -6 111q-2 20 -2 41v26l-2 45v62q-25 -109 -51 -183l-158 -530h-145l-92 924h155l35 -484q8 -110 8 -166q0 -25 -2 -41l12 50q1 3 3.5 11.5t7 23.5t8.5 32l4 15l170 559h147l25 -488l2 -37l2 -133l2 -33q16 70 51 177
l170 514h154zM535 1356l147 -256l-88 -56l-184 232z" />
    <glyph glyph-name="Wacute" unicode="&#x1e82;" horiz-adv-x="1134" 
d="M1241 1366l-418 -1366h-149l-33 778v19q-4 40 -4 67q0 89 10 228l-6 -25l-6 -31q-32 -141 -68 -258l-239 -778h-150l-63 1366h172l20 -782l2 -15v-30q0 -73 -6 -150l-2 -57q0 -17 -2 -31q53 206 78 287l233 778h140l28 -811q4 -88 4 -137v-78v-39q23 141 72 301l213 764
h174zM791 1772l108 -101l-254 -203l-74 66z" />
    <glyph glyph-name="wacute" unicode="&#x1e83;" horiz-adv-x="978" 
d="M1022 924l-328 -924h-145l-21 358l-4 70q-3 58 -6 111q-2 20 -2 41v26l-2 45v62q-25 -109 -51 -183l-158 -530h-145l-92 924h155l35 -484q8 -110 8 -166q0 -25 -2 -41l12 50q1 3 3.5 11.5t7 23.5t8.5 32l4 15l170 559h147l25 -488l2 -37l2 -133l2 -33q16 70 51 177
l170 514h154zM514 1044l-80 60l213 252l117 -88z" />
    <glyph glyph-name="Wdieresis" unicode="&#x1e84;" horiz-adv-x="1134" 
d="M1241 1366l-418 -1366h-149l-33 778v19q-4 40 -4 67q0 89 10 228l-6 -25l-6 -31q-32 -141 -68 -258l-239 -778h-150l-63 1366h172l20 -782l2 -15v-30q0 -73 -6 -150l-2 -57q0 -17 -2 -31q53 206 78 287l233 778h140l28 -811q4 -88 4 -137v-78v-39q23 141 72 301l213 764
h174zM571 1690q37 0 62.5 -25.5t25.5 -62.5q0 -47 -34 -82t-80 -35q-37 0 -62.5 25.5t-25.5 62.5q0 47 34 82t80 35zM856 1690q38 0 63 -26t25 -65q0 -46 -34.5 -80t-80.5 -34q-37 0 -62.5 25.5t-25.5 62.5q0 47 34.5 82t80.5 35z" />
    <glyph glyph-name="wdieresis" unicode="&#x1e85;" horiz-adv-x="978" 
d="M1022 924l-328 -924h-145l-21 358l-4 70q-3 58 -6 111q-2 20 -2 41v26l-2 45v62q-25 -109 -51 -183l-158 -530h-145l-92 924h155l35 -484q8 -110 8 -166q0 -25 -2 -41l12 50q1 3 3.5 11.5t7 23.5t8.5 32l4 15l170 559h147l25 -488l2 -37l2 -133l2 -33q16 70 51 177
l170 514h154zM420 1266q38 0 63 -26t25 -64q0 -44 -34.5 -78.5t-80.5 -34.5q-35 0 -60.5 25.5t-25.5 62.5q0 46 34.5 80.5t78.5 34.5zM698 1266q37 0 61.5 -25.5t24.5 -62.5q0 -46 -34 -80.5t-80 -34.5q-35 0 -60.5 25.5t-25.5 62.5q0 46 34 80.5t80 34.5z" />
    <glyph glyph-name="Ygrave" unicode="&#x1ef2;" horiz-adv-x="716" 
d="M825 1366l-358 -752l-76 -614h-166l76 614l-188 752h182l82 -387q17 -81 26 -195q29 99 74 199l166 383h182zM459 1772l149 -250l-88 -54l-190 220z" />
    <glyph glyph-name="ygrave" unicode="&#x1ef3;" horiz-adv-x="636" 
d="M686 924l-496 -1295h-159l155 394l-123 901h160l49 -459q0 -3 4 -35l5 -59q6 -105 6 -127q1 4 16 55q4 13 25 70l10 26l186 529h162zM348 1356l146 -256l-88 -56l-183 232z" />
    <glyph glyph-name="uni2011" unicode="&#x2011;" horiz-adv-x="296" 
d="M-6 426l20 172h297l-20 -172h-297z" />
    <glyph glyph-name="figuredash" unicode="&#x2012;" horiz-adv-x="780" 
d="M125 426l20 172h521l-21 -172h-520z" />
    <glyph glyph-name="endash" unicode="&#x2013;" horiz-adv-x="780" 
d="M125 426l20 172h521l-21 -172h-520z" />
    <glyph glyph-name="emdash" unicode="&#x2014;" horiz-adv-x="888" 
d="M-4 426l20 172h889l-20 -172h-889z" />
    <glyph glyph-name="afii00208" unicode="&#x2015;" horiz-adv-x="888" 
d="M-4 426l20 172h889l-20 -172h-889z" />
    <glyph glyph-name="underscoredbl" unicode="&#x2017;" 
d="M25 -117h1024v-102h-1024v102zM25 -354h1024v-105h-1024v105z" />
    <glyph glyph-name="quoteleft" unicode="&#x2018;" horiz-adv-x="454" 
d="M137 983l260 449l111 -29l-207 -461z" />
    <glyph glyph-name="quoteright" unicode="&#x2019;" horiz-adv-x="454" 
d="M504 1366l-260 -448l-111 28l207 461z" />
    <glyph glyph-name="quotesinglbase" unicode="&#x201a;" horiz-adv-x="440" 
d="M334 166l-260 -449l-111 29l207 461z" />
    <glyph glyph-name="quotereversed" unicode="&#x201b;" 
d="M485 1346l93 26l188 -295l-133 -33z" />
    <glyph glyph-name="quotedblleft" unicode="&#x201c;" horiz-adv-x="722" 
d="M406 983l260 449l110 -29l-207 -461zM137 983l260 449l111 -29l-207 -461z" />
    <glyph glyph-name="quotedblright" unicode="&#x201d;" horiz-adv-x="722" 
d="M504 1366l-260 -448l-111 28l207 461zM772 1366l-260 -448l-111 28l207 461z" />
    <glyph glyph-name="quotedblbase" unicode="&#x201e;" horiz-adv-x="718" 
d="M344 166l-260 -449l-111 29l207 461zM612 166l-260 -449l-110 29l207 461z" />
    <glyph glyph-name="dagger" unicode="&#x2020;" horiz-adv-x="780" 
d="M213 -360l166 1345h-199l17 139h198l45 361h152l-45 -361h198l-16 -139h-199l-165 -1345h-152z" />
    <glyph glyph-name="daggerdbl" unicode="&#x2021;" horiz-adv-x="780" 
d="M322 535l55 436h-199l17 139h198l45 375h152l-45 -375h198l-18 -139h-199l-53 -436h199l-17 -140h-198l-95 -755h-149l92 755h-199l17 140h199z" />
    <glyph glyph-name="bullet" unicode="&#x2022;" horiz-adv-x="1366" 
d="M713 983q114 0 195 -85t81 -202q0 -119 -81.5 -202.5t-198.5 -83.5t-200 84t-83 204q0 118 84 201.5t203 83.5z" />
    <glyph glyph-name="ellipsis" unicode="&#x2026;" horiz-adv-x="1144" 
d="M162 217q40 0 68 -28.5t28 -69.5q0 -52 -38 -90.5t-89 -38.5q-40 0 -68 29t-28 71q0 51 38 89t89 38zM545 217q40 0 68 -28.5t28 -69.5q0 -52 -38 -90.5t-89 -38.5q-41 0 -69.5 28.5t-28.5 69.5q0 52 38 90.5t91 38.5zM926 215q40 0 68 -28.5t28 -69.5q0 -51 -38 -89
t-89 -38q-40 0 -68 28.5t-28 69.5q0 51 38 89t89 38z" />
    <glyph glyph-name="perthousand" unicode="&#x2030;" horiz-adv-x="1976" 
d="M1008 629q113 0 176 -67t63 -187q0 -179 -88.5 -288.5t-234.5 -109.5q-119 0 -182.5 65.5t-63.5 188.5q0 183 89 290.5t241 107.5zM993 537q-91 0 -142.5 -80.5t-51.5 -220.5q0 -166 137 -166q86 0 138 81.5t52 213.5q0 172 -133 172zM1681 631q114 0 177 -67t63 -187
q0 -180 -89 -290t-235 -110q-120 0 -183.5 66t-63.5 190q0 182 89.5 290t241.5 108zM1667 539q-91 0 -144 -80t-53 -217q0 -83 36 -126.5t102 -43.5q86 0 138 82t52 219q0 81 -34 123.5t-97 42.5zM434 1352q117 0 178.5 -66.5t61.5 -191.5q0 -178 -90 -287t-238 -109
q-117 0 -179.5 66.5t-62.5 191.5q0 180 89.5 288t240.5 108zM418 1257q-99 0 -150 -102q-43 -84 -43 -197q0 -80 34.5 -122.5t98.5 -42.5q86 0 139.5 81t53.5 213q0 170 -133 170zM1262 1352l-1049 -1372h-123l1049 1372h123z" />
    <glyph glyph-name="guilsinglleft" unicode="&#x2039;" horiz-adv-x="448" 
d="M428 829l-231 -346l145 -348l-100 -55l-174 403l272 398z" />
    <glyph glyph-name="guilsinglright" unicode="&#x203a;" horiz-adv-x="448" 
d="M111 829l100 52l174 -398l-272 -403l-88 55l231 348z" />
    <glyph glyph-name="uni203E" unicode="&#x203e;" 
d="M25 1776h1024v-148h-1024v148z" />
    <glyph glyph-name="fraction" unicode="&#x2044;" horiz-adv-x="251" 
d="M584 1366l-766 -1366h-105l768 1366h103z" />
    <glyph glyph-name="franc" unicode="&#x20a3;" horiz-adv-x="780" 
d="M655 1366l-18 -156h-295l-51 -426h266l-20 -159h-267l-75 -625h-168l168 1366h460zM463 0l72 580h129l-11 -76q59 95 135 98l-18 -139q-14 2 -29 2q-53 0 -82 -43q-19 -27 -30 -113l-37 -309h-129z" />
    <glyph glyph-name="lira" unicode="&#x20a4;" horiz-adv-x="780" 
d="M545 403h-172q-6 -57 -21 -94.5t-61 -111.5q33 -16 80 -52q41 -32 61.5 -42.5t42.5 -10.5q64 0 90 105l105 -35q-19 -89 -76.5 -143t-132.5 -54q-39 0 -78 18.5t-111 73.5q-48 35 -75 35q-63 0 -105 -86l-100 64q64 110 147 135q49 77 63.5 114.5t14.5 83.5h-209l12 99
h195q-3 18 -14 51q-11 28 -23 74h-141l10 98h103q-12 28 -23.5 91.5t-11.5 101.5q0 192 106 314t273 122q119 0 190.5 -75.5t71.5 -199.5q0 -28 -2 -57l-154 -16q4 23 4 47q0 66 -35 106.5t-92 40.5q-47 0 -88 -26.5t-63 -69.5q-41 -91 -41 -191q0 -81 41 -188h258l-13 -98
h-223q6 -18 6 -23l8 -41q14 -54 15 -61h180z" />
    <glyph glyph-name="peseta" unicode="&#x20a7;" horiz-adv-x="1290" 
d="M295 627l-76 -627h-168l168 1366h209q171 0 246.5 -70t75.5 -229q0 -109 -34.5 -206.5t-92.5 -151.5q-87 -84 -275 -84q-28 0 -53 2zM313 776h60q119 0 162 76q45 88 45 209q0 83 -36 120.5t-118 37.5h-57zM911 590l-14 -119h-84l-57 -471h-129l57 471h-53l14 119h53
l21 160h129l-21 -160h84zM1270 559l-39 -121q0 4 -12 13q-37 43 -89 43q-26 0 -43.5 -17.5t-17.5 -42.5q0 -39 68 -90q54 -40 75 -73t21 -78q0 -85 -61.5 -145t-147.5 -60q-70 0 -139 49l37 117q58 -52 104 -52q32 0 54 21.5t22 52.5q0 41 -66 90q-54 41 -77 77t-23 77
q0 77 58.5 129.5t144.5 52.5q69 0 131 -43z" />
    <glyph glyph-name="Euro" unicode="&#x20ac;" horiz-adv-x="688" 
d="M342 848h254l-51 -127h-226q-8 -61 -12 -133h176l-51 -127h-127q3 -104 27 -172q23 -68 64 -105t93 -37q40 0 113 27l-20 -166q-83 -26 -125 -26q-97 0 -177 75t-114 199q-22 87 -25 205h-141l51 127h94q4 47 15 133h-127l49 127h100q38 171 92 278q58 118 157.5 188
t207.5 70q74 0 143 -43l-55 -149q-4 2 -8 2l-43 20q-17 7 -43 7q-163 0 -250 -224q-27 -79 -41 -149z" />
    <glyph glyph-name="uni2101" unicode="&#x2101;" horiz-adv-x="1392" 
d="M455 1366l80 -819h-125l-13 155h-161l-52 -155h-121l279 819h113zM391 799l-16 229q-6 82 -6 119q-14 -62 -33 -123l-70 -225h125zM1188 1366l-754 -1366h-106l757 1366h103zM1319 784l-16 -133q-32 40 -59 56t-62 16q-50 0 -84.5 -35.5t-34.5 -87.5q0 -38 19 -66.5
t65 -62.5q89 -63 120 -106t31 -105q0 -109 -77 -189.5t-183 -80.5q-80 0 -137 45l17 131q65 -68 129 -68q54 0 92.5 39.5t38.5 95.5q0 37 -22 66t-81 70q-70 47 -101.5 95.5t-31.5 108.5q0 107 70.5 181.5t171.5 74.5q71 0 135 -45z" />
    <glyph glyph-name="afii61248" unicode="&#x2105;" horiz-adv-x="401" 
d="M227 801q43 0 74 -31t31 -74t-31 -74.5t-74 -31.5t-73.5 31t-30.5 75q0 42 31.5 73.5t72.5 31.5z" />
    <glyph glyph-name="afii61289" unicode="&#x2113;" 
d="M346 408l-18 -17q-59 -59 -80 -59q-10 0 -19.5 11.5t-9.5 23.5q0 20 41 55q33 30 100 106q103 523 213 715q87 148 193 148q58 0 94.5 -45t36.5 -117q0 -101 -44.5 -221t-123.5 -234q-62 -90 -190 -223q-21 -104 -29 -148q-39 -170 -39 -276q0 -49 37 -49q55 0 102 110
q16 37 39 37q12 0 20.5 -8t8.5 -20q0 -34 -24.5 -79.5t-65.5 -88.5q-61 -58 -123 -58q-64 0 -101.5 51.5t-37.5 139.5q0 56 20 246zM561 688q118 130 184 269.5t66 259.5q0 38 -13.5 62t-33.5 24q-52 0 -97.5 -138t-105.5 -477z" />
    <glyph glyph-name="afii61352" unicode="&#x2116;" horiz-adv-x="1331" 
d="M1139 965q90 0 137 -58.5t47 -169.5q0 -183 -70 -289t-190 -106q-189 0 -189 242q0 77 22 154t60 132q28 43 78 69t105 26zM1122 836q-25 1 -47 -32.5t-35.5 -91.5t-13.5 -124q0 -117 51 -117q82 0 94 254q3 51 -10 80.5t-39 30.5zM1270 260l-19 -158h-438l18 158h439z
M215 1366h172l115 -545q23 -100 47.5 -253t32.5 -240v141q0 211 22 387l64 510h184l-168 -1366h-172l-131 614q-35 181 -41 232q-7 46 -14 135q0 3 -1.5 14t-3 27t-2.5 29q0 -60 -2 -68l-8 -139q-1 -27 -4 -83t-4 -85q-1 -4 -8 -80l-66 -596h-180z" />
    <glyph glyph-name="uni2117" unicode="&#x2117;" horiz-adv-x="256" 
d="M268 1110l-67 -563h-125l69 563h123zM238 1333q29 0 49 -19.5t20 -47.5q0 -35 -27.5 -61.5t-62.5 -26.5q-31 0 -51.5 20t-20.5 49q0 34 28 60t65 26z" />
    <glyph glyph-name="trademark" unicode="&#x2122;" horiz-adv-x="1005" 
d="M469 1366l-12 -102h-117l-84 -676h-111l82 676h-116l12 102h346zM987 1366l-2 -778h-113l13 514l-154 -514h-88l-29 506l-112 -506h-115l193 778h118l21 -528l149 528h119z" />
    <glyph glyph-name="uni2126" unicode="&#x2126;" horiz-adv-x="1343" 
d="M84 0v150h350q-180 107 -265 251t-85 342q0 183 81 333.5t222.5 236.5t312.5 86q128 0 242.5 -50.5t196 -138t129 -209.5t47.5 -260q0 -195 -85.5 -340t-262.5 -251h348v-150h-529v135q183 104 272 249t89 339q0 232 -148 389q-128 137 -297 137q-126 0 -229.5 -68.5
t-162 -189t-58.5 -266.5q0 -384 362 -590v-135h-530z" />
    <glyph glyph-name="estimated" unicode="&#x212e;" horiz-adv-x="1222" 
d="M1087 512h-763l-2 -215q19 -62 35.5 -92.5t45.5 -54.5q78 -72 220 -72q244 0 344 213h90q-46 -149 -157 -226t-279 -77q-223 0 -349.5 141.5t-126.5 390.5q0 252 129 400.5t349 148.5q147 0 258.5 -69.5t162.5 -192.5q22 -55 31 -118.5t12 -176.5zM938 584v190
q-17 49 -47 84q-54 63 -117.5 92t-150.5 29q-111 0 -177 -45.5t-118 -159.5v-190h610z" />
    <glyph glyph-name="partialdiff" unicode="&#x2202;" 
d="M195 1227l20 145q127 -17 215 -44t168 -73q185 -109 289 -306.5t104 -440.5q0 -188 -71 -307q-60 -105 -161 -164.5t-220 -59.5q-123 0 -228 62.5t-166 169.5t-61 233q0 186 124.5 317.5t301.5 131.5q93 0 161 -33t134 -110q-66 202 -223.5 326t-386.5 153zM547 768
q-127 0 -212 -95.5t-85 -238.5q0 -137 84.5 -234.5t204.5 -97.5q121 0 202.5 98t81.5 244q0 140 -78 232t-198 92z" />
    <glyph glyph-name="emptyset" unicode="&#x2205;" horiz-adv-x="1265" 
d="M924 1366l98 -51l-98 -180q231 -161 231 -418q0 -209 -147.5 -353.5t-362.5 -144.5q-93 0 -160 33l-129 -252l-98 51l125 250q-221 164 -221 414q0 207 145.5 352t354.5 145q80 0 165 -28zM877 1028l-338 -676q65 -16 118 -16q158 0 270.5 111t112.5 268q0 97 -44 181.5
t-119 131.5zM436 406l338 673q-61 17 -110 17q-160 0 -274 -112t-114 -269q0 -180 160 -309z" />
    <glyph glyph-name="Delta" unicode="&#x2206;" horiz-adv-x="1366" 
d="M78 0l538 1366h177l544 -1366h-1259zM313 154h785l-393 1013z" />
    <glyph glyph-name="product" unicode="&#x220f;" horiz-adv-x="1439" 
d="M100 1536h1289v-154h-164v-1740h164v-154h-496v154h168v1740h-633v-1740h166v-154h-494v154h164v1740h-164v154z" />
    <glyph glyph-name="summation" unicode="&#x2211;" horiz-adv-x="1366" 
d="M1255 1536v-473h-149l-14 319h-828l516 -829l-516 -911h846l10 317h154v-471h-1194v172l508 893l-508 815v168h1175z" />
    <glyph glyph-name="minus" unicode="&#x2212;" horiz-adv-x="778" 
d="M94 623v149h645v-149h-645z" />
    <glyph glyph-name="uni2215" unicode="&#x2215;" horiz-adv-x="251" 
d="M584 1366l-766 -1366h-105l768 1366h103z" />
    <glyph glyph-name="uni2218" unicode="&#x2218;" 
d="M543 983q114 0 195 -85t81 -202q0 -119 -81.5 -202.5t-198.5 -83.5t-200 84t-83 204q0 118 84 201.5t203 83.5zM541 887q-78 0 -133.5 -56t-55.5 -135q0 -78 55 -134t132 -56q75 0 129.5 56t54.5 134t-54 134.5t-128 56.5z" />
    <glyph glyph-name="uni2219" unicode="&#x2219;" horiz-adv-x="401" 
d="M217 600q42 0 71 -29t29 -71q0 -54 -39 -93.5t-92 -39.5q-41 0 -70.5 29.5t-29.5 70.5q0 54 38.5 93.5t92.5 39.5z" />
    <glyph glyph-name="radical" unicode="&#x221a;" horiz-adv-x="1366" 
d="M1391 1698v-154h-398l-428 -1544h-205l-161 604h-174v154h307l71 -254q9 -33 50 -254l4 -31h12q2 10 4 19.5t3 14.5t1 7q8 37 28 125t30 137q21 96 100 385l217 791h539z" />
    <glyph glyph-name="infinity" unicode="&#x221e;" horiz-adv-x="1366" 
d="M711 588q-76 -107 -158.5 -157t-179.5 -50q-136 0 -224 89.5t-88 229.5q0 135 88.5 224.5t223.5 89.5q189 0 332 -207q74 106 156 156.5t181 50.5q135 0 222.5 -89.5t87.5 -230.5q0 -138 -87.5 -226.5t-222.5 -88.5q-97 0 -177 51t-154 158zM788 696q62 -96 116 -137
t118 -41q72 0 120 51t48 127t-49 127t-121 51q-62 0 -115.5 -41t-116.5 -137zM625 696q-60 95 -114.5 136.5t-119.5 41.5q-72 0 -120 -51t-48 -127q0 -75 49.5 -125.5t122.5 -50.5q61 0 114.5 41t115.5 135z" />
    <glyph glyph-name="integral" unicode="&#x222b;" 
d="M207 -489l35 145q56 -21 96 -21q32 0 58.5 14t37.5 36q12 25 15.5 61t3.5 139l2 1225q0 167 8.5 227t38.5 101q71 98 219 98q61 0 143 -20l-35 -148q-56 21 -96 21q-91 0 -110 -91q-5 -34 -5 -235v-1147q0 -149 -7.5 -210t-30.5 -101q-31 -54 -95.5 -84.5t-150.5 -30.5
q-56 0 -127 21z" />
    <glyph glyph-name="similar" unicode="&#x223c;" 
d="M139 537l-96 63q60 130 125.5 186t157.5 56q80 0 229 -70q81 -38 121.5 -50.5t79.5 -12.5q52 0 91 30.5t85 106.5l96 -60q-51 -105 -110 -161q-35 -32 -86 -53t-93 -21q-46 0 -101.5 18t-166.5 70q-95 45 -162 45q-47 0 -88 -35t-82 -112z" />
    <glyph glyph-name="uni2243" unicode="&#x2243;" 
d="M1016 600v-143h-985v143h985zM131 713l-96 61q62 131 126.5 186.5t155.5 55.5q79 0 230 -68q134 -63 196 -63q55 0 95 30t86 105l98 -57q-34 -66 -57 -100t-56 -62q-35 -32 -85.5 -53t-92.5 -21q-46 0 -101 17.5t-167 68.5q-95 45 -162 45q-47 0 -88 -35t-82 -110z" />
    <glyph glyph-name="approxequal" unicode="&#x2248;" 
d="M139 713l-96 61q62 131 126.5 186.5t156.5 55.5q78 0 229 -68q134 -63 197 -63q56 0 95 29.5t85 105.5l96 -57q-31 -64 -54.5 -98.5t-55.5 -63.5q-35 -32 -86 -53t-93 -21q-46 0 -101 17.5t-167 68.5q-95 45 -162 45q-47 0 -88 -35t-82 -110zM139 360l-96 62
q62 132 126.5 188t156.5 56q80 0 229 -70q82 -38 122.5 -51t78.5 -13q52 0 90.5 30.5t85.5 105.5l96 -58q-31 -63 -54.5 -97.5t-55.5 -63.5q-35 -32 -86 -53t-93 -21q-46 0 -101.5 18t-166.5 70q-95 45 -162 45q-93 0 -170 -148z" />
    <glyph glyph-name="notequal" unicode="&#x2260;" 
d="M580 928l110 229l111 -47l-88 -182h268v-146h-334l-88 -184h422v-145h-489l-111 -230l-113 47l19 35h-58l70 217h88l23 43h-318v76h244l65 141h-309v146h488z" />
    <glyph glyph-name="lessequal" unicode="&#x2264;" 
d="M979 1264v-156l-713 -317l713 -318v-156l-887 400v141zM979 258v-154h-887v154h887z" />
    <glyph glyph-name="greaterequal" unicode="&#x2265;" 
d="M92 317v156l713 318l-713 317v156l887 -406v-141zM92 104v154h887v-154h-887z" />
    <glyph glyph-name="lozenge" unicode="&#x25ca;" horiz-adv-x="1366" 
d="M709 1419l530 -735l-530 -737l-533 737zM709 1124l-322 -440l322 -442l319 442z" />
    <glyph glyph-name="ffl" unicode="&#xfb04;" horiz-adv-x="1148" 
d="M553 1479l-21 -162q-25 21 -37.5 27t-29.5 6q-41 0 -64 -33q-17 -24 -24 -96l-37 -297h96l-16 -140h-96l-97 -784h-157l96 784h-100l16 140h100l41 323q30 254 232 254q44 0 98 -22zM868 924l-16 -140h-143l-97 -784h-157l96 784h-84l16 140h84l41 323q30 254 232 254
q45 0 96 -22l-18 -162q-41 33 -68 33q-43 0 -64 -35q-17 -25 -24 -94l-37 -297h143zM1178 1485l-183 -1485h-155l182 1485h156z" />
    </font>
</defs>
</svg>
